/* XPM */
static char * calc48_xpm[] = {
"48 48 5 1",
" 	c None",
".	c #000000",
"+	c #CCCCCC",
"@	c #FFFFFF",
"#	c #FF0000",
"                                                ",
"                                                ",
"      ....................................      ",
"    ........................................    ",
"   ..........................................   ",
"   ..........+@@@@@@@@@@@@@@@@@@@@@+.........   ",
"  ..........+@@@@@@@@@@@@@@@@@@@@@@@+.........  ",
"  ..........@@@@@@@@@@@@@@@@@@@@@@@@@.........  ",
"  ..........@@@...................@@@.........  ",
"  ..........@@@.........#.###.###.@@@.........  ",
"  ..........@@@.........#...#...#.@@@.........  ",
"  ..........@@@.........#.###.###.@@@.........  ",
"  ..........@@@.........#.#.....#.@@@.........  ",
"  ..........@@@.........#.###.###.@@@.........  ",
"  ..........@@@...................@@@.........  ",
"  ..........@@@@@@@@@@@@@@@@@@@@@@@@@.........  ",
"  ..........@@@@@@@@@@@@@@@@@@@@@@@@@.........  ",
"  ..........@@@+...+@@+...+@@+...+@@@.........  ",
"  ..........@@@.....@@.....@@.###.@@@.........  ",
"  ..........@@@.....@@.....@@.###.@@@.........  ",
"  ..........@@@+...+@@+...+@@+...+@@@.........  ",
"  ..........@@@@@@@@@@@@@@@@@@@@@@@@@.........  ",
"  ..........@@@@@@@@@@@@@@@@@@@@@@@@@.........  ",
"  ..........@@@+...+@@+...+@@+...+@@@.........  ",
"  ..........@@@.....@@.....@@.....@@@.........  ",
"  ..........@@@.....@@.....@@.....@@@.........  ",
"  ..........@@@+...+@@+...+@@+...+@@@.........  ",
"  ..........@@@@@@@@@@@@@@@@@@@@@@@@@.........  ",
"  ..........@@@@@@@@@@@@@@@@@@@@@@@@@.........  ",
"  ..........@@@+...+@@+...+@@+...+@@@.........  ",
"  ..........@@@.....@@.....@@.....@@@.........  ",
"  ..........@@@.....@@.....@@.....@@@.........  ",
"  ..........@@@+...+@@+...+@@+...+@@@.........  ",
"  ..........@@@@@@@@@@@@@@@@@@@@@@@@@.........  ",
"  ..........@@@@@@@@@@@@@@@@@@@@@@@@@.........  ",
"  ..........@@@+...+@@+...+@@+...+@@@.........  ",
"  ..........@@@.....@@.....@@.....@@@.........  ",
"  ..........@@@.....@@.....@@.....@@@.........  ",
"  ..........@@@+...+@@+...+@@+...+@@@.........  ",
"  ..........@@@@@@@@@@@@@@@@@@@@@@@@@.........  ",
"  ..........@@@@@@@@@@@@@@@@@@@@@@@@@.........  ",
"  ..........+@@@@@@@@@@@@@@@@@@@@@@@+.........  ",
"   ..........+@@@@@@@@@@@@@@@@@@@@@+.........   ",
"   ..........................................   ",
"    ........................................    ",
"      ....................................      ",
"                                                ",
"                                                "};
