/* XPM */
static char * cd_player48_xpm[] = {
"48 48 8 1",
" 	c None",
".	c #000000",
"+	c #FFFFFF",
"@	c #B2B2B2",
"#	c #CCCCCC",
"$	c #999999",
"%	c #333333",
"&	c #007F00",
"                                                ",
"                                                ",
"      ....................................      ",
"    ....................++++@...............    ",
"   .................#++..$++++++@............   ",
"   ...............#+......++++++++@..........   ",
"  ..............#+........++++++++++@.........  ",
"  .............#$.$+++....+++++++++++@........  ",
"  ............@+++++++....++++++++++++@.......  ",
"  ..........%#++++++++$...+++++++++++++@......  ",
"  .........%#%.++++++++...++++++++++++++@.....  ",
"  .........#...$+++++++...+++++++++++++++@....  ",
"  ........%#....$++++++$..++++++++++++++++....  ",
"  ........+%.....$++++++..++++++++++++++++@...  ",
"  .......%+.......$+++++$$+++++++++++++++++...  ",
"  .......+.........$+++++++++++++++++++++++@..  ",
"  .......+..........$+++$...$+++++++++++++++..  ",
"  .......+...........$+.......$+++++++++++++..  ",
"  .......#..........$+.........+++++++++++++..  ",
"  ......#%..........+..........$++++++++++++@.  ",
"  ......+.......................+++++++++++++.  ",
"  ......+$.................................$+.  ",
"  ......+++++++++++++.......................+.  ",
"  ......@++++++++++++$.........$+...........#.  ",
"  .......+++++++++++++.........+$..........#..  ",
"  .......+++++++++++++$.......$............+..  ",
"  .......+++++++++++++++$...$++$...........+..  ",
"  .......@++++++++++++++++++++++$.........%#..  ",
"  ........++++++++++++++++$.$++++$........#%..  ",
"  ...................$++++...+++++$.......#...  ",
"  ....................++++...$+++++$.....+%...  ",
"  ....$++++++++++++$..++++....++++++$...%+....  ",
"  ....++&++++&++++++..++++....+++++++$.%+.....  ",
"  ....++&&+++&&+++++..++++....++++++++$+%.....  ",
"  ....++&&&++&&&++++..++++....$++++++++.......  ",
"  ....++&&&&+&&&&+++..++++.....$+$...+........  ",
"  ....++&&&&&&&&&&++..++++.........++.........  ",
"  ....++&&&&+&&&&+++..++++.......++...........  ",
"  ....++&&&++&&&++++..++++$..++++.............  ",
"  ....++&&+++&&+++++....@++++.................  ",
"  ....++&++++&++++++..........................  ",
"  ....$++++++++++++$..........................  ",
"   ..........................................   ",
"   ..........................................   ",
"    ........................................    ",
"      ....................................      ",
"                                                ",
"                                                "};
