/* XPM */
static char * chat48_xpm[] = {
"48 48 4 1",
" 	c None",
".	c #000000",
"+	c #999999",
"@	c #FFFFFF",
"                                                ",
"                                                ",
"      ....................................      ",
"    ........................................    ",
"   ...........+@@@@@@@@@@@@@@@@@+............   ",
"   .........+@@@@@@@@@@@@@@@@@@@@@+..........   ",
"  .........+@@@@@@@@@@@@@@@@@@@@@@@+..........  ",
"  .........@@@@@@...............@@@@..........  ",
"  ........+@@@@@@...............@@@@+.........  ",
"  ........@@@@@@@@@@@@@@@@@@@@@@@@@@@.........  ",
"  ........@@@@@@@@@@@@@@@@@@@@@@@@@@@.........  ",
"  ........@@@@@.................@@@@@.........  ",
"  ........@@@@@.................@@@@@.........  ",
"  ........@@@@@@@@@@@@@@@@@@@@@@@@@@@.........  ",
"  ........+@@@@@@@@@@@@@@@@@@@@@@@@@+.........  ",
"  .........@@@@..............@@@@@@@..........  ",
"  .........+@@@..............@@@@@@@..........  ",
"  ..........+@@@@@@@@@@@@@@@@@@@@@@+..........  ",
"  ............+@@@@@@@@@@@@@@@@@@@+...........  ",
"  ........................+@@@@@@+............  ",
"  .........................@@@@@+.............  ",
"  ..................+@.....@@@@+..............  ",
"  .................+@+....+@@@+...............  ",
"  ................+@@.....@@@+................  ",
"  ...............+@@@.....@@+.................  ",
"  ..............+@@@+....+@+..................  ",
"  .............+@@@@.....@+...................  ",
"  ............+@@@@@..........................  ",
"  ...........+@@@@@@+.........................  ",
"  ..........+@@@@@@@@@@@@@@@@@@@@+............  ",
"  ..........@@@@@@@@@@@@@@@@@@@@@@+...........  ",
"  .........+@@@@@@..............@@@+..........  ",
"  .........@@@@@@@..............@@@@..........  ",
"  ........+@@@@@@@@@@@@@@@@@@@@@@@@@+.........  ",
"  ........@@@@@@@@@@@@@@@@@@@@@@@@@@@.........  ",
"  ........@@@@@.................@@@@@.........  ",
"  ........@@@@@.................@@@@@.........  ",
"  ........@@@@@@@@@@@@@@@@@@@@@@@@@@@.........  ",
"  ........@@@@@@@@@@@@@@@@@@@@@@@@@@@.........  ",
"  ........+@@@@..............@@@@@@@+.........  ",
"  .........@@@@..............@@@@@@@..........  ",
"  .........+@@@@@@@@@@@@@@@@@@@@@@@+..........  ",
"   .........+@@@@@@@@@@@@@@@@@@@@@+..........   ",
"   ...........+@@@@@@@@@@@@@@@@@+............   ",
"    ........................................    ",
"      ....................................      ",
"                                                ",
"                                                "};
