/* XPM */
static char * choice_no_xpm[] = {
"48 48 4 1",
" 	c None",
".	c #000000",
"+	c #7F0000",
"@	c #FF0000",
"                                                ",
"                                                ",
"      ....................................      ",
"    ........................................    ",
"   ..........................................   ",
"   ..........................................   ",
"  ............................................  ",
"  ............................................  ",
"  ............................................  ",
"  ............................................  ",
"  ............................................  ",
"  .....+@@@@@@@+................+@@@@@@@+.....  ",
"  ......+@@@@@@@+..............+@@@@@@@+......  ",
"  .......+@@@@@@@+............+@@@@@@@+.......  ",
"  ........+@@@@@@@+..........+@@@@@@@+........  ",
"  .........+@@@@@@@+........+@@@@@@@+.........  ",
"  ..........+@@@@@@@+......+@@@@@@@+..........  ",
"  ...........+@@@@@@@+....+@@@@@@@+...........  ",
"  ............+@@@@@@@+..+@@@@@@@+............  ",
"  .............+@@@@@@@++@@@@@@@+.............  ",
"  ..............+@@@@@@@@@@@@@@+..............  ",
"  ...............+@@@@@@@@@@@@+...............  ",
"  ................+@@@@@@@@@@+................  ",
"  .................+@@@@@@@@+.................  ",
"  ..................+@@@@@@@+.................  ",
"  .................+@@@@@@@@@+................  ",
"  ................+@@@@@@@@@@@+...............  ",
"  ...............+@@@@@@@@@@@@@+..............  ",
"  ..............+@@@@@@++@@@@@@@+.............  ",
"  .............+@@@@@@+..+@@@@@@@+............  ",
"  ............+@@@@@@+....+@@@@@@@+...........  ",
"  ...........+@@@@@@+......+@@@@@@@+..........  ",
"  ..........+@@@@@@+........+@@@@@@@+.........  ",
"  .........+@@@@@@+..........+@@@@@@@+........  ",
"  ........+@@@@@@+............+@@@@@@@+.......  ",
"  .......+@@@@@@+..............+@@@@@@@+......  ",
"  ......+@@@@@@+................+@@@@@@@+.....  ",
"  .....+@@@@@@+...............................  ",
"  ............................................  ",
"  ............................................  ",
"  ............................................  ",
"  ............................................  ",
"   ..........................................   ",
"   ..........................................   ",
"    ........................................    ",
"      ....................................      ",
"                                                ",
"                                                "};
