/* XPM */
static char * choice_yes_xpm[] = {
"48 48 4 1",
" 	c None",
".	c #000000",
"+	c #00FF00",
"@	c #007F00",
"                                                ",
"                                                ",
"      ....................................      ",
"    ........................................    ",
"   ..........................................   ",
"   ..........................................   ",
"  ............................................  ",
"  ............................................  ",
"  ............................................  ",
"  ............................................  ",
"  ............................................  ",
"  ...............................++++++.......  ",
"  ..............................@++++++.......  ",
"  ..............................++++++@.......  ",
"  .............................@++++++........  ",
"  .............................++++++@........  ",
"  ............................@++++++.........  ",
"  ............................++++++@.........  ",
"  ...........................@++++++..........  ",
"  ...........................++++++@..........  ",
"  ..........................@++++++...........  ",
"  ..........................++++++@...........  ",
"  .........................@++++++............  ",
"  .........................++++++@............  ",
"  ........................@++++++.............  ",
"  .......++++++...........++++++@.............  ",
"  .......++++++@.........@++++++..............  ",
"  .......@++++++.........++++++@..............  ",
"  ........++++++@.......@++++++...............  ",
"  ........@++++++.......++++++@...............  ",
"  .........++++++@.....@++++++................  ",
"  .........@++++++.....++++++@................  ",
"  ..........++++++@...@++++++.................  ",
"  ..........@++++++...++++++@.................  ",
"  ...........++++++@.@++++++..................  ",
"  ...........@++++++.++++++@..................  ",
"  ............++++++@++++++...................  ",
"  ............@+++++++++++@...................  ",
"  .............+++++++++++....................  ",
"  .............@+++++++++@....................  ",
"  ..............+++++++++.....................  ",
"  ............................................  ",
"   ..........................................   ",
"   ..........................................   ",
"    ........................................    ",
"      ....................................      ",
"                                                ",
"                                                "};
