/* XPM */
static char * colours48_xpm[] = {
"48 48 8 1",
" 	c None",
".	c #000000",
"+	c #7F0000",
"@	c #FF0000",
"#	c #007F00",
"$	c #00FF00",
"%	c #00007F",
"&	c #0000FF",
"                                                ",
"                                                ",
"      ....................................      ",
"    ........................................    ",
"   ..........................................   ",
"   ..........................................   ",
"  ............................................  ",
"  ............................................  ",
"  ............................................  ",
"  ........+@.@@@@@@@@@@@@@@@@@@@@@@@@.@@+.....  ",
"  .......+@@.@@@@@@@@@@@@@@@@@@@@@@@@.@@@.....  ",
"  ......+@@@.@@@@@@@@@@@@@@@@@@@@@@@@.@@@.....  ",
"  .....+@+.@.@@@@@@@@@@@@@@@@@@@@@@@@.@@@.....  ",
"  .........@.@@@@@@@@@@@@@@@@@@@@@@@@.@@@.....  ",
"  .........@.@@@@@@@@@@@@@@@@@@@@@@@@.@@@.....  ",
"  .........@.@@@@@@@@@@@@@@@@@@@@@@@@.@@+.....  ",
"  ............................................  ",
"  ............................................  ",
"  ............................................  ",
"  ............................................  ",
"  ............................................  ",
"  ........#$.$$$$$$$$$$$$$$$$$$$$$$$$.$$#.....  ",
"  .......#$$.$$$$$$$$$$$$$$$$$$$$$$$$.$$$.....  ",
"  ......#$$$.$$$$$$$$$$$$$$$$$$$$$$$$.$$$.....  ",
"  .....#$#.$.$$$$$$$$$$$$$$$$$$$$$$$$.$$$.....  ",
"  .........$.$$$$$$$$$$$$$$$$$$$$$$$$.$$$.....  ",
"  .........$.$$$$$$$$$$$$$$$$$$$$$$$$.$$$.....  ",
"  .........$.$$$$$$$$$$$$$$$$$$$$$$$$.$$#.....  ",
"  ............................................  ",
"  ............................................  ",
"  ............................................  ",
"  ............................................  ",
"  ............................................  ",
"  ........%&.&&&&&&&&&&&&&&&&&&&&&&&&.&&%.....  ",
"  .......%&&.&&&&&&&&&&&&&&&&&&&&&&&&.&&&.....  ",
"  ......%&&&.&&&&&&&&&&&&&&&&&&&&&&&&.&&&.....  ",
"  .....%&%.&.&&&&&&&&&&&&&&&&&&&&&&&&.&&&.....  ",
"  .........&.&&&&&&&&&&&&&&&&&&&&&&&&.&&&.....  ",
"  .........&.&&&&&&&&&&&&&&&&&&&&&&&&.&&&.....  ",
"  .........&.&&&&&&&&&&&&&&&&&&&&&&&&.&&%.....  ",
"  ............................................  ",
"  ............................................  ",
"   ..........................................   ",
"   ..........................................   ",
"    ........................................    ",
"      ....................................      ",
"                                                ",
"                                                "};
