/* XPM */
static char * config48_xpm[] = {
"48 48 5 1",
" 	c None",
".	c #000000",
"+	c #656565",
"@	c #FFFFFF",
"#	c #CFCFCF",
"                                                ",
"                                                ",
"      ....................................      ",
"    ........................................    ",
"   ..........................................   ",
"   .........++++++++++++++++++++++++++++++...   ",
"  ..........++++++++++++++++++++++++++++++....  ",
"  ..........++..........................++....  ",
"  ..........++..........................++....  ",
"  ..........++..........................++....  ",
"  ......................................++....  ",
"  ......................................++....  ",
"  ....@@@@@@@@@@@@@@@@@@@@@@@@@@@@@@@...++....  ",
"  ....@@@@@@@@@@@@@@@@@@@@@@@@@@@@@@@...++....  ",
"  ....@@...........................@@...++....  ",
"  ....@@..+@@@+....................@@...++....  ",
"  ....@@.+@+.+@+...................@@...++....  ",
"  ....@@.@+...+@...................@@...++....  ",
"  ....@@.@.....@..@@@@@@@@@@@@@@@..@@...++....  ",
"  ....@@.@+...+@..@@@@@@@@@@@@@@@..@@...++....  ",
"  ....@@.+@+.+@+...................@@...++....  ",
"  ....@@..+@@@+....................@@...++....  ",
"  ....@@...........................@@...++....  ",
"  ....@@...........................@@...++....  ",
"  ....@@..+@@@+....................@@...++....  ",
"  ....@@.+#...#+...................@@...++....  ",
"  ....@@.@.+@+.@..@@@@@@@@@@@@@@@..@@...++....  ",
"  ....@@.@.@@@.@..@@@@@@@@@@@@@@@..@@...++....  ",
"  ....@@.@.+@+.@...................@@...++....  ",
"  ....@@.+#...#+...................@@...++....  ",
"  ....@@..+@@@+....................@@...++....  ",
"  ....@@...........@@@@@@@@@@@@@...@@...++....  ",
"  ....@@...........@@@@@@@@@@@@@...@@..+++....  ",
"  ....@@...........@@.........@@...@@..+++....  ",
"  ....@@...........@@.........@@...@@.........  ",
"  ....@@...........@@@@@@@@@@@@@...@@.........  ",
"  ....@@...........@@@@@@@@@@@@@...@@.........  ",
"  ....@@...........................@@.........  ",
"  ....@@...........................@@.........  ",
"  ....@@@@@@@@@@@@@@@@@@@@@@@@@@@@@@@.........  ",
"  ....@@@@@@@@@@@@@@@@@@@@@@@@@@@@@@@.........  ",
"  ............................................  ",
"   ..........................................   ",
"   ..........................................   ",
"    ........................................    ",
"      ....................................      ",
"                                                ",
"                                                "};
