/* XPM */
static char * devel48_xpm[] = {
"48 48 5 1",
" 	c None",
".	c #000000",
"+	c #CFCFCF",
"@	c #656565",
"#	c #FFFFFF",
"                                                ",
"                                                ",
"      ....................................      ",
"    ........................................    ",
"   ..........................................   ",
"   ..........................................   ",
"  ............................................  ",
"  ...................................+@.......  ",
"  ...................................##@......  ",
"  ...................................###@.....  ",
"  ...................................####@....  ",
"  ...................................#####@...  ",
"  ...................................######...  ",
"  ...................................######...  ",
"  ......+##########################+.######...  ",
"  ......###########################+.######...  ",
"  ......###########################+.######...  ",
"  ......###########################+.######...  ",
"  ......+##########################+.######...  ",
"  ...................................######...  ",
"  ...................................######...  ",
"  ...................................######...  ",
"  ...................................######...  ",
"  .........@######################+..######...  ",
"  ........@########################..+####+...  ",
"  ..###############################...........  ",
"  ..@##############################...........  ",
"  ....@###########################+...........  ",
"  ......@########################@............  ",
"  ........@####################@..............  ",
"  ..........@################@................  ",
"  ...........##############@..................  ",
"  ...........@#############...................  ",
"  ............#############...................  ",
"  ............#############...................  ",
"  ...........@#############@..................  ",
"  ..........@###############@.................  ",
"  .......@#####################@..............  ",
"  .......#######################..............  ",
"  ............................................  ",
"  ............................................  ",
"  ............................................  ",
"   ..........................................   ",
"   ..........................................   ",
"    ........................................    ",
"      ....................................      ",
"                                                ",
"                                                "};
