/* XPM */
static char * floppy48_xpm[] = {
"48 48 6 1",
" 	c None",
".	c #000000",
"+	c #00FF00",
"@	c #CFCFCF",
"#	c #FFFFFF",
"$	c #656565",
"                                                ",
"                                                ",
"      ....................................      ",
"    ........................................    ",
"   ..........................................   ",
"   ...............................++++++.....   ",
"  ................................++++++......  ",
"  ................................++++++......  ",
"  ............................................  ",
"  ............................................  ",
"  ....@@@@@@@@@@@@@@@@@@@@@@@@@@@@@@@@@@@@....  ",
"  ....@@@@@@@@@@@@@@@@@@@@@@@@@@@@@@@@@@@@....  ",
"  ....@@................................@@....  ",
"  ....@@................................@@....  ",
"  ....@@...@#####################$......@@....  ",
"  ....@@...#######################$.....@@....  ",
"  ....@@@@.##...................$##$.$@@@@....  ",
"  ....@@@@.##....................$##$.$@@@....  ",
"  .........##...........@@@@@.....$##.........  ",
"  .........##...........@@@@@......##.........  ",
"  .........##...........@@@@@......##.........  ",
"  .........##...........@@@@@......##.........  ",
"  .........##...........@@@@@......##.........  ",
"  .........##...........@@@@@......##.........  ",
"  .........##...........@@@@@......##.........  ",
"  .........##...........@@@@@......##.........  ",
"  .........##...........@@@@@......##.........  ",
"  .........##......................##.........  ",
"  .........##......................##.........  ",
"  .........##..##################..##.........  ",
"  .........##..##################..##.........  ",
"  .........##..###............###..##.........  ",
"  .........##..###............###..##.........  ",
"  .........##..##################..##.........  ",
"  .........##..###............###..##.........  ",
"  .........##..###............###..##.........  ",
"  .........##..##################..##.........  ",
"  .........##..###..........#####..##.........  ",
"  .........##..###..........#####..##.........  ",
"  .........##########################.........  ",
"  .........@########################@.........  ",
"  ............................................  ",
"   ..........................................   ",
"   ..........................................   ",
"    ........................................    ",
"      ....................................      ",
"                                                ",
"                                                "};
