/* XPM */
static char * disk48_xpm[] = {
"48 48 4 1",
" 	c None",
".	c #000000",
"+	c #656565",
"@	c #FFFFFF",
"                                                ",
"                                                ",
"      ....................................      ",
"    ........................................    ",
"   ..........................................   ",
"   ..........................................   ",
"  ............................................  ",
"  ............................................  ",
"  ..............+@@@@@@@@@@@@@@+..............  ",
"  ...........+@@@@@@@@@@@@@@@@@@@@+...........  ",
"  .........+@@@@@+............+@@@@@+.........  ",
"  ........+@@@+..................+@@@+........  ",
"  ........@@+......................+@@........  ",
"  ........@@........................@@........  ",
"  ........@@+......................+@@........  ",
"  ........@@@@+..................+@@@@........  ",
"  ........@@@@@@@+............+@@@@@@@........  ",
"  ........@@.+@@@@@@@@@@@@@@@@@@@@+.@@........  ",
"  ........@@....+@@@@@@@@@@@@@@+....@@........  ",
"  ........@@........................@@........  ",
"  ........@@........................@@........  ",
"  ........@@........................@@........  ",
"  ........@@........................@@........  ",
"  ........@@........................@@........  ",
"  ........@@........................@@........  ",
"  ........@@........................@@........  ",
"  ........@@........................@@........  ",
"  ........@@........................@@........  ",
"  ........@@........................@@........  ",
"  ........@@........................@@........  ",
"  ........@@........................@@........  ",
"  ........@@........................@@........  ",
"  ........@@........................@@........  ",
"  ........@@........................@@........  ",
"  ........@@+......................+@@........  ",
"  ........+@@+....................+@@+........  ",
"  .........@@@+..................+@@@.........  ",
"  .........+@@@@@@+.........+@@@@@@@+.........  ",
"  ...........+@@@@@@@@@@@@@@@@@@@@+...........  ",
"  ...............+@@@@@@@@@@@+................  ",
"  ............................................  ",
"  ............................................  ",
"   ..........................................   ",
"   ..........................................   ",
"    ........................................    ",
"      ....................................      ",
"                                                ",
"                                                "};
