/* XPM */
static char * display48_xpm[] = {
"48 48 6 1",
" 	c None",
".	c #000000",
"+	c #999999",
"@	c #FFFFFF",
"#	c #007F00",
"$	c #00FF00",
"                                                ",
"                                                ",
"      ....................................      ",
"    ........................................    ",
"   ..........................................   ",
"   ..........................................   ",
"  ....+@@@@@@@@@@@@@@@@@@@@@@@@@@@@@@@@@@+....  ",
"  ....@@@@@@@@@@@@@@@@@@@@@@@@@@@@@@@@@@@@....  ",
"  ....@@+..............................+@@....  ",
"  ....@@..............#$$#..............@@....  ",
"  ....@@............#$$$$$$#............@@....  ",
"  ....@@..........#$$$#..#$$$#..........@@....  ",
"  ....@@........#$$$#......#$$$#........@@....  ",
"  ....@@......#$$$#..........#$$$#......@@....  ",
"  ....@@.....$$$#..............#$$$.....@@....  ",
"  ....@@.....$$$#..............#$$$.....@@....  ",
"  ....@@.....$$$$$#..........#$$$$$.....@@....  ",
"  ....@@.....$$.#$$$#......#$$$#.$$.....@@....  ",
"  ....@@.....$$...#$$$#..#$$$#...$$.....@@....  ",
"  ....@@.....$$.....#$$$$$$#.....$$.....@@....  ",
"  ....@@.....$$........$$........$$.....@@....  ",
"  ....@@.....$$........$$........$$.....@@....  ",
"  ....@@.....$$........$$........$$.....@@....  ",
"  ....@@.....$$........$$........$$.....@@....  ",
"  ....@@.....$$........$$........$$.....@@....  ",
"  ....@@.....$$$#......$$......#$$$.....@@....  ",
"  ....@@......#$$$#....$$....#$$$#......@@....  ",
"  ....@@........#$$$#..$$..#$$$#........@@....  ",
"  ....@@..........#$$$$$$$$$$#..........@@....  ",
"  ....@@............#$$$$$$#............@@....  ",
"  ....@@..............#$$#..............@@....  ",
"  ....@@+..............................+@@....  ",
"  ....@@@@@@@@@@@@@@@@@@@@@@@@@@@@@@@@@@@@....  ",
"  ....@@@@@@@@@@@@@@@@@@@@@@@@@@@@@@@###@@....  ",
"  ....+@@@@@@@@@@@@@@@@@@@@@@@@@@@@@@@@@@+....  ",
"  ............................................  ",
"  ..........@@@@@@@@@@@@@@@@@@@@@@@...........  ",
"  ..........@@@@@@@@@@@@@@@@@@@@@@@...........  ",
"  ............................................  ",
"  ......+@@@@@@@@@@@@@@@@@@@@@@@@@@@@@+.......  ",
"  ......@@@@@@@@@@@@@@@@@@@@@@@@@@@@@@@.......  ",
"  ......@@@@@@@@@@@@@@@@@@@@@@@@@@@@@@@.......  ",
"   ..........................................   ",
"   ..........................................   ",
"    ........................................    ",
"      ....................................      ",
"                                                ",
"                                                "};
