/* XPM */
static char * file_man48_xpm[] = {
"48 48 7 1",
" 	c None",
".	c #000000",
"+	c #CCCCCC",
"@	c #FFFFFF",
"#	c #999999",
"$	c #827F00",
"%	c #FFFF00",
"                                                ",
"                                                ",
"      ....................................      ",
"    ........................................    ",
"   ..........................................   ",
"   ..........................................   ",
"  ..................++++++++++++++@@#.........  ",
"  ..................++++++++++++++@@@#........  ",
"  ..................++++++++++++++@@@@#.......  ",
"  ..................++...........+@@@@@#......  ",
"  ..................++...........+@@@@@@#.....  ",
"  ..................++++++++++++++@@@@@@@.....  ",
"  ..................++...........+............  ",
"  ..................++...........+++#.........  ",
"  ..................++++++++++++++++++#.......  ",
"  ..................++..............++++#.....  ",
"  ..................++..............+++++.....  ",
"  ..................+++++++++++++++++++++.....  ",
"  ..................++.................++.....  ",
"  ..................++.................++.....  ",
"  .......$%%%%%%$...+++++++++++++++++++++.....  ",
"  ......$%%%%%%%%$.............++++++++++.....  ",
"  .....$%%%%%%%%%%$.............+++++++++.....  ",
"  .....%%%%%%%%%%%%%%%%%%%%%%%$..++++++++.....  ",
"  .....%%%%%%%%%%%%%%%%%%%%%%%%..++++++++.....  ",
"  .....%%%%%%%%%%%%%%%%%%%%%%%%..++++++++.....  ",
"  .....%%%%%%%%%%%%%%%%%%%%%%%%..++++++++.....  ",
"  .....%%%%%%%%%%%%%%%%%%%%%%%%..++++++++.....  ",
"  .....%%%%%%%%%%%%%%%%%%%%%%%%..++++++++.....  ",
"  .....%%%%%%%%%%%%%%%%%%%%%%%%..++++++++.....  ",
"  .....%%%%%%%%%%%%%%%%%%%%%%%%..++++++++.....  ",
"  .....%%%%%%%%%%%%%%%%%%%%%%%%..++++++++.....  ",
"  .....%%%%%%%%%%%%%%%%%%%%%%%%..++++++++.....  ",
"  .....%%%%%%%%%%%%%%%%%%%%%%%%..++++++++.....  ",
"  .....%%%%%%%%%%%%%%%%%%%%%%%%...............  ",
"  .....%%%%%%%%%%%%%%%%%%%%%%%%...............  ",
"  .....%%%%%%%%%%%%%%%%%%%%%%%%...............  ",
"  .....%%%%%%%%%%%%%%%%%%%%%%%%...............  ",
"  .....$%%%%%%%%%%%%%%%%%%%%%%$...............  ",
"  ............................................  ",
"  ............................................  ",
"  ............................................  ",
"   ..........................................   ",
"   ..........................................   ",
"    ........................................    ",
"      ....................................      ",
"                                                ",
"                                                "};
