/* XPM */
static char * folder_open48_xpm[] = {
"48 48 4 1",
" 	c None",
".	c #000000",
"+	c #827D00",
"@	c #FFFF00",
"                                                ",
"                                                ",
"                               ..               ",
"                             .....              ",
"                           ....+..              ",
"              ..         ....+@@..              ",
"            ....       ....+@@@@..              ",
"          ....+..    ....+@@@@@@+..        ...  ",
"        ....+@@..  ....+@@@@@@@@@..      .....  ",
"      ....+@@@@+.....+@@@@@@@@@@@..    ......   ",
"    ....+@@@@@@@...+@@@@@@@@@@@@@..  ....++..   ",
"    ..+@@@@@@@@@@+@@@@@@@@@@@@@@@++....+++..    ",
"    ..@@@@@@@@@@@@@@@@@@@@@@@@@@+....+++++..    ",
"    ..+@@@@@@@@@@@@@@@@@@@@@@@++...++++++..     ",
"     ..@@@@@@@@@@@@@@@@@@@@@++...++++++++..     ",
"     ..@@@@@@@@@@@@@@@@@@@++...+++++++++..      ",
"     ..@@@@@@@@@@@@@@@@@++...+++++++++++..      ",
"     ..+@@@@@@@@@@@@@@++...++++++++++++..       ",
"      ..@@@@@@@@@@@@++...++++++++++++++..       ",
"      ..@@@@@@@@@@+++..+++++++++++++++..        ",
"      ..@@@@@@@@+++++.++++++++++++++++..        ",
"      ..+@@@@@++++++..+++++++++++++++..         ",
"       ..@@@++++++++.++++++++++++++++..         ",
"       ..@@++++++++..+++++++++++++++..          ",
"       ..@@++++++++.++++++++++++++++..          ",
"       ..+@+++++++..+++++++++++++++..           ",
"        ..@@++++++.++++++++++++++....           ",
"        ..@@+++++..++++++++++++....             ",
"        ..@@+++++.+++++++++++....               ",
"        ..+@++++..+++++++++....                 ",
"         ..@@+++.++++++++....  ....             ",
"         ..@@++..++++++....  ........           ",
"         ..@@++.+++++....  ............         ",
"         ..+@+..+++....  ................       ",
"          ..@+.++....  ................         ",
"          ..+......  ................           ",
"          .......  ................             ",
"            ...  ................               ",
"               ................                 ",
"           ..................                   ",
"         ..................                     ",
"       ..................                       ",
"     ..................                         ",
"       ..............                           ",
"         ..........                             ",
"           ......                               ",
"             ..                                 ",
"                                                "};
