/* XPM */
static char * folder48_xpm[] = {
"48 48 5 1",
" 	c None",
".	c #000000",
"+	c #827D00",
"@	c #303030",
"#	c #FFFF00",
"                                                ",
"                                                ",
"                                 ..             ",
"                               ....++.          ",
"                      .@     ....++....         ",
"                    ....   ....++......         ",
"                  ...... ....++....+#..         ",
"                ....##.....++....+###..         ",
"              ....####...++....+#####..         ",
"            ....######.++....+#######..         ",
"           ...######+++....+#########..         ",
"          ..######+++....+###########..         ",
"          ..####+++....+#############..         ",
"          ..##+++....+###############..         ",
"          ..#++....+#################..         ",
"          ..++...+###################..         ",
"          ..+..+#####################..         ",
"          ..+..######################..         ",
"          ..+..######################..         ",
"          ..+..######################..         ",
"          ..+..######################..         ",
"          ..+..######################..         ",
"          ..+..######################..         ",
"          ..+..######################..         ",
"          ..+..######################..         ",
"          ..+..#####################+..         ",
"          ..+..###################+....         ",
"          ..+..#################+....           ",
"          ..+..###############+....             ",
"          ..+..#############+....               ",
"          ..+..###########+....  ....           ",
"          ..+..#########+....  ........         ",
"          ..+..#######+....  ...........        ",
"          ..+..#####+....  ............         ",
"          ..+..###+....  ............           ",
"          ..@..#+....  ............             ",
"          .........  ............               ",
"           ......  ............                 ",
"             ..  ............                   ",
"               ............                     ",
"             ............                       ",
"           ............                         ",
"         ............                           ",
"         ..........                             ",
"           ......                               ",
"             ..                                 ",
"                                                ",
"                                                "};
