/* XPM */
static char * font48_xpm[] = {
"48 48 9 1",
" 	c None",
".	c #000000",
"+	c #FF0000",
"@	c #656565",
"#	c #FFFFFF",
"$	c #827D00",
"%	c #FFFF00",
"&	c #303030",
"*	c #CFCFCF",
"                                                ",
"                                                ",
"      ....................................      ",
"    ........................................    ",
"   ..........................................   ",
"   ..........++++++++.............@##@.......   ",
"  ...........++++++++.............#..#........  ",
"  ...........+++..................#...........  ",
"  ...........+++...........@##@...#...........  ",
"  ...........+++.........@##@##@..#@##........  ",
"  ...........++++++....@##@..@#..###..........  ",
"  ...........++++++...####........@#..........  ",
"  ...........+++........@#@........#..........  ",
"  ...........+++.........##....#...#..........  ",
"  ...........+++.........@#@..@#@.............  ",
"  .......$...+++..........##@##@#.............  ",
"  ......$%$........&#&....@##...#.............  ",
"  .....$%%%$......&###&....##............$....  ",
"  ....$%%%%%$....&##&&#&...@#@..........$%....  ",
"  ...$%%%%%%%$..&##&..&#....##..@......$%$....  ",
"  ..$%%%%%%%%$.&###&..#&....@####.....$%$.....  ",
"  ...$%%%%%%$.&##&&#.......@###@.....$%$......  ",
"  ....$%%%%$..##&..........##@......$%$.......  ",
"  .....$%%$...@*...................$%$........  ",
"  ......$$..........................$.........  ",
"  .......%%%%%%%%%%%%%%%%%%%%%%%%%%%$.........  ",
"  .......%%%%%%%%%%%%%%%%%%%%%%%%%%%$.........  ",
"  .......%%%%%%%%%%%%%%%%%%%%%%%%%%%$.........  ",
"  .......%%%%%%%%%%%%....%.........%$.........  ",
"  .......%%%%%%%%%%%%....%.........%$.........  ",
"  .......%%%%%%%%%%%%....%%%%%%%%%%%$.........  ",
"  .......%%%%%%%%%%%%....%.......%%%$.........  ",
"  .......%%%%%%%%%%%%....%.......%%%$.........  ",
"  .......%%%%%%%%%%%%%%%%%%%%%%%%%%%$.........  ",
"  .......%%%%%%%%%%%%%%%%%%%%%%%%%%%$.........  ",
"  .......%%%%%%%%%%%%%%%%%%%%%%%%%%%$.........  ",
"  .......%%%%%%%%%%%%%%%%%%%%%%%%%%%$.........  ",
"  .......%%%%%%%%%%%%%%%%%%%%%%%%%%%$.........  ",
"  .......%%%%%%%%%%%%%%%%%%%%%%%%%%%$.........  ",
"  .......%%%%%%%%%%%%%%%%%%%%%%%%%%%$.........  ",
"  .......%%%%%%%%%%%%%%%%%%%%%%%%%%%$.........  ",
"  ............................................  ",
"   ..........................................   ",
"   ..........................................   ",
"    ........................................    ",
"      ....................................      ",
"                                                ",
"                                                "};
