/* XPM */
static char * cards48_xpm[] = {
"48 48 6 1",
" 	c None",
".	c #000000",
"+	c #656565",
"@	c #FFFFFF",
"#	c #CFCFCF",
"$	c #FF0000",
"                                                ",
"                                                ",
"      ....................................      ",
"    ........................................    ",
"   ..........................................   ",
"   ..........................................   ",
"  ............................................  ",
"  ......+@@@@@@@@@@@@@@@+.....................  ",
"  .....#@@@@@@@@@@@@@@@@@#....................  ",
"  ....+@@@@@@@$$$$$@@@@@@@+...................  ",
"  ....@@@@@@@#$$$$$#@@@@@@@..@+..@+..@+..@+...  ",
"  ....@@@@@@@$$$#$$$@@@@@@@..@@..@@..@@..@@...  ",
"  ....@@@@@@#$$$@$$$#@@@@@@..@@..@@..@@..@@...  ",
"  ....@@@@@@$$$#@#$$$@@@@@@..@@..@@..@@..@@...  ",
"  ....@@@@@#$$$@@@$$$#@@@@@..@@..@@..@@..@@...  ",
"  ....@@@@@$$$$$$$$$$$@@@@@..@@..@@..@@..@@...  ",
"  ....@@@@#$$$$$$$$$$$#@@@@..@@..@@..@@..@@...  ",
"  ....@@@@$$$#@@@@@#$$$@@@@..@@..@@..@@..@@...  ",
"  ....@@@@$$$@@@@@@@$$$@@@@..@@..@@..@@..@@...  ",
"  ....@@@@@@@@@@@@@@@@@@@@@..@@..@@..@@..@@...  ",
"  ....@@@@@@@@@@@@@@@@@@@@@..@@..@@..@@..@@...  ",
"  ...........................@@..@@..@@..@@...  ",
"  ...........................@@..@@..@@..@@...  ",
"  ....@@@@@@@@@@@@@@@@@@@@@..@@..@@..@@..@@...  ",
"  ....@@@@@@@@@@@@@@@@@@@@@..@@..@@..@@..@@...  ",
"  ....@@@@$$$@@@@@@@$$$@@@@..@@..@@..@@..@@...  ",
"  ....@@@@$$$#@@@@@#$$$@@@@..@@..@@..@@..@@...  ",
"  ....@@@@#$$$$$$$$$$$#@@@@..@@..@@..@@..@@...  ",
"  ....@@@@@$$$$$$$$$$$@@@@@..@@..@@..@@..@@...  ",
"  ....@@@@@#$$$@@@$$$#@@@@@..@@..@@..@@..@@...  ",
"  ....@@@@@@$$$#@#$$$@@@@@@..@@..@@..@@..@@...  ",
"  ....@@@@@@#$$$@$$$#@@@@@@..@@..@@..@@..@@...  ",
"  ....@@@@@@@$$$#$$$@@@@@@@..@@..@@..@@..@@...  ",
"  ....@@@@@@@#$$$$$#@@@@@@@..@@..@@..@@..@@...  ",
"  ....+@@@@@@@$$$$$@@@@@@@+..@@..@@..@@..@@...  ",
"  .....#@@@@@@@@@@@@@@@@@#...@@..@@..@@..@@...  ",
"  ......+@@@@@@@@@@@@@@@+...+@@..@@..@@..@@...  ",
"  .........................+@@@..@@..@@..@@...  ",
"  ........................+@@@+.+@@..@@..@@...  ",
"  ......@@@@@@@@@@@@@@@@@@@@@+.+@@+.+@@..@@...  ",
"  ......+@@@@@@@@@@@@@@@@@@@+.+@@+.+@@+..@+...  ",
"  ............................................  ",
"   ..........................................   ",
"   ..........................................   ",
"    ........................................    ",
"      ....................................      ",
"                                                ",
"                                                "};
