/* XPM */
static char * arcade48_xpm[] = {
"48 48 10 1",
" 	c None",
".	c #000000",
"+	c #827D00",
"@	c #FFFF00",
"#	c #7D0000",
"$	c #FF0000",
"%	c #FFFFFF",
"&	c #CFCFCF",
"*	c #656565",
"=	c #303030",
"                                                ",
"                                                ",
"      ....................................      ",
"    ........................................    ",
"   ..........................................   ",
"   ..........................................   ",
"  ............................................  ",
"  ......+@@@@@+.....+@@@@@+...................  ",
"  .....+@@@@@@@+...+@@@@@@@+..................  ",
"  .....@@..@..@@...@@..@..@@..................  ",
"  .....@@..@..@@...@@..@..@@..................  ",
"  .....@@@@@@@@@...@@@@@@@@@..................  ",
"  ............................................  ",
"  .....@@@@@@@@@...@@@@@@@@@..................  ",
"  .....+@@@@@@@+...+@@@@@@@+..................  ",
"  ......+@@@@@+.....+@@@@@+...................  ",
"  ............................................  ",
"  ............................................  ",
"  ..............................#$$$$$#.......  ",
"  .............................#$$$$$$$#......  ",
"  .............................$$..$..$$......  ",
"  .............................$$..$..$$......  ",
"  .............................$$$$$$$$$......  ",
"  ................%%..........................  ",
"  ................%%...........$$$$$$$$$......  ",
"  ................%%...........#$$$$$$$#......  ",
"  ................&&............#$$$$$#.......  ",
"  ................**..........................  ",
"  ................==..........................  ",
"  ............................................  ",
"  ............................................  ",
"  ............................................  ",
"  ................%%..........................  ",
"  ................%%..........................  ",
"  ................%%..........................  ",
"  ................%%..........................  ",
"  ................%%..........................  ",
"  ...............*%%*.........................  ",
"  ..............*%%%%*........................  ",
"  .............*%%%%%%*.......................  ",
"  ............*%%%%%%%%*......................  ",
"  ...........*%%%%%%%%%%*.....................  ",
"   ..........%%%%%%%%%%%%....................   ",
"   ..........%%%%%%%%%%%%....................   ",
"    ........................................    ",
"      ....................................      ",
"                                                ",
"                                                "};
