/* XPM */
static char * gnome48_xpm[] = {
"48 48 5 1",
" 	c None",
".	c #000000",
"+	c #656565",
"@	c #CFCFCF",
"#	c #303030",
"                                                ",
"                                                ",
"      ....................................      ",
"    ........................................    ",
"   ..................+@@@+...................   ",
"   ..................@@@@@...................   ",
"  ............+@@+...@@@@@....................  ",
"  ............@@@@+..@@@@@....................  ",
"  ...........+@@@@@..@@@@@....................  ",
"  ............@@@@@+.+@@@+....................  ",
"  ............+@@@@...........................  ",
"  ........+@+..+@@+...........................  ",
"  ........@@@@+.......+@@@@@@@+...............  ",
"  ........@@@@@...+@@@@@@@@@@@@@+.............  ",
"  ........+@@@@..+@@@@@@@@@@@@@@@.............  ",
"  ..........+@+.+@@@@@@@@@@@@@@@@+............  ",
"  .............+@@@@@@@@@@@@@@@@@@............  ",
"  ......+@@+...@@@@@@@@@@@@@@@@@@@............  ",
"  ......@@@@...@@@@@@@@@@@@@@@@@@+............  ",
"  ......+@@@..+@@@@@@@@@@@@@@@@@@.............  ",
"  .......++...@@@@@@@@@@@@@@@@@@+.............  ",
"  ............@@@@@@@@@@@@@@@@+...............  ",
"  ...........+@@@@@@@@@@@@@@@.................  ",
"  ...........@@@@@@@@@@@@@@@..................  ",
"  ...........@@@@@@@@@@@@@@...................  ",
"  ...........@@@@@@@@@@@@@+...................  ",
"  ...........@@@@@@@@@@@@@....................  ",
"  ...........@@@@@@@@@@@@+....................  ",
"  ...........+@@@@@@@@@@@.....................  ",
"  ............@@@@@@@@@@@.....................  ",
"  ............@@@@@@@@@@@.....................  ",
"  ............+@@@@@@@@@@+..........+@+.......  ",
"  ............#@@@@@@@@@@@.........+@@@.......  ",
"  .............@@@@@@@@@@@@+.....+@@@@@.......  ",
"  .............#@@@@@@@@@@@@@@@@@@@@@@+.......  ",
"  ..............#@@@@@@@@@@@@@@@@@@@@@........  ",
"  ...............#@@@@@@@@@@@@@@@@@@@+........  ",
"  .................+@@@@@@@@@@@@@@@@+.........  ",
"  ....................+@@@@@@@@@@@@+..........  ",
"  .......................+@@@@@@+.............  ",
"  .........................####...............  ",
"  ............................................  ",
"   ..........................................   ",
"   ..........................................   ",
"    ........................................    ",
"      ....................................      ",
"                                                ",
"                                                "};
