/* XPM */
static char * gnu48_xpm[] = {
"48 48 5 1",
" 	c None",
".	c #000000",
"+	c #FFFFFF",
"@	c #656565",
"#	c #CFCFCF",
"                                                ",
"                                                ",
"      ....................................      ",
"    ........................................    ",
"   ..........................................   ",
"   ..........................................   ",
"  ...................................+@.......  ",
"  .......@+..........................++@......  ",
"  ......@++..........................@++@.....  ",
"  .....@++@...........................+++.....  ",
"  .....+++............................+++@....  ",
"  ....@++@............................++++....  ",
"  ....+++.............................@+++....  ",
"  ....+++..............................+++@...  ",
"  ...@+++............@@..@@............++++...  ",
"  ...++++..........@+++..+++@..........++++...  ",
"  ...++++........@+++++..+++++@........++++...  ",
"  ...++++......@+++++++..+++++++@......++++...  ",
"  ...++++@...@++++++++@..@++++++++@...@++++...  ",
"  ...@++++++++++++++++@..@++++++++++++++++@...  ",
"  ....++++++++++++++@......@++++++++++++++....  ",
"  ....@+++++++++++@...@..@...@+++++++++++@....  ",
"  .....@++++++++@...@++..++@...@++++++++@.....  ",
"  .......@++++@...@++++..++++@...@++++@.......  ",
"  ..............@++++++..++++++@..............  ",
"  .............@+++++++..+++++++@.............  ",
"  .............++++++++..++++++++.............  ",
"  ..........@++.+++++++..+++++++.++@..........  ",
"  .......@++++@.+...+++..+++...+.@++++@.......  ",
"  ......@+++@......@+++..+++@......@+++@......  ",
"  ......+++.......@++++..++++@.......+++......  ",
"  ......@+++++....+++++..+++++...@+++++@......  ",
"  ................+++++..+++++................  ",
"  ................+++++..+++++................  ",
"  ................+++++..+++++................  ",
"  ................@++++..+++++................  ",
"  .................++++@@++++@................  ",
"  .................++++++++++.................  ",
"  .................++++++++++.................  ",
"  .................++++++++++.................  ",
"  .................@++++++++@.................  ",
"  ..................+..++..+..................  ",
"   .................+..++..+.................   ",
"   .................@#.++.#@.................   ",
"    ........................................    ",
"      ....................................      ",
"                                                ",
"                                                "};
