/* XPM */
static char * home48_xpm[] = {
"48 48 8 1",
" 	c None",
".	c #000000",
"+	c #656565",
"@	c #FFFFFF",
"#	c #CFCFCF",
"$	c #303030",
"%	c #827D00",
"&	c #FFFF00",
"                                                ",
"                                                ",
"      ....................................      ",
"    ........................................    ",
"   ..........................................   ",
"   ......................+@@@@@@@@@@@@+......   ",
"  .....................+@@@@@@@@@@@@@@@@+.....  ",
"  .....................@@@@@@@@@@@@@@@@@@.....  ",
"  ....................+@@@@@@@@@@@@@@@@@@.....  ",
"  ....................@@@@@@@@@@@@@@@@@@@@....  ",
"  ....................@@@@@@@@@@@@@@@@@@@@....  ",
"  ....................@@@@@#...#@@@@@@@@@@....  ",
"  ....................@@@@@.....@@@@@@@@@@....  ",
"  ....................@@@@@$@#..@@@@@@@@@@....  ",
"  ....................@@@@@.#@..@@@@@@@@@@....  ",
"  ....................@@@@@#.$.#@@@@@@@@@@....  ",
"  ....................@@@@@@@@@@@@@@@@@@@@....  ",
"  ....................@@@@@@@@@@@@@@@@@@@@....  ",
"  ....................@@@@@@@@@@@@@@@@@@@@....  ",
"  ....................+@@@@@@@@@@@@@@@@@@@....  ",
"  ........................+@@@@@@@@@@@@@@@....  ",
"  .........................@@@@@@@@@@@@@@@....  ",
"  ......%&&&&&&&%..........@@@@@@@@@@@@@@@....  ",
"  .....%&&&&&&&&&%..............+@@@@@@@@@....  ",
"  ....%&&&&&&&&&&&%.............#@@@@@@@@@....  ",
"  ....&&&&&&&&&&&&&&&&&&%..@@@@@@@@@@@@@@@....  ",
"  ....&&&&&&&&&&&&&&&&&&&..@@@@@@@@@@@@@@@....  ",
"  ....&&&&&&&&&&&&&&&&&&&..@@@@@@@@@@@@@@@....  ",
"  ....&&&&&&&&&&&&&&&&&&&..+@@@@@@@@@@@@@+....  ",
"  ....&&&&&&&&&&&&&&&&&&&%..#@@@@@@@@@@@#.....  ",
"  ....&&&&&&&&&&&&&&&&&&&&%..+@@@@@@@@@+......  ",
"  ....&&&&&&&&&&&&&&&&&&&&&%..................  ",
"  ....&&&&&&&&&&&&&&&&&&&&&&%.................  ",
"  ....&&&&&&&&&&&&&&&&&&&&&&&&................  ",
"  ....&&&&&&&&&&&&&&&&&&&&&&&&................  ",
"  ....&&&&&&&&&&&&&&&&&&&&&&&&................  ",
"  ....&&&&&&&&&&&&&&&&&&&&&&&&................  ",
"  ....&&&&&&&&&&&&&&&&&&&&&&&&................  ",
"  ....&&&&&&&&&&&&&&&&&&&&&&&&................  ",
"  ....&&&&&&&&&&&&&&&&&&&&&&&&................  ",
"  ....&&&&&&&&&&&&&&&&&&&&&&&&................  ",
"  ....%&&&&&&&&&&&&&&&&&&&&&&%................  ",
"   ..........................................   ",
"   ..........................................   ",
"    ........................................    ",
"      ....................................      ",
"                                                ",
"                                                "};
