/* XPM */
static char * image_proc48_xpm[] = {
"48 48 7 1",
" 	c None",
".	c #000000",
"+	c #827D00",
"@	c #FFFF00",
"#	c #CFCFCF",
"$	c #FFFFFF",
"%	c #656565",
"                                                ",
"                                                ",
"      ....................................      ",
"    ........................................    ",
"   ..........................................   ",
"   ....................................+.....   ",
"  ....................................+@+.....  ",
"  ....#$$$$$$$$$$$$$$$$$$$$$$$$$#....+@@@+....  ",
"  ....$$$$$$$$$$$$$$$$$$$$$$$$$$$...+.+@@@+...  ",
"  ....$$$$$$$$$$$$$$$$$$$$$$$$$$$..+@+.+@@@+..  ",
"  ....$$$$$$$$$$$$$$$$$$$$$$$$$$%.+@@@+.+@+...  ",
"  ....$$$$$$$$$%.....%$$$$$$$$$%.+@@@@@+.+....  ",
"  ....$$$$$$$%.........%$$$$$$%.+@@@@@@@+.....  ",
"  ....$$$$$$$...........%$$$$%.+@@@@@@@+......  ",
"  ....$$$$$$%............$$$%.+@@@@@@@+.......  ",
"  ....$$$$$$.............%$%.+@@@@@@@+........  ",
"  ....$$$$$$.............%#.+@@@@@@@+.........  ",
"  ....$$$$$%...............+@@@@@@@+..........  ",
"  ....$$$$%...$$..........+@@@@@@@+...........  ",
"  ....$$$%....%$.........+@@@@@@@+............  ",
"  ....$$%...............+@@@@@@@+.............  ",
"  ....$$...............+@@@@@@@+..............  ",
"  ....$$$%............+@@@@@@@+...............  ",
"  ....$$$$...........+@@@@@@@+................  ",
"  ....$$$$...........@@@@@@@+.................  ",
"  ....$$$$...........@@@@@@+..................  ",
"  ....$$$$%..........@@+.@+...................  ",
"  ....$$$$$%.........@+.......................  ",
"  ....$$$$$$$$%...............................  ",
"  ....$$$$$$$$$...............................  ",
"  ....$$$$$$$$$........$$$$$$$$$$.............  ",
"  ....$$$$$$$$$........%$$$$$$$$$.............  ",
"  ....$$$$$$$$$.........%$$$$$$$$.............  ",
"  ....$$$$$$$$$..........%$$$$$$$.............  ",
"  ....$$$$$$$$%...........%$$$$$$.............  ",
"  ....$$$$$$$%.............%$$$$$.............  ",
"  ....$$$$$$%...............$$$$$.............  ",
"  ....$$$$$$$$$$$$$$$$$$$$$$$$$$$.............  ",
"  ....$$$$$$$$$$$$$$$$$$$$$$$$$$$.............  ",
"  ....$$$$$$$$$$$$$$$$$$$$$$$$$$$.............  ",
"  ....#$$$$$$$$$$$$$$$$$$$$$$$$$#.............  ",
"  ............................................  ",
"   ..........................................   ",
"   ..........................................   ",
"    ........................................    ",
"      ....................................      ",
"                                                ",
"                                                "};
