/* XPM */
static char * keyboard48_xpm[] = {
"48 48 8 1",
" 	c None",
".	c #000000",
"+	c #FFFFFF",
"@	c #656565",
"#	c #303030",
"$	c #CFCFCF",
"%	c #007D00",
"&	c #00FF00",
"                                                ",
"                                                ",
"      ....................................      ",
"    ........................................    ",
"   ..........................................   ",
"   ........++.++++++@........................   ",
"  .........++.+++++++..++++++++++++++++@......  ",
"  .........++.+++++++..++++++++++++++++++@....  ",
"  .........++.++++++@.................@+++....  ",
"  ......................................++@...  ",
"  ......................................@++...  ",
"  .......................................++...  ",
"  .......................................++...  ",
"  ......................................@++...  ",
"  ........@++++#++#++#++#++#++#++@......++@...  ",
"  ......@+++++++#++#++#++#++#++#++@...@+++....  ",
"  ......++$...@++#++#++#++#++#++#++++++++@....  ",
"  .....@+$.....@++#++#++#++#++#++#+++++@......  ",
"  .....++.....................................  ",
"  .....++.....................................  ",
"  .....++.....................................  ",
"  .....++.....................................  ",
"  ............................................  ",
"  ..@++++++++++++++++++++++++++++++++++++++@..  ",
"  ..++++++++++++++++++++++++++++++%%+%%+&&++..  ",
"  ..++++++++++++++++++++++++++++++%%+%%+&&++..  ",
"  ..++++++++++++++++++++++++++++++++++++++++..  ",
"  ..++@..@++++.................@++@.......++..  ",
"  ..++....++++..................++.......@++..  ",
"  ..++....++....................++........++..  ",
"  ..++....++....................++........++..  ",
"  ..++....++....................++........++..  ",
"  ..++....++....................++........++..  ",
"  ..++....++....................++.......@++..  ",
"  ..++....++....................++......++++..  ",
"  ..++....++....................++......++++..  ",
"  ..++@..@++@..................@++@....@++++..  ",
"  ..+++++++++++..............+++++++++++++++..  ",
"  ..+++++++++++@............@+++++++++++++++..  ",
"  ..++++++++++++++++++++++++++++++++++++++++..  ",
"  ..@++++++++++++++++++++++++++++++++++++++@..  ",
"  ............................................  ",
"   ..........................................   ",
"   ..........................................   ",
"    ........................................    ",
"      ....................................      ",
"                                                ",
"                                                "};
