/* XPM */
static char * lock48_xpm[] = {
"48 48 7 1",
" 	c None",
".	c #000000",
"+	c #999999",
"@	c #FFFFFF",
"#	c #CCCCCC",
"$	c #827F00",
"%	c #FFFF00",
"                                                ",
"                                                ",
"      ....................................      ",
"    ........................................    ",
"   ..........................................   ",
"   ..........................................   ",
"  ............................................  ",
"  .........................+@@@@@@@+..........  ",
"  .......................+@@@@@@@@@@@+........  ",
"  .......................@@@@@@@@@@@@@........  ",
"  ......................+@@@@@@@@@@@@@+.......  ",
"  ......................@@@@@@@@@@@@@@@.......  ",
"  ......................@@@@@@@@@@@@@@@.......  ",
"  ...+@@@@@@@@@@@@@@@@@@@@@@@@@@@@@@@@@.......  ",
"  .....................@@@@@@@@@+...+@@.......  ",
"  .....................@@@@@@@@@.....@@.......  ",
"  ...+@@@@@@@@@@@@@@@@@@@@@@@@@@..+..@@.......  ",
"  ....+@@@@@@@@@@@@@@@@@@@@@@@@@..#..@@.......  ",
"  .....+@@@+..+@@+.+@@+.@@@@@@@@+.#.+@@.......  ",
"  ......+@#....##...##..@@@@@@@@@.#.@@@.......  ",
"  ......................+@@@@@@@@.#.@@+.......  ",
"  .......................@@@@@@@@.#.@@........  ",
"  .......................+@@@@@@@.#.@+........  ",
"  .........................+@@@@@.#...........  ",
"  ................................#...........  ",
"  ................................#...........  ",
"  .............................$%.#.%$........  ",
"  ...........................$%%%.#.%%%$......  ",
"  .........................$%%%%$.#.$%%%%$....  ",
"  ........................$%%%%%..+..%%%%%$...  ",
"  ........................%%%%%%.....%%%%%%...  ",
"  ........................%%%%%%$...$%%%%%%...  ",
"  ........................%%%%%%%%%%%%%%%%%...  ",
"  ........................%%%%%%%%%%%%%%%%%...  ",
"  ........................%%%%%%%%%%%%%%%%%...  ",
"  ........................%%%...........%%%...  ",
"  ........................%%%...........%%%...  ",
"  ........................%%%%%%%%%%%%%%%%%...  ",
"  ........................%%%...........%%%...  ",
"  ........................%%%...........%%%...  ",
"  ........................%%%%%%%%%%%%%%%%%...  ",
"  ........................%%%%%%%%%%%%%%%%%...  ",
"   .......................$%%%%%%%%%%%%%%%$..   ",
"   ..........................................   ",
"    ........................................    ",
"      ....................................      ",
"                                                ",
"                                                "};
