/* XPM */
static char * mail48_xpm[] = {
"48 48 7 1",
" 	c None",
".	c #000000",
"+	c #CCCCCC",
"@	c #FFFFFF",
"#	c #00007F",
"$	c #999999",
"%	c #0000FF",
"                                                ",
"                                                ",
"      ....................................      ",
"    ........................................    ",
"   ..........................................   ",
"   ..........................................   ",
"  ............................................  ",
"  ............................................  ",
"  ............+@@@@@@@@@@@@@@@@@@@@@@@@@+.....  ",
"  ............@@@@@@@@@@@@@@@@@@@@@#####@.....  ",
"  ............@@@@@@@@@@@@@@@$$$$$@#%%%#@.....  ",
"  ............@@@@@@@@@@@@@@@@@@@@@#%%%#@.....  ",
"  ............@@@@@@@@@@@@@@@$$$$$@#%%%#@.....  ",
"  ............@@@@@@@@@@@@@@@@@@@@@#%%%#@.....  ",
"  ............@@@@@@@@@@@@@@@$$$$$@#####@.....  ",
"  ............@@@@@@@@@@@@@@@@@@@@@@@@@@@.....  ",
"  ............@@@@@@@@@@@@@@@@@@@@@@@@@@@.....  ",
"  ............@@@@@@@@@@@@@@@@@@@@@@@@@@@.....  ",
"  ...................................@@@@.....  ",
"  ...................................@@@@.....  ",
"  .....+@@@@@@@@@@@@@@@@@@@@@@@@@@+..@@@@.....  ",
"  .....@@@@@@@@@@@@@@@@@@@@@@@@@@@@..@@@@.....  ",
"  ......$@@@@@@@@@@@@@@@@@@@@@@@@$...@@@@.....  ",
"  ........$@@@@@@@@@@@@@@@@@@@@$.....@@@@.....  ",
"  .....@$...$@@@@@@@@@@@@@@@@$...$@..@@@@.....  ",
"  .....@@@$...$@@@@@@@@@@@@$...$@@@..@@@+.....  ",
"  .....@@@@@$...$@@@@@@@@$...$@@@@@...........  ",
"  .....@@@@@@@$...$@@@@$...$@@@@@@@...........  ",
"  .....@@@@@@@@@$........$@@@@@@@@@...........  ",
"  .....@@@@@@@@@@@$....$@@@@@@@@@@@...........  ",
"  .....@@@@@@@@@@@@@@@@@@@@@@@@@@@@...........  ",
"  .....@@@@@@@@@@@@@@@@@@@@@@@@@@@@...........  ",
"  .....@@.............@@@@@@@@@@@@@...........  ",
"  .....@@.............@@@@@@@@@@@@@...........  ",
"  .....@@@@@@@@@@@@@@@@@@@@@@@@@@@@...........  ",
"  .....@@........@@@@@@@@@@@@@@@@@@...........  ",
"  .....@@........@@@@@@@@@@@@@@@@@@...........  ",
"  .....+@@@@@@@@@@@@@@@@@@@@@@@@@@+...........  ",
"  ............................................  ",
"  ............................................  ",
"  ............................................  ",
"  ............................................  ",
"   ..........................................   ",
"   ..........................................   ",
"    ........................................    ",
"      ....................................      ",
"                                                ",
"                                                "};
