/* XPM */
static char * mouse48_xpm[] = {
"48 48 5 1",
" 	c None",
".	c #000000",
"+	c #CFCFCF",
"@	c #FFFFFF",
"#	c #656565",
"                                                ",
"                                                ",
"      ....................................      ",
"    ........................................    ",
"   ................+@@@@@@@@#................   ",
"   ..............#+@@@@@@@@@@@#..............   ",
"  ...............+@@+.....#@@@@........++.....  ",
"  ..............+@@#........#@@#.......@@.....  ",
"  ..............@@+..........@@@.......@@.....  ",
"  ..............@@...........#@@.......@@.....  ",
"  ..............@@............@@.......@@.....  ",
"  ............................@@.......@@.....  ",
"  .............@@@@...........@@.......@@.....  ",
"  ............................@@.......@@.....  ",
"  ........#@@@@@@@@@@@@#......@@.......@@.....  ",
"  .......+@@@@@@@@@@@@@@+.....@@.......@@.....  ",
"  ......#@+..+@+..+@+..+@#....@@.......@@.....  ",
"  ......@@....@....@....@@....@@.......@@.....  ",
"  ......@@....@....@....@@....@@.......@@.....  ",
"  ......@@....@....@....@@....@@.......@@.....  ",
"  ......@@....@....@....@@....@@.......@@.....  ",
"  ......@@....@....@....@@....@@.......@@.....  ",
"  ......@@....@....@....@@....@@.......@@.....  ",
"  ......@@....@....@....@@....@@.......@@.....  ",
"  ......@@....@....@....@@....@@.......@@.....  ",
"  ......@@+..+@+..+@+..+@@....@@.......@@.....  ",
"  ......@@@@@@@@@@@@@@@@@@....@@.......@@.....  ",
"  ............................@@.......@@.....  ",
"  ............................@@.......@@.....  ",
"  ......@@@@@@@@@@@@@@@@@@....@@.......@@.....  ",
"  ......@@@@@@@@@@@@@@@@@@....@@.......@@.....  ",
"  ......@@@@@@@@@@@@@@@@@@....@@.......@@.....  ",
"  ......@@@@@@@@@@@@@@@@@@....@@.......@@.....  ",
"  ......@@@@@@@@@@@@@@@@@@....@@.......@@.....  ",
"  ......@@@@@@@@@@@@@@@@@@....@@.......@@.....  ",
"  ......@@@@@@@@@@@@@@@@@@....@@.......@@.....  ",
"  ......@@@@@@@@@@@@@@@@@@....@@+.....+@@.....  ",
"  ......@@@@@@@@@@@@@@@@@@....#@@#...#@@#.....  ",
"  ......#@@@@@@@@@@@@@@@@#.....@@@#.#@@@......  ",
"  .......+@@@@@@@@@@@@@@+......#@@@@@@@#......  ",
"  ........#@@@@@@@@@@@@#.........#@@@#........  ",
"  ............................................  ",
"   ..........................................   ",
"   ..........................................   ",
"    ........................................    ",
"      ....................................      ",
"                                                ",
"                                                "};
