/* XPM */
static char * multimedia48_xpm[] = {
"48 48 6 1",
" 	c None",
".	c #000000",
"+	c #FFFFFF",
"@	c #656565",
"#	c #827D00",
"$	c #FFFF00",
"                                                ",
"                                                ",
"      ....................................      ",
"    ........................................    ",
"   ..........................................   ",
"   .....+++++++++++++++++++++++..............   ",
"  ......+++++++++++++++++++++++...............  ",
"  ......++..++@.........@++..++...............  ",
"  ......++..++...........++..++...............  ",
"  ......++..++...........++..++...............  ",
"  ......++++++...........++++++...............  ",
"  ......++++++...........++++++...............  ",
"  ......++..++...........++..++...............  ",
"  ......++..++...........++..++...............  ",
"  ......++..++...........++..++...............  ",
"  ......++++++@.........@++++++...............  ",
"  ......+++++++++++++++++++++++...............  ",
"  ......++..+++++++++++++++..++...............  ",
"  ......++..++@.........@++..++.........##....  ",
"  ......++..++...........++..++........#$$....  ",
"  ......++++++...........++++++.......#$$$....  ",
"  ......++++++...........++++++......#$$$$....  ",
"  ......++..++...........++..++.....#$$$$$....  ",
"  ......++..++...........++..++....#$$$$$$....  ",
"  ......++..++...........++..++...#$$$$$$$....  ",
"  ......++++++...................#$$$$$$$$....  ",
"  ......++++++@.........@........$$$$$$$$$....  ",
"  ......++..+++++++++++++..#$$$..$$$$$$$$$....  ",
"  ......++..+++++++++++++..$$$$..$$$$$$$$$....  ",
"  ......++..++@.........@..$$$$..$$$$$$$$$....  ",
"  ......++++++.............$$$$..$$$$$$$$$....  ",
"  ......++++++.............$$$$..$$$$$$$$$....  ",
"  ......++..++.............$$$$..$$$$$$$$$....  ",
"  ......++..++.............$$$$..$$$$$$$$$....  ",
"  ......++..++.............#$$$..$$$$$$$$$....  ",
"  ......++++++...................$$$$$$$$$....  ",
"  ......++++++...................#$$$$$$$$....  ",
"  ......++..++@.........@++..++...#$$$$$$$....  ",
"  ......++..+++++++++++++++..++....#$$$$$$....  ",
"  ......++..+++++++++++++++..++.....#$$$$$....  ",
"  ......++++++@.........@++++++......#$$$$....  ",
"  ......++++++...........++++++.......#$$$....  ",
"   .....++..++...........++..++........#$$...   ",
"   .....................................##...   ",
"    ........................................    ",
"      ....................................      ",
"                                                ",
"                                                "};
