/* XPM */
static char * netscape48_xpm[] = {
"48 48 8 1",
" 	c None",
".	c #000000",
"+	c #656565",
"@	c #FFFFFF",
"#	c #0000FF",
"$	c #00007D",
"%	c #CFCFCF",
"&	c #303030",
"                                                ",
"                                                ",
"      ....................................      ",
"    ........................................    ",
"   ..........................................   ",
"   ................+@@@@@@@@+................   ",
"  .............+@@@@@@@@@@@@@@@@+.............  ",
"  ...........+@@@@@@#$$@@$$#@@@@@@+...........  ",
"  .........+@@@@##@@$$$@@$$$@@##@@@+..........  ",
"  ........+@@@#$$@@@$$$@@$$$@@@$$#@@@+........  ",
"  .......+@@@#$$$@@#$$$@@$$$$@@$$$#@@@+.......  ",
"  ......+@@@#$$$#@@$$$$@@$$$$@@#$$$#@@@.......  ",
"  ......@@@#$$$$@@#$$$$@@$$$$#@@$$$$#@@+......  ",
"  .....+@@#$$$$$@@$$$$$@@$$$$$@@$$$$$#@@+.....  ",
"  .....@@@@@@@@@@@@@@@@@@@@@@@@@@@@@@@@@@.....  ",
"  ....+@@@@@@@@@@@@@@@@@@@@@@@@@@@@@@@@@@+....  ",
"  ....@@#$$$$$@@$$$$$$$@@$$$$$$$@@$$$$$#@@....  ",
"  ....@@$$$$$#@@$$$$$$$@@$$$$$$$@@#$$$$$@@....  ",
"  ....@@$$$$$@@#$$$$$$$@@$$$$$$$#@@$$$$$@@....  ",
"  ...%@#$$$$$@@$$$$$$$$@@$$$$$$$$@@$$$$$@@%...  ",
"  ...@@$$$$$$@@$$$$$$$$@@$$$$$$$$@@$$$$$@@@...  ",
"  ...@@$$$$$$@@$$$$$...++........++......++...  ",
"  ...@@$$$$$$@@$$$$$..........................  ",
"  ...@@@@@@@@@@@@@@@+.@@@@@@@@@@@@@@@@@@@@@...  ",
"  ...@@@@@@@@@@@@@@@+.@@@@@@@@@@@@@@@@@@@@@...  ",
"  ...@@$$$$$$@@$$$$$..@@$$$$$$$$$$$$$$$$$@@...  ",
"  ...@@$$$$$$@@$$$$$..@@$$$$$$$$$$$$$$$$$@@...  ",
"  ...%@#$$$$$@@$$$$$..@@$$@@@#$$$$$@@@@$$@@...  ",
"  ....@@$$$$$@@#$$$$..@@$$#@@@#$$$$#@@#$$@@...  ",
"  ....@@$$$$$#@@$$$$..@@$$$@@@@#$$$$@@$$$@@...  ",
"  ....@@#$$$$$@@$$$$..@@$$$@@@@@#$$$@@$$$@@...  ",
"  ....+@@@@@@@@@@@@@+.@@$$$@@#@@@#$$@@$$$@@...  ",
"  .....@@@@@@@@@@@@@+.@@$$$@@$#@@@#$@@$$$@@...  ",
"  .....+@@#$$$$@@#$$..@@$$$@@$$#@@@#@@$$$@@...  ",
"  ......@@@#$$$#@@$$..@@$$$@@$$$#@@@@@$$$@@...  ",
"  ......+@@@#$$$@@#$..@@$$$@@$$$$#@@@@$$$@@...  ",
"  .......+@@@#$$#@@...@@$$$@@.....&@@@$$$@@...  ",
"  ........+@@@#$$@@#..@@$.&@@&.....&@@..$@@...  ",
"  .........+@@@@##@@..@@..@@@@......&@...@@...  ",
"  ...........+@@@@@@+.@@.................@@...  ",
"  .............+@@@@+.@@.................@@...  ",
"  ....................@@@@@@@@@@@@@@@@@@@@@...  ",
"   ...................@@@@@@@@@@@@@@@@@@@@@..   ",
"   ..........................................   ",
"    ........................................    ",
"      ....................................      ",
"                                                ",
"                                                "};
