/* XPM */
static char * network48_xpm[] = {
"48 48 7 1",
" 	c None",
".	c #000000",
"+	c #656565",
"@	c #FFFFFF",
"#	c #CFCFCF",
"$	c #FFFF00",
"%	c #00FF00",
"                                                ",
"                                                ",
"      ....................................      ",
"    ........................................    ",
"   ....+@@@@@@@@@@@...........@@@@@@@@@@@....   ",
"   ....@@@@@@@@@@@+..........@@@@@@@@@@@.....   ",
"  ............................................  ",
"  ....@@@@@@@@@@@...........@@@@@@@@@@@.......  ",
"  ....@@@@@@@@@@@...........@@@@@@@@@@@.......  ",
"  ....@@@@@@@@@@@...........@#..#@#..#@.......  ",
"  ....@@@@@@@@@@@...........@....@....@.......  ",
"  ....@@@@@@@@@@@..$$$$$$$$.@....@....@.......  ",
"  ....@@@@@@@@@@@..$$$$$$$$.@#..#@#..#@.......  ",
"  ....@@@@@@@@@@@.....$$....@@@@@@@@@@@.......  ",
"  ....@@@@@@@@@@@.....$$....@@@@@@@@@@@.......  ",
"  ....@@@@@@@@@@@.....$$....@@@@@@@@@@@.......  ",
"  ....@@@@@@@@@@@.....$$....@@@@@@@@@@@.......  ",
"  ....@@@@@@@@@@@.....$$....@@@@@@@@@@@.......  ",
"  ....@@@@@@@@@@@.....$$....@@@@@@@@@@@.......  ",
"  ....@@@@@@@@@@@.....$$....@@@@@@@@@@@.......  ",
"  ....................$$......................  ",
"  ....................$$......................  ",
"  ....................$$......................  ",
"  ....................$$......................  ",
"  ....................$$......................  ",
"  .....#@@@@@@@@#.....$$......................  ",
"  .....@#++++++#@.....$$.....+@@@@@@@@@@@.....  ",
"  .....@+......+@.$$$$$$.....@@@@@@@@@@@+.....  ",
"  .....@+.%%%..+@.$$$$$$......................  ",
"  .....@+......+@.....$$....@@@@@@@@@@@.......  ",
"  .....@+.%....+@.....$$....@...@@@@@@@.......  ",
"  .....@+......+@.....$$....@...@@@@@@@.......  ",
"  .....@#++++++#@.....$$....@...@@@@@@@.......  ",
"  .....#@@@@@@.@#.....$$$$$.@...@@@@@@@.......  ",
"  ....................$$$$$.@@@@@@@@@@@.......  ",
"  ...+@@@@@@@@@@@@+.........@@@@@@@@@@@.......  ",
"  ...@#......@...#@.........@@@@@@@@@@@.......  ",
"  ..+@.......@....@+........@@@@@@@@@@@.......  ",
"  ..@@@@@@@@@@@@@@@@........@@@@@@@@@@@.......  ",
"  ..........................@@@@@@@@@@@.......  ",
"  ..........................@@@@@@@@@@@.......  ",
"  ..........................@@@@@@@@@@@.......  ",
"   .........................@@@@@@@@@@@......   ",
"   ..........................................   ",
"    ........................................    ",
"      ....................................      ",
"                                                ",
"                                                "};
