/* XPM */
static char * news48_xpm[] = {
"48 48 6 1",
" 	c None",
".	c #000000",
"+	c #CFCFCF",
"@	c #FF0000",
"#	c #656565",
"$	c #FFFFFF",
"                                                ",
"                                                ",
"      ....................................      ",
"    ........................................    ",
"   ..........................................   ",
"   ..........................................   ",
"  ............................................  ",
"  ............................................  ",
"  .........+++++++++++++++++++++++++++++..++..  ",
"  .........+++++++++++++++++++++++++++++..++..  ",
"  .........++@@@@@@@@++###############++..++..  ",
"  .........++@$$@@$$@++###############++..++..  ",
"  .........++@$$$@$$@++###############++..++..  ",
"  .........++@$$$$$$@+++++++++++++++++++..++..  ",
"  .........++@$$@$$$@++.......+.......++..++..  ",
"  .........++@$$@@$$@++.......+.......++..++..  ",
"  .........++@@@@@@@@+++++++++++++++++++..++..  ",
"  .........++++++++++++.......+.......++..++..  ",
"  .........++........++.......+.......++..++..  ",
"  .........+++++++++++++++++++++++++++++..++..  ",
"  ....................................#+..++..  ",
"  .....................................+..++..  ",
"  ...+$$$$$$$$$$$$$$$$$$$$$$$$$$$..$+..+..++..  ",
"  ...$$$$$$$$$$$$$$$$$$$$$$$$$$$$..$$..+..++..  ",
"  ...$$........................$$..$$..+..++..  ",
"  ...$$$$$$$$$$$$$$$$$$$$$$$$$$$$..$$..+..++..  ",
"  ...$$@@$$$$$$$$$$$@@$$$$$$$$$$$..$$..+..++..  ",
"  ...$$@@$@@@@@@@@@$@@$@@@@@@@@$$..$$..+..++..  ",
"  ...$$@@$@@@@@@@@@$@@$@@@@@@@@$$..$$..+..++..  ",
"  ...$$@@$@@@@@@@@@$@@$@@@@@@@@$$..$$..+##++..  ",
"  ...$$$$$$$$$$$$$$$$$$$$$$$$$$$$..$$..++++#..  ",
"  ...$$$$$$$$$$$$$$$$$$$$$$$$$$$$..$$..#++#...  ",
"  ...$$........$.......$.......$$..$$.........  ",
"  ...$$........$.......$.......$$..$$.........  ",
"  ...$$$$$$$$$$$$$$$$$$$$$$$$$$$$..$$.........  ",
"  ...$$........$.......$.......$$..$$.........  ",
"  ...$$........$.......$.......$$..$$.........  ",
"  ...$$$$$$$$$$$$$$$$$$$$$$$$$$$$..$$.........  ",
"  ...$$#......#$#.....#$#.....#$$##$$.........  ",
"  ...#$$#......#$#.....#$#.....#$$$$#.........  ",
"  ....#$$$$$$$$$$$$$$$$$$$$$$$$$$$$#..........  ",
"  ............................................  ",
"   ..........................................   ",
"   ..........................................   ",
"    ........................................    ",
"      ....................................      ",
"                                                ",
"                                                "};
