/* XPM */
static char * print48_xpm[] = {
"48 48 6 1",
" 	c None",
".	c #000000",
"+	c #CFCFCF",
"@	c #FFFFFF",
"#	c #656565",
"$	c #00FF00",
"                                                ",
"                                                ",
"      ....................................      ",
"    ........................................    ",
"   ..........................................   ",
"   ..........................................   ",
"  ............................................  ",
"  ...........+++++++++++++++++@#..............  ",
"  ...........+++++++++++++++++@@#.............  ",
"  ...........++..............+@@@#............  ",
"  ...........++..............+@@@@#...........  ",
"  ...........+++++++++++++++++@@@@@#..........  ",
"  ...........++..............+................  ",
"  ...........++..............++#..............  ",
"  ...........++++++++++++++++++++#............  ",
"  ...........++..................++...........  ",
"  ...........++..................++...........  ",
"  ...........++++++++++++++++++++++...........  ",
"  ...........++..........++++++++++...........  ",
"  ...........++..........++++++++++...........  ",
"  ...........++++++++++++++++++++++...........  ",
"  ...........++++++++++++++++++++++...........  ",
"  ...........++++++++++++++++++++++...........  ",
"  ............................................  ",
"  ............................................  ",
"  ...+@@@@@@@@@@@@@@@@@@@@@@@@@@@@@@@@@@@@+...  ",
"  ...@@@@@@@@@@@@@@@@@@@@@@@@@@@@@@@@@@@@@@...  ",
"  ...@@@@@@@@@@@@@@@@@@@@@@@.............@@...  ",
"  ...@@@@@@@@@@@@@@@@@@@@@@@.......@@.$$.@@...  ",
"  ...@@@@@@@@@@@@@@@@@@@@@@@.......@@.$$.@@...  ",
"  ...@@@@@@@@@@@@@@@@@@@@@@@.............@@...  ",
"  ...@@@@@@@@@@@@@@@@@@@@@@@@@@@@@@@@@@@@@@...  ",
"  ...@@@@@@@@@@@@@@@@@@@@@@@@@@@@@@@@@@@@@@...  ",
"  ............................................  ",
"  ............................................  ",
"  ...@@@@@@@@@@@@@@@@@@@@@@@@@@@@@@@@@@@@@@...  ",
"  ...@@..@..@..@..@@@@@@@@@@@@@@@@@@@@@@@@@...  ",
"  ...+@..@..@..@..@@@@@@@@@@@@@@@@@@@@@@@@+...  ",
"  ............................................  ",
"  ............................................  ",
"  ............................................  ",
"  ............................................  ",
"   ..........................................   ",
"   ..........................................   ",
"    ........................................    ",
"      ....................................      ",
"                                                ",
"                                                "};
