/* XPM */
static char * programs48_xpm[] = {
"48 48 5 1",
" 	c None",
".	c #000000",
"+	c #FFFFFF",
"@	c #FFFF00",
"#	c #827D00",
"                                                ",
"                                                ",
"      ....................................      ",
"    ........................................    ",
"   ..........................................   ",
"   ..........................................   ",
"  ............................................  ",
"  ............................................  ",
"  ...++++++++++++++++++++++++++++++++..++++...  ",
"  ...++++++++++++++++++++++++++++++++..++++...  ",
"  ...++++++++++++++++++++++++++++++++..++++...  ",
"  ...++++++++++++++++++++++++++++++++..++++...  ",
"  ............................................  ",
"  ............................................  ",
"  ...++..................................++...  ",
"  ...++...@@@@@...@@@@@...@@@@@...@@@@@..++...  ",
"  ...++...#####...#####...#####...#####..++...  ",
"  ...++...@@@@@...@@@@@...@@@@@...@@@@@..++...  ",
"  ...++...@@@@@...@@@@@...@@@@@...@@@@@..++...  ",
"  ...++...@@@@@...@@@@@...@@@@@...@@@@@..++...  ",
"  ...++...@@@@@...@@@@@...@@@@@...@@@@@..++...  ",
"  ...++..................................++...  ",
"  ...++..................................++...  ",
"  ...++..@@@@@...@@@@@...@@@@@...@@@@@...++...  ",
"  ...++..#####...#####...#####...#####...++...  ",
"  ...++..@@@@@...@@@@@...@@@@@...@@@@@...++...  ",
"  ...++..@@@@@...@@@@@...@@@@@...@@@@@...++...  ",
"  ...++..@@@@@...@@@@@...@@@@@...@@@@@...++...  ",
"  ...++..@@@@@...@@@@@...@@@@@...@@@@@...++...  ",
"  ...++..................................++...  ",
"  ...++..................................++...  ",
"  ...++...@@@@@...@@@@@...@@@@@...@@@@@..++...  ",
"  ...++...#####...#####...#####...#####..++...  ",
"  ...++...@@@@@...@@@@@...@@@@@...@@@@@..++...  ",
"  ...++...@@@@@...@@@@@...@@@@@...@@@@@..++...  ",
"  ...++...@@@@@...@@@@@...@@@@@...@@@@@..++...  ",
"  ...++...@@@@@...@@@@@...@@@@@...@@@@@..++...  ",
"  ...++..................................++...  ",
"  ...++..................................++...  ",
"  ...++++++++++++++++++++++++++++++++++++++...  ",
"  ...++++++++++++++++++++++++++++++++++++++...  ",
"  ............................................  ",
"   ..........................................   ",
"   ..........................................   ",
"    ........................................    ",
"      ....................................      ",
"                                                ",
"                                                "};
