/* XPM */
static char * exit48_xpm[] = {
"48 48 6 1",
" 	c None",
".	c #000000",
"+	c #CFCFCF",
"@	c #FFFFFF",
"#	c #303030",
"$	c #656565",
"                                                ",
"                                                ",
"      ....................................      ",
"    ........................................    ",
"   ..........................................   ",
"   ..........................................   ",
"  ............................................  ",
"  ............................................  ",
"  ............................................  ",
"  ............................................  ",
"  ....+@@@@@@@@@@@@@@@@@@@@@@@@@@@+...........  ",
"  ....@@@@@@@@@@@@@@@@@@@@@@@@@@@@@...........  ",
"  ....@@@@@@@@@@@@@@@@@@@@@@@@@@@@@...........  ",
"  ....@@@#.....................#@@@...........  ",
"  ....@@@.......................@@@...........  ",
"  ....@@@.......................@@@...........  ",
"  ....@@@.......................@@@..@@+......  ",
"  ....@@@.......................@@@..$@@$.....  ",
"  ....@@@.......................@@@...@@@.....  ",
"  ....@@@.......................@@@...$@@$....  ",
"  ....@@@..............................@@@....  ",
"  ....@@@..............................$@@$...  ",
"  ....@@@...............................@@@...  ",
"  ....@@@...............+@@@@@@@@@@@@@@@@@@$..  ",
"  ....@@@...............@@@@@@@@@@@@@@@@@@@@..  ",
"  ....@@@...............@@@@@@@@@@@@@@@@@@@@..  ",
"  ....@@@...............+@@@@@@@@@@@@@@@@@@$..  ",
"  ....@@@...............................@@@...  ",
"  ....@@@..............................$@@$...  ",
"  ....@@@..............................@@@....  ",
"  ....@@@.......................@@@...$@@$....  ",
"  ....@@@.......................@@@...@@@.....  ",
"  ....@@@.......................@@@..$@@$.....  ",
"  ....@@@.......................@@@..@@+......  ",
"  ....@@@.......................@@@...........  ",
"  ....@@@.......................@@@...........  ",
"  ....@@@#.....................#@@@...........  ",
"  ....@@@@@@@@@@@@@@@@@@@@@@@@@@@@@...........  ",
"  ....@@@@@@@@@@@@@@@@@@@@@@@@@@@@@...........  ",
"  ....+@@@@@@@@@@@@@@@@@@@@@@@@@@@+...........  ",
"  ............................................  ",
"  ............................................  ",
"   ..........................................   ",
"   ..........................................   ",
"    ........................................    ",
"      ....................................      ",
"                                                ",
"                                                "};
