/* XPM */
static char * refresh48_xpm[] = {
"48 48 4 1",
" 	c None",
".	c #000000",
"+	c #007D00",
"@	c #00FF00",
"                                                ",
"                                                ",
"      ....................................      ",
"    ........................................    ",
"   ..........................................   ",
"   ..........................................   ",
"  .................++@@+..@@@+................  ",
"  ..............+@@@@@@@+..@@@@@+.............  ",
"  ............+@@@@@@@@@@+..@@@@@@+...........  ",
"  ..........+@@@@@@@@@@@@@...@@@@@@+..........  ",
"  .........+@@@@@@@@@@@@@+...@@@@@@@@+........  ",
"  ........+@@@@@@@@@@@@@+...@@@@@@@@@@+.......  ",
"  .......+@@@@@@@@@@@@@+...@@@@@@@@@@@@.......  ",
"  .......@@@@@@@@@@@@+....@@@@@@@@@@@@@+......  ",
"  ......+@@@@@@@@@@+.........+@@@@@@@@@@+.....  ",
"  ......@@@@@@@@@@+............+@@@@@@@@@.....  ",
"  .....+@@@@@@@@@+..............+@@@@@@@@.....  ",
"  .....@@@@@@@@@+................+@@@@@@@+....  ",
"  .....@@@@@@@@+..................@@@@@@@@....  ",
"  .....@@@@@@@@...................+@@@@@@@....  ",
"  ....@@@@@@@@+....................@@@@@@@+...  ",
"  ....@@@@@@@@.....................@@@@@@@@...  ",
"  ....@@@@@@@+.....................+@@@@@@@...  ",
"  ....@@@@@@@.......................@@@@@@@...  ",
"  ....@@@@@@@.......................@@@@@@@...  ",
"  ....@@@@@@@.......................@@@@@@@...  ",
"  ....@@@@@@@+.....................+@@@@@@@...  ",
"  ....@@@@@@@@.....................@@@@@@@@...  ",
"  ....@@@@@@@@.....................@@@@@@@+...  ",
"  ....+@@@@@@@+...................+@@@@@@@....  ",
"  .....@@@@@@@@...................@@@@@@@@....  ",
"  .....@@@@@@@@+.................+@@@@@@@@....  ",
"  .....+@@@@@@@@+...............+@@@@@@@@+....  ",
"  ......@@@@@@@@@+.............+@@@@@@@@@.....  ",
"  ......+@@@@@@@@@@+........+@@@@@@@@@@@+.....  ",
"  .......@@@@@@@@@@@@@@@...@@@@@@@@@@@@@......  ",
"  .......+@@@@@@@@@@@@@+..@@@@@@@@@@@@@+......  ",
"  ........+@@@@@@@@@@@+..@@@@@@@@@@@@@+.......  ",
"  .........+@@@@@@@@@+..@@@@@@@@@@@@@+........  ",
"  ..........+@@@@@@@+..@@@@@@@@@@@@@+.........  ",
"  ............+@@@@@@+..@@@@@@@@@@+...........  ",
"  ..............+@@@@@+..@@@@@@@+.............  ",
"   ................+@@@+..@@@+...............   ",
"   ..........................................   ",
"    ........................................    ",
"      ....................................      ",
"                                                ",
"                                                "};
