/* XPM */
static char * sound48_xpm[] = {
"48 48 6 1",
" 	c None",
".	c #000000",
"+	c #827D00",
"@	c #FFFF00",
"#	c #7D0000",
"$	c #FF0000",
"                                                ",
"                                                ",
"      ....................................      ",
"    ........................................    ",
"   ..........................................   ",
"   ..........................................   ",
"  ............................................  ",
"  ......................++....................  ",
"  .....................+@@....................  ",
"  ....................+@@@....................  ",
"  ...................+@@@@........#$$#........  ",
"  ..................+@@@@@.........#$$........  ",
"  .................+@@@@@@..........$$#.......  ",
"  ................+@@@@@@@..........#$$#......  ",
"  ...............+@@@@@@@@...........#$$......  ",
"  ..............+@@@@@@@@@............$$......  ",
"  .............+@@@@@@@@@@.....#$$....$$#.....  ",
"  .............@@@@@@@@@@@......$$#...#$$.....  ",
"  ....+@@@@@@..@@@@@@@@@@@......#$$....$$.....  ",
"  ....@@@@@@@..@@@@@@@@@@@.......$$#...$$#....  ",
"  ....@@@@@@@..@@@@@@@@@@@.#$$...#$$...#$$....  ",
"  ....@@@@@@@..@@@@@@@@@@@..$$#...$$....$$....  ",
"  ....@@@@@@@..@@@@@@@@@@@..#$$...$$....$$....  ",
"  ....@@@@@@@..@@@@@@@@@@@...$$...$$....$$....  ",
"  ....@@@@@@@..@@@@@@@@@@@...$$...$$....$$....  ",
"  ....@@@@@@@..@@@@@@@@@@@..#$$...$$....$$....  ",
"  ....@@@@@@@..@@@@@@@@@@@..$$#..#$$....$$....  ",
"  ....@@@@@@@..@@@@@@@@@@@.#$$...$$#...#$$....  ",
"  ....@@@@@@@..@@@@@@@@@@@......#$$....$$#....  ",
"  ....+@@@@@@..@@@@@@@@@@@......$$#....$$.....  ",
"  .............@@@@@@@@@@@.....#$$....#$$.....  ",
"  .............+@@@@@@@@@@............$$#.....  ",
"  ..............+@@@@@@@@@............$$......  ",
"  ...............+@@@@@@@@...........#$$......  ",
"  ................+@@@@@@@..........#$$#......  ",
"  .................+@@@@@@..........$$#.......  ",
"  ..................+@@@@@.........#$$........  ",
"  ...................+@@@@........#$$#........  ",
"  ....................+@@@....................  ",
"  .....................+@@....................  ",
"  ......................++....................  ",
"  ............................................  ",
"   ..........................................   ",
"   ..........................................   ",
"    ........................................    ",
"      ....................................      ",
"                                                ",
"                                                "};
