/* XPM */
static char * system48_xpm[] = {
"48 48 6 1",
" 	c None",
".	c #000000",
"+	c #999999",
"@	c #FFFFFF",
"#	c #7F0000",
"$	c #FF0000",
"                                                ",
"                                                ",
"      ....................................      ",
"    ........................................    ",
"   ..........................................   ",
"   .....+@@@@@@@@@@@@@@@@@@@@@@@@@@@@@@+.....   ",
"  ......@@@@@@@@@@@@@@@@@@@@@@@@@@@@@@@@......  ",
"  ......@@+..........................+@@......  ",
"  ......@@............................@@......  ",
"  ......@@.......#$$$#....#$$$#.......@@......  ",
"  ......@@......#$$$$$#..#$$$$$#......@@......  ",
"  ......@@.....#$$$$$$$##$$$$$$$#.....@@......  ",
"  ......@@.....$$$$$$$$$$$$$$$$$$.....@@......  ",
"  ......@@.....$$$$$$$$$$$$$$$$$$.....@@......  ",
"  ......@@.....$$$$$$$$$$$$$$$$$$.....@@......  ",
"  ......@@.....$$$$$$$$$$$$$$$$$$.....@@......  ",
"  ......@@.....#$$$$$$$$$$$$$$$$#.....@@......  ",
"  ......@@......#$$$$$$$$$$$$$$#......@@......  ",
"  ......@@.......#$$$$$$$$$$$$#.......@@......  ",
"  ......@@........#$$$$$$$$$$#........@@......  ",
"  ......@@.........#$$$$$$$$#.........@@......  ",
"  ......@@..........#$$$$$$#..........@@......  ",
"  ......@@...........#$$$$#...........@@......  ",
"  ......@@............#$$#............@@......  ",
"  ......@@.............##.............@@......  ",
"  ......@@+..........................+@@......  ",
"  ......@@@@@@@@@@@@@@@@@@@@@@@@@@@@@@@@......  ",
"  ......@@@@@@@@@@@@@@@@@@@@@@@@@+++@@@@......  ",
"  ......+@@@@@@@@@@@@@@@@@@@@@@@@+..@@@+......  ",
"  ............................................  ",
"  .............@@@@@@@@@@@@@@@@@..............  ",
"  ............................................  ",
"  .......@@@@@@@@@@@@@@@@@@@@@@@@@@@@@@.......  ",
"  .......@@@@@@@@@@@@@@@@@@@@@@@@@@@@@@.......  ",
"  .......@@..@..@..@..@@@@@@@@@@@@@..@@.......  ",
"  .......@@..@..@..@..@@@@@@@@@@@@@..@@.......  ",
"  .......@@..@..@..@..@@@@@@@@@@@@@@@@@.......  ",
"  ............................................  ",
"  .....+@@@@@@@@@@@@@@@@@@@@@@@@@@@@@@@@+.....  ",
"  .....@@+.....................@@.....+@@.....  ",
"  ....+@+......................@@......+@+....  ",
"  ....@@.......................@@.......@@....  ",
"   ...@@@@@@@@@@@@@@@@@@@@@@@@@@@@@@@@@@@@...   ",
"   ..........................................   ",
"    ........................................    ",
"      ....................................      ",
"                                                ",
"                                                "};
