/* XPM */
static char * telnet48_xpm[] = {
"48 48 7 1",
" 	c None",
".	c #000000",
"+	c #B2B2B2",
"@	c #FFFFFF",
"#	c #00FF00",
"$	c #827F00",
"%	c #FFFF00",
"                                                ",
"                                                ",
"      ....................................      ",
"    ........................................    ",
"   ..........................................   ",
"   ......+@@@@@@@@@@@+.......................   ",
"  .......@@@@@@@@@@@@@........................  ",
"  .......@@.........@@........................  ",
"  .......@@.######..@@........................  ",
"  .......@@.........@@........................  ",
"  .......@@.####....@@........................  ",
"  .......@@.........@@........................  ",
"  .......@@.#.......@@........................  ",
"  .......@@.........@@........................  ",
"  .......@@@@@@@@@@@@@........................  ",
"  .......+@@@@@@@..@@+........................  ",
"  ............................................  ",
"  ....@@@@@@@@@@@@@@@@@@@.....................  ",
"  ...+@+...........@...+@+....................  ",
"  ...@@............@....@@....................  ",
"  ..+@+............@....+@+...................  ",
"  ..@@@@@@@@@@@@@@@@@@@@@@@...................  ",
"  ..@@@@@@@@@@@@@@@@@@@@@@@...................  ",
"  ............................................  ",
"  ...........$%%%%%$.........+@@@@@@@@@@@@....  ",
"  ............$%%%%%$.......@@@@@@@@@@@@+.....  ",
"  .............$%%%%%$........................  ",
"  ..............$%%%%%$....@@@@@@@@@@@@@......  ",
"  ...............$%%%%%$...@....@@@@@@@@......  ",
"  ................$%%%%%$..@....@@@@@@@@......  ",
"  ...........$%%%%%%%%%%%$.@....@@@@@@@@......  ",
"  .............$%%%%%$.....@....@@@@@@@@......  ",
"  ...............$%%%%$....@@@@@@@@@@@@@......  ",
"  .................$%%%$...@@@@@@@@@@@@@......  ",
"  ...................$%%$..@@@@@@@@@@@@@......  ",
"  .....................$%$.@@@@@@@@@@@@@......  ",
"  .........................@@@@@@@@@@@@@......  ",
"  .........................@@@@@@@@@@@@@......  ",
"  .........................@@@@@@@@@@@@@......  ",
"  .........................@@@@@@@@@@@@@......  ",
"  .........................@@@@@@@@@@@@@......  ",
"  .........................@@@@@@@@@@@@@......  ",
"   ........................@@@@@@@@@@@@@.....   ",
"   ..........................................   ",
"    ........................................    ",
"      ....................................      ",
"                                                ",
"                                                "};
