/* XPM */
static char * term_spec48_xpm[] = {
"48 48 6 1",
" 	c None",
".	c #000000",
"+	c #656565",
"@	c #FFFFFF",
"#	c #FFFF00",
"$	c #827D00",
"                                                ",
"                                                ",
"      ....................................      ",
"    ........................................    ",
"   ..........................................   ",
"   ..........................................   ",
"  ............................................  ",
"  ............................................  ",
"  ............................................  ",
"  ........+@@@@@@@@@@@@@@@@@@@@@@@@@+.........  ",
"  ........@@@@@@@@@@@@@@@@@@@@@@@@@@@.........  ",
"  ........@@+....................+@@@.........  ",
"  ........@@......................@@@.........  ",
"  ........@@......................@@@.........  ",
"  ........@@....##########@+......@@@.........  ",
"  ........@@....#####...##@@+.....@@@.........  ",
"  ........@@....#####...##@@@+....@@@.........  ",
"  ........@@....#####...##@@@@....@@@.........  ",
"  ........@@....#####...##........@@@.........  ",
"  ........@@....#####...###$......@@@.........  ",
"  ........@@....############$.....@@@.........  ",
"  ........@@....#####...#####$....@@@.........  ",
"  ........@@....#####...######....@@@.........  ",
"  ........@@....##############....@@@.........  ",
"  ........@@......................@@@.........  ",
"  ........@@......................@@@.........  ",
"  ........@@+....................+@@@.........  ",
"  ........@@@@@@@@@@@@@@@@@@@@@@@@@@@.........  ",
"  ........+@@@@@@@@@@@@@@@@@@@@@@@@@+.........  ",
"  ............................................  ",
"  ......@@@@@@@@@@@@@@@@@@@@@@@@@@@@@@@.......  ",
"  .....+@@@@@@@@@@@@@@@@@@@@@@@@@@@@@@@+......  ",
"  .....@@+...................@@......+@@......  ",
"  ....+@@....................@@.......@@+.....  ",
"  ....@@+....................@@.......+@@.....  ",
"  ...+@@@@@...............@@@@@........@@+....  ",
"  ...@@@@@@@@@@@@@@@@@@@@@@@@@@@@@@@@@@@@@....  ",
"  ...+@@@@@@@@@@@@@@@@@@@@@@@@@@@@@@@@@@@+....  ",
"  ............................................  ",
"  ............................................  ",
"  ............................................  ",
"  ............................................  ",
"   ..........................................   ",
"   ..........................................   ",
"    ........................................    ",
"      ....................................      ",
"                                                ",
"                                                "};
