/* XPM */
static char * utility48_xpm[] = {
"48 48 7 1",
" 	c None",
".	c #000000",
"+	c #656565",
"@	c #FFFFFF",
"#	c #CFCFCF",
"$	c #7D0000",
"%	c #FF0000",
"                                                ",
"                                                ",
"      ....................................      ",
"    ...+....................................    ",
"   ....@+....................................   ",
"   ....@@+...................................   ",
"  .....@@@....................................  ",
"  .....@@@+...................................  ",
"  .....@@@@...................................  ",
"  .....@@@@...................................  ",
"  .....@@@@...................................  ",
"  .....@@@@+............+@....................  ",
"  .....@@@@@...........+@@....................  ",
"  .....@@@@@..........+@@@....................  ",
"  .....@@@@@.........+@@@@.......@+...........  ",
"  .....@@@@@+.......+@@@@@.......@@@+.........  ",
"  .....@+@@@@......+@@@@@@.......+@@@+........  ",
"  .....@.@@@@.....+@@@@@@+........+@@@+.......  ",
"  .....@.@@@@....+@@+@@@@..........+@@@.......  ",
"  .....@.@@@@...+@@+.@@@+...........+@@+......  ",
"  .....@.@@@@..+@@+.+@@@.............+@@......  ",
"  .....@.@@@+.+@@+.+@@@+..............@@......  ",
"  .....@.@@+.+@@+.+@@@+..........+@...@@......  ",
"  .....@+@+.+@@@@@@@@+...........@@@++@@......  ",
"  .....@@+.+@@@@@@@@+............@@@@@@@......  ",
"  .....@+.+@@@@@@@@+.............@@@@@@@......  ",
"  .....@.+@@@@@@@@+..............@@@@@@@......  ",
"  .....@.#+...........................+@......  ",
"  ............................................  ",
"  ........$%%%%%%%%%%%%%%%%%%%%%%%%%%$........  ",
"  ......$%%%%%%%%%%%%%%%%%%%%%%%%%%%%%%$......  ",
"  ......%%%%%%%%%%%%%%%%%%%%%%%%%%%%%%%%......  ",
"  .....$%%%%%%%%%%%%%%%%%%%%%%%%%%%%%%%%$.....  ",
"  .....%%%%%%%%%%%%%%%%%%%%%%%%%%%%%%%%$%.....  ",
"  .....%%%%%%%%%%%%%%%%%%%%%%%%%%%%%%%%$%.....  ",
"  .....%%%%%%%%%%%%%%%%%%%%%%%%%%%%%%%%$%.....  ",
"  .....$%%%%%%%%%%%%%%%%%%%%%%%%%%%%%%$$$.....  ",
"  ......%%$$$$$$$$$$$$$$$$$$$$$$$$$$$$$%......  ",
"  ......$%%$$$$$$$$$$$$$$$$$$$$$$$$$$%%$......  ",
"  ........$%%%%%%%%%%%%%%%%%%%%%%%%%%$........  ",
"  ............................................  ",
"  ............................................  ",
"   ..........................................   ",
"   ..........................................   ",
"    ........................................    ",
"      ....................................      ",
"                                                ",
"                                                "};
