/* XPM */
static char * vewer48_xpm[] = {
"48 48 6 1",
" 	c None",
".	c #000000",
"+	c #656565",
"@	c #FFFFFF",
"#	c #CFCFCF",
"$	c #303030",
"                                                ",
"                                                ",
"      ....................................      ",
"    ........................................    ",
"   ..........................................   ",
"   ..........................................   ",
"  .......................+@@@@@+..............  ",
"  .........+@..#####+.+@@@@@@@@@@+$...........  ",
"  ........+@@..###+..+@@@@+...+@@@@+..........  ",
"  .......+@@@..###...@@@+.......+@@@$.........  ",
"  ......+@@@@..###..+@@+.........+@@+.........  ",
"  .....+@@@@@..##+..@@+..+@@@@@+..+@@.........  ",
"  .....@@@@@@..##..+@@...+@@@@@@...@@+........  ",
"  .............##..@@+........@@...+@@........  ",
"  ............+##..@@....+@@@@@@....@@........  ",
"  .....##########..@@....@@@@@@@....@@........  ",
"  .....##..........@@....@#...@@....@@........  ",
"  .....##..........@@+...@#...@@...+@@........  ",
"  .....##########..+@@...@@@@@@@#..@@+........  ",
"  .....##...........@@+..+@@@@+#@.+@@.........  ",
"  .....##...........@@@+.........+@@+.........  ",
"  .....############.+@@@+.......+@@@..........  ",
"  .....##............+@@@@+...+@@@@+..........  ",
"  .....##..............+@@@@@@@@@+............  ",
"  .....##############....+@@@@@+..............  ",
"  .....##.....................................  ",
"  .....##.........................+...........  ",
"  .....####################+.....+@@..........  ",
"  .....##..........#########....+@@@+.........  ",
"  .....##..........#########+....@@@@.........  ",
"  .....######################....@@@@+........  ",
"  .....######################+...+@@@@........  ",
"  .....#######################....@@@@+.......  ",
"  .....#######################....+@@@@.......  ",
"  .....#######################.....@@@@+......  ",
"  .....#######################.....+@@@@......  ",
"  .....#######################......@@@@+.....  ",
"  .....#######################......+@@@@.....  ",
"  .....#######################.......@@@@+....  ",
"  .....#######################.......+@@@@+...  ",
"  ....................................@@+.....  ",
"  ....................................+.......  ",
"   ..........................................   ",
"   ..........................................   ",
"    ........................................    ",
"      ....................................      ",
"                                                ",
"                                                "};
