/* XPM */
static char * win_resize48_xpm[] = {
"48 48 6 1",
" 	c None",
".	c #000000",
"+	c #656565",
"@	c #FFFFFF",
"#	c #7D0000",
"$	c #FF0000",
"                                                ",
"                                                ",
"      ....................................      ",
"    ........................................    ",
"   ..........................................   ",
"   ..........................................   ",
"  ............................................  ",
"  ............................................  ",
"  ......+..+...@@@@@@@@@@@@@@@@@@@@..@@@@.....  ",
"  ......+..+...@@@@@@@@@@@@@@@@@@@@..@@@@.....  ",
"  ......+..+...@@@@@@@@@@@@@@@@@@@@..@@@@.....  ",
"  ......+..+...@@@@@@@@@@@@@@@@@@@@..@@@@.....  ",
"  ............................................  ",
"  ............................................  ",
"  ......+..+...@@......................@@.....  ",
"  ......+..+...@@........#$$$$$$$$.....@@.....  ",
"  ......+..+...@@.........#$$$$$$$.....@@.....  ",
"  ......+..+...@@..........#$$$$$$.....@@.....  ",
"  ......+..+...@@..........#$$$$$$.....@@.....  ",
"  ......+..+...@@.........#$$$$$$$.....@@.....  ",
"  ......+..+...@@.........#$$$$$$$.....@@.....  ",
"  ......+..+...@@..........#$$##$$.....@@.....  ",
"  ......+..+...@@......#$#..##..#$.....@@.....  ",
"  ......+..+...@@.....#$$$#......#.....@@.....  ",
"  ......+..+...@@.....##$$$............@@.....  ",
"  ......+..+...@@....$$##$#............@@.....  ",
"  ......+..+...@@..##$$$##.............@@.....  ",
"  ......+..+...@@..$$#$$...............@@.....  ",
"  ......+..+...@@..#$$#................@@.....  ",
"  ......+..+...@@...#$#................@@.....  ",
"  ......+..+...@@......................@@.....  ",
"  ......+..+...@@......................@@.....  ",
"  ......+..+...@@@@@@@@@@@@@@@@@@@@@@@@@@.....  ",
"  ......+..+...@@@@@@@@@@@@@@@@@@@@@@@@@@.....  ",
"  ......+..+..................................  ",
"  ......+..+..................................  ",
"  ......+..+..+++++++++++++++++++++++++.......  ",
"  ......+..+..................................  ",
"  ......+..+..................................  ",
"  ......+..+++++++++++++++++++++++++..........  ",
"  ......+.....................................  ",
"  ......+.....................................  ",
"   .....+++++++++++++++++++++++++............   ",
"   ..........................................   ",
"    ........................................    ",
"      ....................................      ",
"                                                ",
"                                                "};
