/* XPM */
static char * windows_xpm[] = {
"48 48 4 1",
" 	c None",
".	c #000000",
"+	c #CCCCCC",
"@	c #FFFFFF",
"                                                ",
"                                                ",
"      ....................................      ",
"    ........................................    ",
"   ..........................................   ",
"   ..........................................   ",
"  ............................................  ",
"  ............++++++++++++++++++++++..++++....  ",
"  ............++++++++++++++++++++++..++++....  ",
"  ............++++++++++++++++++++++..++++....  ",
"  ............++++++++++++++++++++++..++++....  ",
"  ............................................  ",
"  ............++........................++....  ",
"  ......................................++....  ",
"  ....@@@@@@@@@@@@@@@@@@@@@@..@@@@......++....  ",
"  ....@@@@@@@@@@@@@@@@@@@@@@..@@@@......++....  ",
"  ....@@@@@@@@@@@@@@@@@@@@@@..@@@@......++....  ",
"  ....@@@@@@@@@@@@@@@@@@@@@@..@@@@......++....  ",
"  ......................................++....  ",
"  ......................................++....  ",
"  ....@@........................@@......++....  ",
"  ....@@........................@@......++....  ",
"  ....@@........................@@......++....  ",
"  ....@@........................@@......++....  ",
"  ....@@........................@@......++....  ",
"  ....@@........................@@......++....  ",
"  ....@@........................@@......++....  ",
"  ....@@........................@@......++....  ",
"  ....@@........................@@......++....  ",
"  ....@@........................@@......++....  ",
"  ....@@........................@@..++++++....  ",
"  ....@@........................@@..++++++....  ",
"  ....@@........................@@............  ",
"  ....@@........................@@............  ",
"  ....@@........................@@............  ",
"  ....@@........................@@............  ",
"  ....@@........................@@............  ",
"  ....@@........................@@............  ",
"  ....@@........................@@............  ",
"  ....@@@@@@@@@@@@@@@@@@@@@@@@@@@@............  ",
"  ....@@@@@@@@@@@@@@@@@@@@@@@@@@@@............  ",
"  ............................................  ",
"   ..........................................   ",
"   ..........................................   ",
"    ........................................    ",
"      ....................................      ",
"                                                ",
"                                                "};
