/* XPM */
static char * win_shade48_xpm[] = {
"48 48 6 1",
" 	c None",
".	c #000000",
"+	c #FFFFFF",
"@	c #7D0000",
"#	c #FF0000",
"$	c #303030",
"                                                ",
"                                                ",
"      ....................................      ",
"    ........................................    ",
"   ..........................................   ",
"   ..........................................   ",
"  ............................................  ",
"  ............................................  ",
"  .....++++++++++++++++++++++++++++..++++.....  ",
"  .....++++++++++++++++++++++++++++..++++.....  ",
"  .....++++++++++++++++++++++++++++..++++.....  ",
"  .....++++++++++++++++++++++++++++..++++.....  ",
"  ............................................  ",
"  ............................................  ",
"  .....++..............................++.....  ",
"  .....++..............................++.....  ",
"  .....++..............................++.....  ",
"  .....++++++++++++++++++++++++++++++++++.....  ",
"  .....++++++++++++++++++++++++++++++++++.....  ",
"  ............................................  ",
"  ....................@##@....................  ",
"  .....$.............@####@.............$.....  ",
"  .....$............@######@............$.....  ",
"  .....$...........@########@...........$.....  ",
"  .....$$$$$$$$$$$@##########@$$$$$$$$$$$.....  ",
"  ....................####....................  ",
"  ....................####....................  ",
"  .....$..............@@@@..............$.....  ",
"  .....$................................$.....  ",
"  .....$..............####..............$.....  ",
"  .....$..............####..............$.....  ",
"  .....$................................$.....  ",
"  .....$$$$$$$$$$$$$$.####.$$$$$$$$$$$$$$.....  ",
"  ....................####....................  ",
"  ............................................  ",
"  .....$..............####..............$.....  ",
"  .....$................................$.....  ",
"  .....$$$$$$$$$$$$$$$$$$$$$$$$$$$$$$$$$$.....  ",
"  ............................................  ",
"  ............................................  ",
"  .....$$$$$$$$$$$$$$$$$$$$$$$$$$$$$$$$$$.....  ",
"  ............................................  ",
"   ..........................................   ",
"   ..........................................   ",
"    ........................................    ",
"      ....................................      ",
"                                                ",
"                                                "};
