/* XPM */
static char * win_min48_xpm[] = {
"48 48 6 1",
" 	c None",
".	c #000000",
"+	c #303030",
"@	c #7D0000",
"#	c #FF0000",
"$	c #FFFFFF",
"                                                ",
"                                                ",
"      ....................................      ",
"    ........................................    ",
"   ..........................................   ",
"   ..........................................   ",
"  ............................................  ",
"  ............................................  ",
"  .....++++++++++++++++++++++++++++..++++.....  ",
"  .....++++++++++++++++++++++++++++..++++.....  ",
"  .....++++++++++++++++++++++++++++..++++.....  ",
"  .....++++++++++++++++++++++++++++..++++.....  ",
"  ............................................  ",
"  ..................................@.........  ",
"  .....++..........................@##.++.....  ",
"  .....++.........................@##@.++.....  ",
"  .....++........................@##@..++.....  ",
"  .....++.......................@##@...++.....  ",
"  .....++......................@##@....++.....  ",
"  .....++.....................@##@.....++.....  ",
"  .....++....................@##@......++.....  ",
"  .....++...................@##@.......++.....  ",
"  .....++..................@##@........++.....  ",
"  .....++.................@##@.........++.....  ",
"  .....++................@##@..........++.....  ",
"  .......................##@...........++.....  ",
"  ........................@............++.....  ",
"  ....$$$$$$$$$$$$$$..$$$..............++.....  ",
"  ....$$$$$$$$$$$$$$..$$$..............++.....  ",
"  ....$$$$$$$$$$$$$$..$$$..............++.....  ",
"  .....................................++.....  ",
"  .....................................++.....  ",
"  ....$$...............$$..............++.....  ",
"  ....$$...............$$..............++.....  ",
"  ....$$...............$$..............++.....  ",
"  ....$$...............$$..............++.....  ",
"  ....$$...............$$..............++.....  ",
"  ....$$...............$$..++++++++++++++.....  ",
"  ....$$...............$$..++++++++++++++.....  ",
"  ....$$$$$$$$$$$$$$$$$$$.....................  ",
"  ....$$$$$$$$$$$$$$$$$$$.....................  ",
"  ............................................  ",
"   ..........................................   ",
"   ..........................................   ",
"    ........................................    ",
"      ....................................      ",
"                                                ",
"                                                "};
