/* XPM */
static char * wolrd_http48_xpm[] = {
"48 48 8 1",
" 	c None",
".	c #000000",
"+	c #CFCFCF",
"@	c #FFFFFF",
"#	c #656565",
"$	c #0000FF",
"%	c #00007D",
"&	c #303030",
"                                                ",
"                                                ",
"      ....................................      ",
"    ........................................    ",
"   ..........................................   ",
"   ................+@@@@@@@@+................   ",
"  .............#@@@@@@@@@@@@@@@@#.............  ",
"  ...........#@@@@@@@$%@@%$@@@@@@@#...........  ",
"  .........#@@@@@$@@$%%@@%%$@@$@@@@#..........  ",
"  ........#@@@@$%$@@%%%@@%%%@@$%$@@@@#........  ",
"  .......#@@@@$%%@@$%%%@@%%%$@@%%%$@@@#.......  ",
"  ......#@@@$%%%@@@%%%%@@%%%%@@$%%%$@@@.......  ",
"  ......@@@$%%%%@@$%%%%@@%%%%$@@%%%%$@@#......  ",
"  .....#@@$%%%%%@@%%%%%@@%%%%%@@%%%%%$@@#.....  ",
"  .....@@@@@@@@@@@@@@@@@@@@@@@@@@@@@@@@@@.....  ",
"  ....#@@@@@@@@@@@@@@@@@@@@@@@@@@@@@@@@@@#....  ",
"  ....@@$%%%%%@@%%%%%%%@@%%%%%%%@@%%%%%$@@....  ",
"  ....@@%%%%%$@@%%%%%%%@@%%%%%%%@@$%%%%%@@....  ",
"  ....@@%%%%%@@$%%%%%%%@@%%%%%%%$@@%%%%%@@....  ",
"  ...+@$%%%%%@@%%%%%%%%@@%%%%%%%%@@%%%%%@@+...  ",
"  ...@@%%%%%%@@%%%%%%%%@@%%%%%%%%@@%%%%%$@@...  ",
"  ...@@%%%%%%@@%%%%%%%%@@%%%%%%%%@@%%%%%%@@...  ",
"  ...@@%%%%%%@@%%%%%%%%@@%%%%%%%%@@%%%%%%@@...  ",
"  ...@@@@@@@@@@@@@@@@@@@@@@@@@@@@@@@@@@@@@@...  ",
"  ...@@@@@@@@@@@@@@@@@@@@@@@@@@@@@@@@@@@@@@...  ",
"  ...@@%%%%%%@@%%%%%%%%@@%%%%%%%%@@%%%%%%@@...  ",
"  ...@@%%%%%%@@%%%%%%%%@@%%%%%%%%@@%%%%%$@@...  ",
"  ...+@$%%%%%@@%%%%%%%%@@%%%%%%%%@@%%%%%@@+...  ",
"  ....@@%%%%%@@$%%%%%%%@@%%%%%%%$@@%%%%%@@....  ",
"  ....@@%%%%%$@@%%%%%%%@@%%%%%%%@@$%%%%%@@....  ",
"  ....@@$%%%%%@@%%%%%%%@@%%%%%%%@@%%%%%$@@....  ",
"  ....#@@@@@@@@@@@@@@@@@@@@@@@@@@@@@@@@@@#....  ",
"  .....@@@@@@@@@@@@@@@@@@@@@@@@@@@@@@@@@@.....  ",
"  .....#@@$%%%%@@$%%%%%@@%%%%%%@@%%%%$@@#.....  ",
"  ......@@@$%%%$@@%%...##......##.....##......  ",
"  ......#@@@$%%%@@$%..........................  ",
"  .......#@@@$%%$@@%..@@.....&@...&@..........  ",
"  ........#@@@@$%@@%..@@....&@@..&@@..........  ",
"  .........#@@@@@$@$..@@@@#.@@@@.@@@@.@@@@&...  ",
"  ...........#@@@@@@..@@.@@..@@...@@..@@.@@...  ",
"  .............#@@@@..@@.@@..@@...@@..@@.@@...  ",
"  ....................@@.@@..@@...@@..@@.@@...  ",
"   ...................@@.@@..#@@..#@@.@@@@&..   ",
"   ...................................@@.....   ",
"    ..................................@@....    ",
"      ....................................      ",
"                                                ",
"                                                "};
