<?xml version="1.0" encoding="UTF-8" standalone="no"?>
<!DOCTYPE svg PUBLIC "-//W3C//DTD SVG 1.1//EN"
 "http://www.w3.org/Graphics/SVG/1.1/DTD/svg11.dtd">
<!-- Generated by graphviz version 2.40.1 (20161225.0304)
 -->
<!-- Title: structs Pages: 1 -->
<svg width="171pt" height="118pt"
 viewBox="0.00 0.00 171.00 118.00" xmlns="http://www.w3.org/2000/svg" xmlns:xlink="http://www.w3.org/1999/xlink">
<g id="graph0" class="graph" transform="scale(1 1) rotate(0) translate(4 114)">
<title>structs</title>
<polygon fill="#ffffff" stroke="transparent" points="-4,4 -4,-114 167,-114 167,4 -4,4"/>
<!-- struct1 -->
<g id="node1" class="node">
<title>struct1</title>
<polygon fill="none" stroke="#0000ff" points="0,-73.5 0,-109.5 125,-109.5 125,-73.5 0,-73.5"/>
<text text-anchor="middle" x="25" y="-87.8" font-family="Monaco" font-size="14.00" fill="#000000">prev</text>
<polyline fill="none" stroke="#0000ff" points="50,-73.5 50,-109.5 "/>
<text text-anchor="middle" x="62.5" y="-87.8" font-family="Monaco" font-size="14.00" fill="#000000"> </text>
<polyline fill="none" stroke="#0000ff" points="75,-73.5 75,-109.5 "/>
<text text-anchor="middle" x="100" y="-87.8" font-family="Monaco" font-size="14.00" fill="#000000">next</text>
</g>
<!-- struct2 -->
<g id="node2" class="node">
<title>struct2</title>
<polygon fill="none" stroke="#0000ff" points="38,-.5 38,-36.5 163,-36.5 163,-.5 38,-.5"/>
<text text-anchor="middle" x="63" y="-14.8" font-family="Monaco" font-size="14.00" fill="#000000">prev</text>
<polyline fill="none" stroke="#0000ff" points="88,-.5 88,-36.5 "/>
<text text-anchor="middle" x="100.5" y="-14.8" font-family="Monaco" font-size="14.00" fill="#000000"> </text>
<polyline fill="none" stroke="#0000ff" points="113,-.5 113,-36.5 "/>
<text text-anchor="middle" x="138" y="-14.8" font-family="Monaco" font-size="14.00" fill="#000000">next</text>
</g>
<!-- struct1&#45;&gt;struct2 -->
<g id="edge1" class="edge">
<title>struct1:f2&#45;&gt;struct2:f1</title>
<path fill="none" stroke="#000000" d="M100.5,-73.5C100.5,-61.0382 100.5,-55.6592 100.5,-46.6281"/>
<polygon fill="#000000" stroke="#000000" points="104.0001,-46.5 100.5,-36.5 97.0001,-46.5 104.0001,-46.5"/>
</g>
<!-- struct2&#45;&gt;struct1 -->
<g id="edge2" class="edge">
<title>struct2:f0&#45;&gt;struct1:f1</title>
<path fill="none" stroke="#000000" d="M62.5,-36.5C62.5,-48.9618 62.5,-54.3408 62.5,-63.3719"/>
<polygon fill="#000000" stroke="#000000" points="59.0001,-63.5 62.5,-73.5 66.0001,-63.5 59.0001,-63.5"/>
</g>
</g>
</svg>
