/* XPM */
static char * 2men_xpm[] = {
"16 16 7 1",
" 	c None",
".	c #000000",
"+	c #FFDCA8",
"@	c #00C000",
"#	c #FF0000",
"$	c #C00000",
"%	c #008000",
"   ...    ...   ",
"  .+.+.  .+.+.  ",
"  .+++.  .+++.  ",
"  .++.    .++.  ",
"   .+.    .+.   ",
"  .@@@.  .###.  ",
" .@@@@.  .#$##. ",
".@%@@@.  .#$###.",
".@%@@@.  .#$###.",
".@%@@@.  .#$###.",
".@%%@@.  .#$$##.",
".@@@@@.  .#####.",
"...%%..  ..$$...",
"  .@%.    .#$.  ",
"  .@@.    .##.  ",
"  ....    ....  "};
