/* XPM */
static char * board2_xpm[] = {
"16 16 8 1",
" 	c None",
".	c #000000",
"+	c #585858",
"@	c #FF0000",
"#	c #A0A0A0",
"$	c #0000FF",
"%	c #FFFFFF",
"&	c #C3C3C3",
"                ",
" .............. ",
" .+@.+##.$.###. ",
" .@@@.#.$$$.##. ",
" .+@.+##.$.###. ",
" .#.+%%%#.#%%%. ",
" .###%%%###%%%. ",
" .###&.&###&.&. ",
" .%%&.$.&%&.@.. ",
" .%%.$$$.%.@@@. ",
" .%%&.$.&%&.@.. ",
" .###&.&###&.&. ",
" .###%%%###%%%. ",
" .###%%%###%%%. ",
" .............. ",
"                "};
