/* XPM */
static char * gun_xpm[] = {
"16 16 6 1",
" 	c None",
".	c #000000",
"+	c #C3C3C3",
"@	c #808080",
"#	c #FF8000",
"$	c #C05800",
"                ",
"                ",
"           .    ",
"          .+.   ",
"          .@.   ",
" .........+@..  ",
".++++++++.@.##. ",
".+@@@@@@@@.###. ",
" ......@...####.",
"     . . ..$###.",
"     .   . .$##.",
"      ...  .$##.",
"           .$##.",
"            ... ",
"                ",
"                "};
