/* XPM */
static char *ft_xpm[] = {
/* columns rows colors chars-per-pixel */
"16 16 6 1",
"  c None",
". c #c0ffff",
"o c #00ffff",
"x c #00c0c0",
"X c #008080",
"@ c #000000",
/* pixels */
"                ",
"                ",
"                ",
"      @@@       ",
"     @...@      ",
"    @o..oo@     ",
"   @oooooXX@    ",
"   @xxooXXX@    ",
"   @xxxxXXX@    ",
"    @xxxXX@     ",
"     @xxX@      ",
"      @@@       ",
"                ",
"                ",
"                ",
"                ",
};
