/* XPM */
static char * padlock_xpm[] = {
"16 16 8 1",
" 	c None",
".	c #000000",
"+	c #00FFFF",
"@	c #00C0C0",
"#	c #008080",
"$	c #FFFF00",
"%	c #808000",
"&	c #C0C000",
"     ......     ",
"    .++++++.    ",
"   .+@@@@@@#.   ",
"   .+@#..#@#.   ",
"   .+@.  .@#.   ",
"   .+@.  .@#.   ",
"   ..........   ",
"  .$$$$$$$$$%.  ",
" .$$&&&&&&&%%%. ",
" .$&&&&&&&&%%%. ",
" .$&&&&&&&&%%%. ",
" .$&&&&&&&&%%%. ",
" .$&&&&&&&&%%%. ",
" .$%%%%%%%%%%%. ",
" .%%%%%%%%%%%%. ",
" .............. ",
};
