/* XPM */
static char * atom_xpm[] = {
"16 16 5 1",
" 	c None",
".	c #000000",
"+	c #FF0000",
"@	c #FFFFFF",
"#	c #C00000",
"  ..            ",
" .  ..          ",
" .    .     ..  ",
"  .    .  ..  . ",
"  .     .     . ",
"   .  .. .   .  ",
"     .++. .  .  ",
"    .+@++. .    ",
"    .+++#.  .   ",
"     .+#. .  .  ",
"   .  .. .    . ",
"  .     .     . ",
"  .    .  .    .",
" .    .    ..  .",
" .  ..       .. ",
"  ..            "};
