/* XPM */
static char *amusement[] = {
/* width height ncolors chars_per_pixel */
"24 24 19 1",
/* colors */
"  c #000000",
". c #999999",
"X c #595959",
"o c #333333",
"O c #C0C0C0",
"+ c #B4B4B4",
"@ c #A8A8A8",
"# c #808080",
"$ c #747474",
"% c #686868",
"& c #5A5A5A",
"* c #FFFFFF",
"= c #F3F3F3",
"- c #E7E7E7",
"; c #343434",
": c #D9D9D9",
"> c #CDCDCD",
", c #1A1A1A",
"< c None",
/* pixels */
"                        ",
"                        ",
"                        ",
"                        ",
"   :****************:   ",
"    ,,    o   ,,        ",
"    ##    *   X.        ",
"    ##    *    :,       ",
"    ##    *    X.       ",
"    ##    *     :,      ",
"    ##    *     X.      ",
"    ##    *      :,     ",
"    ##    *      X.     ",
"    ##    *       *&    ",
"    ##    *      :**:   ",
"   &::& ,.*.,   X**O@X  ",
"  ,***=,.**=.   X*O;$X  ",
"  #**$%#**= -    :@$>   ",
"  ,*$ +,.= ;.     &&    ",
"   &>>& ,.-.,           ",
"                        ",
"                        ",
"                        ",
"                        "
};
