/* XPM */
static char *calculator[] = {
/* width height ncolors chars_per_pixel */
"24 24 13 1",
/* colors */
"  c #000000",
". c #800000",
"X c #737373",
"o c #333333",
"O c #C0C0C0",
"+ c #400000",
"@ c #FF0000",
"# c #808080",
"$ c #C00000",
"% c #FFFFFF",
"& c #F3F3F3",
"* c #B3B3B3",
"= c None",
/* pixels */
"                        ",
"                        ",
"      o##########X      ",
"      &%%%%%%%%%%%X     ",
"      %#    +.+.+%#     ",
"      %#    .....%#     ",
"      %#    .$+..%#     ",
"      %O#########%#     ",
"      %&#*%*#&&#*%#     ",
"      %#  %  ##@.%#     ",
"      %&#*%*#&&#*%#     ",
"      %&#*%*#&&#*%#     ",
"      %#  %  ##  %#     ",
"      %&#*%*#&&#*%#     ",
"      %&#*%*#&&#*%#     ",
"      %#  %  ##  %#     ",
"      %&#*%*#&&#*%#     ",
"      %&#*%*#&&#*%#     ",
"      %#  %  ##  %#     ",
"      %&#*%*#&&#*%#     ",
"      &%%%%%%%%%%%X     ",
"      o##########X      ",
"                        ",
"                        "
};
