/* XPM */
static char *cd-player[] = {
/* width height ncolors chars_per_pixel */
"24 24 28 1",
/* colors */
"  c #000000",
". c #ADADAD",
"X c #999999",
"o c #80BF80",
"O c #8D8D8D",
"+ c #737373",
"@ c #6D6D6D",
"# c #676767",
"$ c #409F40",
"% c #4D4D4D",
"& c #ECECEC",
"* c #E6E6E6",
"= c #333333",
"- c #007F00",
"; c #2D2D2D",
": c #272727",
"> c #CCCCCC",
", c #C0C0C0",
"< c #0D0D0D",
"1 c #ACACAC",
"2 c #A6A6A6",
"3 c #9A9A9A",
"4 c #808080",
"5 c #666666",
"6 c #FFFFFF",
"7 c #404040",
"8 c #C0DFC0",
"9 c None",
/* pixels */
"                        ",
"            44;         ",
"         ++7:666.;      ",
"       =3#4  66666X     ",
"      7&666: 666666X    ",
"     7756664 6666666X   ",
"     O  O66* 66666666;  ",
"    %7   O66>666666661  ",
"    4     O,: #*666666  ",
"    +     2    5666666; ",
"    2           4444424 ",
"    &666662    :7     + ",
"    4666666:   #:    +  ",
"    @666666624**:    4  ",
"     44444266:26*:   +  ",
"   #44444# 66 :66*: O<  ",
"   6$6o866 66  666*+%   ",
"   6-$o-86 66  O*4,7    ",
"   6--$-$6 66   747     ",
"   6-8o$66 4&2447       ",
"   *86866*              ",
"                        ",
"                        ",
"                        "
};
