/* XPM */
static char *chat[] = {
/* width height ncolors chars_per_pixel */
"24 24 12 1",
/* colors */
"  c #000000",
". c #8D8D8D",
"X c #676767",
"o c #E6E6E6",
"O c #272727",
"+ c #C0C0C0",
"@ c #A6A6A6",
"# c #808080",
"$ c #666666",
"% c #FFFFFF",
"& c #404040",
"* c None",
/* pixels */
"                        ",
"                        ",
"      Xo%%%%%%%%@O      ",
"     $%%+#######%o      ",
"     o%%+#######%%$     ",
"     %%+########%%#     ",
"     %%+########%%#     ",
"     @%+######+%%%O     ",
"     Oo+######+%%o      ",
"       X#####o%%oO      ",
"          X  #%oO       ",
"         .@  ooO        ",
"        .%$ OoO         ",
"       .%%  &O          ",
"      .%%%@#####X       ",
"     O%%%#######%.      ",
"     @%%%#######%%O     ",
"     %%+########%%#     ",
"     %%+########%%#     ",
"     o%+######+%%%$     ",
"     $%+######+%%o      ",
"      Xo%%%%%%%%@O      ",
"                        ",
"                        "
};
