/* XPM */
static char *choice-yes[] = {
/* width height ncolors chars_per_pixel */
"24 24 7 1",
/* colors */
"  c #000000",
". c #00FF00",
"X c #00DF00",
"o c #008000",
"O c #006000",
"+ c #004000",
"@ c None",
/* pixels */
"                        ",
"                        ",
"                        ",
"                        ",
"                        ",
"                +oo+    ",
"                X..O    ",
"               O..X     ",
"               X..O     ",
"              O..X      ",
"              X..O      ",
"             O..X       ",
"    +oo+     X..O       ",
"    O..X    O..X        ",
"     X..O   X..O        ",
"     O..X  O..X         ",
"      X..O X..O         ",
"      O..XO..X          ",
"       X..X..O          ",
"       O....X           ",
"        oooo+           ",
"                        ",
"                        ",
"                        "
};
