/* XPM */
static char *choice-no[] = {
/* width height ncolors chars_per_pixel */
"24 24 7 1",
/* colors */
"  c #000000",
". c #800000",
"X c #600000",
"o c #FF0000",
"O c #200000",
"+ c #DF0000",
"@ c None",
/* pixels */
"                        ",
"                        ",
"                        ",
"                        ",
"                        ",
"   O...X        X...O   ",
"    .ooo.      .ooo.    ",
"     .ooo.    .ooo.     ",
"      .ooo.  .ooo.      ",
"       .ooo..ooo.       ",
"        .oooooo.        ",
"         .oooo.         ",
"         O+ooo.         ",
"        O+ooooo.        ",
"       O+oo..ooo.       ",
"      O+oo.  .ooo.      ",
"     O+oo.    .ooo.     ",
"    O+oo.      .ooo.    ",
"   O+oo.        X...O   ",
"                        ",
"                        ",
"                        ",
"                        ",
"                        "
};
