/* XPM */
static char *clock[] = {
/* width height ncolors chars_per_pixel */
"24 24 17 1",
/* colors */
"  c #000000",
". c #391A1A",
"X c #999999",
"o c #737373",
"O c #595959",
"+ c #BE0000",
"@ c #C0C0C0",
"# c #5A1A1A",
"$ c #400000",
"% c #808080",
"& c #5F0000",
"* c #5A5A5A",
"= c #FFFFFF",
"- c #404040",
"; c #D9D9D9",
": c #1A1A1A",
"> c None",
/* pixels */
"                        ",
"                        ",
"                        ",
"           %%           ",
"           %%           ",
"     :*  $        -     ",
"     O=O &&      @@     ",
"      *:  +    :X-      ",
"          &&  :;o       ",
"           + :;o        ",
"          *#.;o         ",
"   %%    :==;o     -%-  ",
"   %%     :X==X:   -%-  ",
"         :;O.X==O       ",
"          * &&:X:       ",
"             $          ",
"      *:                ",
"     O=O         ;o     ",
"     :*          O;     ",
"           --           ",
"           %%           ",
"           --           ",
"                        ",
"                        "
};
