/* XPM */
static char *colors[] = {
/* width height ncolors chars_per_pixel */
"24 24 17 1",
/* colors */
"  c #000000",
". c #800000",
"X c #000020",
"o c #00FF00",
"O c #600000",
"+ c #000040",
"@ c #000060",
"# c #400000",
"$ c #FF0000",
"% c #000080",
"& c #200000",
"* c #008000",
"= c #006000",
"- c #004000",
"; c #002000",
": c #0000FF",
"> c None",
/* pixels */
"                        ",
"                        ",
"                        ",
"                        ",
"     O#...........#.&   ",
"    .$.$$$$$$$$$$$.$.   ",
"   &O..$$$$$$$$$$$.$.   ",
"     ..$$$$$$$$$$$.$O   ",
"                        ",
"                        ",
"     =-***********-*;   ",
"    *o*ooooooooooo*o*   ",
"   ;=**ooooooooooo*o*   ",
"     **ooooooooooo*o=   ",
"                        ",
"                        ",
"     @+%%%%%%%%%%%+%X   ",
"    %:%:::::::::::%:%   ",
"   X@%%:::::::::::%:%   ",
"     %%:::::::::::%:@   ",
"                        ",
"                        ",
"                        ",
"                        "
};
