/* XPM */
static char *development[] = {
/* width height ncolors chars_per_pixel */
"24 24 13 1",
/* colors */
"  c #000000",
". c #999999",
"X c #808080",
"o c #747474",
"O c #5A5A5A",
"+ c #FFFFFF",
"@ c #F3F3F3",
"# c #404040",
"$ c #E7E7E7",
"% c #343434",
"& c #D9D9D9",
"* c #1A1A1A",
"= c None",
/* pixels */
"                        ",
"                        ",
"                        ",
"                  %*    ",
"                  X&*   ",
"                  X+&*  ",
"                  X++X  ",
"    @++++++++++++$X++X  ",
"    +++++++++++++$X++X  ",
"    oXXXXXXXXXXXXoX++X  ",
"                  X++X  ",
"     *XXXXXXXXXXX%X++X  ",
"  XXX&+++++++++++X%XX%  ",
"  O&+++++++++++++o      ",
"    O&+++++++++&O       ",
"      .++++++&O         ",
"      *++++++X          ",
"      *++++++.          ",
"    *X&+++++++.O        ",
"    #XXXXXXXXXXX        ",
"                        ",
"                        ",
"                        ",
"                        "
};
