/* XPM */
static char *disk-floppy[] = {
/* width height ncolors chars_per_pixel */
"24 24 18 1",
/* colors */
"  c #000000",
". c #999999",
"X c #737373",
"o c #00FF00",
"O c #333333",
"+ c #C0C0C0",
"@ c #808080",
"# c #747474",
"$ c #686868",
"% c #FFFFFF",
"& c #404040",
"* c #343434",
"= c #008000",
"- c #D9D9D9",
"; c #CFCFCF",
": c #1A1A1A",
"> c #B5B5B5",
", c None",
/* pixels */
"                        ",
"                        ",
"                 ===    ",
"                 ooo    ",
"                        ",
"   ;;;;;;;;;;;;;;;;;;   ",
"   ;                ;   ",
"   ; #%%%%%%%%%%-:  ;   ",
"   ;;@@         X-O>;   ",
"     @@     ;;$  .@     ",
"     @@     ;;$  @@     ",
"     @@     ;;$  @@     ",
"     @@     ;;$  @@     ",
"     @@     $$*  @@     ",
"     @@&@@@@@@@@&@@     ",
"     @@@%@@@@@@%@@@     ",
"     @@@%@@@@@@%@@@     ",
"     @@@%      %@@@     ",
"     @@@%@@@@@%%@@@     ",
"     @++%@@@@@%%++@     ",
"     *@@@@@@@@@@@@*     ",
"                        ",
"                        ",
"                        "
};
