/* XPM */
static char *disk-cd[] = {
/* width height ncolors chars_per_pixel */
"24 24 24 1",
/* colors */
"  c #000000",
". c #999999",
"X c #8D8D8D",
"o c #737373",
"O c #00FF00",
"+ c #595959",
"@ c #333333",
"# c #C0C0C0",
"$ c #9C9C9C",
"% c #808080",
"& c #747474",
"* c #686868",
"= c #5A5A5A",
"- c #FFFFFF",
"; c #F3F3F3",
": c #404040",
"> c #343434",
", c #008000",
"< c #D9D9D9",
"1 c #CFCFCF",
"2 c #CDCDCD",
"3 c #1A1A1A",
"4 c #004000",
"5 c None",
/* pixels */
"                        ",
"                        ",
"                 ,OO    ",
"                 4,,    ",
"  11111111111111111111* ",
"  1                  ** ",
"  1>-    &<---.>   %%$* ",
"  *>-   *3------:  %%*> ",
"    -  * 2-----o>> %%   ",
"    - &.33<---o  & %%   ",
"    - ;--..=3.>   &%%   ",
"    - ----+   X   %%%   ",
"    - %  &3   %---%%%   ",
"    - %   .  3----%%%   ",
"    - *  o-<.-@=<-3%%   ",
"    - >>o-----<3 X %%   ",
"    -  :------<>*  %%   ",
"    -   :;----#*   %%   ",
"    1     =%%%3    **   ",
"   ;-----------------&  ",
"   -                %%  ",
"   ;-----------------&  ",
"                        ",
"                        "
};
