/* XPM */
static char *disk[] = {
/* width height ncolors chars_per_pixel */
"24 24 10 1",
/* colors */
"  c #000000",
". c #999999",
"X c #737373",
"o c #595959",
"O c #808080",
"+ c #5A5A5A",
"@ c #FFFFFF",
"# c #D9D9D9",
"$ c #1A1A1A",
"% c None",
/* pixels */
"                        ",
"                        ",
"                        ",
"                        ",
"      $O#@@@@@@#O$      ",
"     X@.+      +.@X     ",
"     @$          $@     ",
"     @.$        $.@     ",
"     @.@#OOOOOO#@.@     ",
"     @  +OOOOOO+  @     ",
"     @            @     ",
"     @            @     ",
"     @            @     ",
"     @            @     ",
"     @            @     ",
"     @            @     ",
"     @            @     ",
"     #X          X#     ",
"     o@.O$    +O.@o     ",
"      $O.@@@@@#OO$      ",
"                        ",
"                        ",
"                        ",
"                        "
};
