/* XPM */
static char *display[] = {
/* width height ncolors chars_per_pixel */
"24 24 17 1",
/* colors */
"  c #000000",
". c #80BF80",
"X c #676767",
"o c #00FF00",
"O c #00DF00",
"+ c #E6E6E6",
"@ c #272727",
"# c #808080",
"$ c #FFFFFF",
"% c #00C000",
"& c #00A000",
"* c #008000",
"= c #006000",
"- c #C0DFC0",
"; c #004000",
": c #002000",
"> c None",
/* pixels */
"                        ",
"                        ",
"                        ",
"   +$$$$$$$$$$$$$$$$+   ",
"   $@      ==      @$   ",
"   $     =O&&O=     $   ",
"   $   =O&:  :&O=   $   ",
"   $  *o;      ;o*  $   ",
"   $  *%O&:  :&O%*  $   ",
"   $  ** =O&&O= **  $   ",
"   $  **   **   **  $   ",
"   $  **   **   **  $   ",
"   $  *%:  **  :%*  $   ",
"   $   =O&:**:&O=   $   ",
"   $     =OooO=     $   ",
"   $@      ==      @$   ",
"   $$$$$$$$$$$$$$$-.$   ",
"   X################X   ",
"      $$$$$$$$$$$#      ",
"    X##############@    ",
"    $$$$$$$$$$$$$$$#    ",
"                        ",
"                        ",
"                        "
};
