/* XPM */
static char *editor[] = {
/* width height ncolors chars_per_pixel */
"24 24 15 1",
/* colors */
"  c #000000",
". c #E6E6E6",
"X c #333333",
"o c #272727",
"O c #212000",
"+ c #CCCCCC",
"@ c #818000",
"# c #808080",
"$ c #E0DF00",
"% c #666666",
"& c #FFFFFF",
"* c #FFFF00",
"= c #616000",
"- c #808000",
"; c None",
/* pixels */
"                        ",
"                        ",
"                   O    ",
"                  O$@   ",
"     o. ++++++++ O@@*@  ",
"    o.& +++++++#O$*@@O  ",
"   o.&& %     #O$**$O   ",
"        +++++#O$**$O    ",
"   %%        O$**$O     ",
"   %+++++++#O$**$O      ",
"   %%      O$**$O       ",
"   %+++++#O$**$O        ",
"   %%     -$*$O         ",
"   %+++++%-O=O          ",
"   %%                   ",
"   %++++++++++++        ",
"   %++++++++++++        ",
"   %++++++++++++        ",
"   %++++++++++++        ",
"   %++++++++++++        ",
"   X%%%%%%%%%%%%        ",
"                        ",
"                        ",
"                        "
};
