/* XPM */
static char *file[] = {
/* width height ncolors chars_per_pixel */
"24 24 17 1",
/* colors */
"  c #000000",
". c #818181",
"X c #737373",
"o c #676767",
"O c #333333",
"+ c #C0C0C0",
"@ c #9C9C9C",
"# c #808080",
"$ c #686868",
"% c #4E4E4E",
"& c #FFFFFF",
"* c #4C4C4C",
"= c #343434",
"- c #CFCFCF",
"; c #1A1A1A",
": c #B5B5B5",
"> c None",
/* pixels */
"              ;         ",
"            O*;         ",
"          O*;;*X        ",
"        O*;;*O #+       ",
"       *;;*O;.$#&+      ",
"       OOO;.-:=##       ",
"       OO -:o;=         ",
"       OO .;.:=;:       ",
"       OO -:%;.@@       ",
"       OO .;.@==@       ",
"       OO -@==@:@       ",
"       OO $=@:%;@       ",
"       OO -:%;.--       ",
"       OO .;.:@--       ",
"       OO -:%;@--       ",
"       OO .;.----       ",
"       OO -------       ",
"       OO -----.;       ",
"       OO ---.;         ",
"       OO -.;           ",
"        O ;             ",
"                        ",
"                        ",
"                        "
};
