/* XPM */
static char *file-manager[] = {
/* width height ncolors chars_per_pixel */
"24 24 14 1",
/* colors */
"  c #000000",
". c #999999",
"X c #8D8D8D",
"o c #A1A000",
"O c #272727",
"+ c #212000",
"@ c #CCCCCC",
"# c #818000",
"$ c #666666",
"% c #FFFFFF",
"& c #FFFF00",
"* c #616000",
"= c #808000",
"- c None",
/* pixels */
"                        ",
"                        ",
"                        ",
"          @@@@@@@%X     ",
"          @$$$$$.%%X    ",
"          @$$$$$.%%%$   ",
"          @     $$O     ",
"          @$$$$$$$@XO   ",
"          @$$$$$$$@@$   ",
"          @        $$   ",
"    #&&&# $$$$$.@@@@$   ",
"   *&&&&&o=====+.@@@$   ",
"   =&&&&&&&&&&&=$@@@$   ",
"   =&&&&&&&&&&&=$@@@$   ",
"   =&&&&&&&&&&&=$@@@$   ",
"   =&&&&&&&&&&&=$@@@$   ",
"   =&&&&&&&&&&&=$@@@$   ",
"   =&&&&&&&&&&&=        ",
"   =&&&&&&&&&&&=        ",
"   +===========+        ",
"                        ",
"                        ",
"                        ",
"                        "
};
