/* XPM */
static char *folder-open[] = {
/* width height ncolors chars_per_pixel */
"24 24 15 1",
/* colors */
"  c #000000",
". c #C1BE00",
"X c #817F00",
"o c #A09F00",
"O c #615F00",
"+ c #212000",
"@ c #625E00",
"# c #413F00",
"$ c #E0DF00",
"% c #827D00",
"& c #FFFF00",
"* c #A19F00",
"= c #616000",
"- c #808000",
"; c None",
/* pixels */
"                        ",
"                        ",
"              +*        ",
"       +    +*&&+       ",
"     =$o  +*&&&&-       ",
"   =$&&&=*&&&&&&o+ +@+  ",
"   $&&&&&&&&&&&.++@%@   ",
"   -&&&&&&&&&.#+@%%%+   ",
"   O&&&&&&&.#+@%%%%@    ",
"    &&&&&.@+@%%%%%%+    ",
"    $&&.%%+%%%%%%%@     ",
"    -$%%%@#%%%%%%%+     ",
"    O.%%%+%%%%%%%@      ",
"     &%%@#%%%%%@+       ",
"     $%%+%%%%@+         ",
"     -.@#%%@+           ",
"     O.+%@+             ",
"      X++               ",
"                        ",
"                        ",
"                        ",
"                        ",
"                        ",
"                        "
};
