/* XPM */
static char *folder[] = {
/* width height ncolors chars_per_pixel */
"24 24 13 1",
/* colors */
"  c #000000",
". c #A29E00",
"X c #C1BE00",
"o c #2D2C0C",
"O c #615F00",
"+ c #212000",
"@ c #625E00",
"# c #413F00",
"$ c #FFFF00",
"% c #A19F00",
"& c #0C0C0C",
"* c #808000",
"= c None",
/* pixels */
"                        ",
"                 ++     ",
"           &   +#+      ",
"          *  +#++%*     ",
"        *$$+#++%$$*     ",
"      *$$X@++%$$$$*     ",
"      $X@++%$$$$$$*     ",
"      .++%$$$$$$$$*     ",
"      #O$$$$$$$$$$*     ",
"      #*$$$$$$$$$$*     ",
"      #*$$$$$$$$$$*     ",
"      #*$$$$$$$$$$*     ",
"      #*$$$$$$$$$$O     ",
"      #*$$$$$$$$%+      ",
"      #*$$$$$$%+        ",
"      #*$$$$%+          ",
"      #*$$%+            ",
"      o*%+              ",
"                        ",
"                        ",
"                        ",
"                        ",
"                        ",
"                        "
};
