/* XPM */
static char *font[] = {
/* width height ncolors chars_per_pixel */
"24 24 31 1",
/* colors */
"  c #000000",
". c #999999",
"X c #C1BE00",
"o c #800000",
"O c #817F00",
"+ c #737373",
"@ c #595959",
"# c #212000",
"$ c #CCCCCC",
"% c #C0C000",
"& c #404000",
"* c #B2B2B2",
"= c #400000",
"- c #FF0000",
"; c #989898",
": c #413F00",
"> c #808080",
", c #E0DF00",
"< c #5A5A5A",
"1 c #585858",
"2 c #FFFFFF",
"3 c #4C4C4C",
"4 c #FFFF00",
"5 c #404040",
"6 c #D9D9D9",
"7 c #CDCDCD",
"8 c #1A1A1A",
"9 c #181818",
"0 c #0C0C0C",
"q c #808000",
"w c None",
/* pixels */
"                        ",
"                        ",
"      =ooo=      <<     ",
"      o-oo=      >5     ",
"      o-    8.6+ .>     ",
"      o--o .288556      ",
"      o-    .@ 5 >      ",
"    # o-    86<*@       ",
"   #,O   1$0 .> 5   #   ",
"  #,44O 1$9; 86 8  #X   ",
"  O444O1$; 3 8665 #X#   ",
"   O4O 70    5<  #X#    ",
"    Oqqqqqqqqqqqqq:     ",
"    q4444444444444:     ",
"    q44444q q    q:     ",
"    q44444q qqqq%4:     ",
"    q44444%q%qqq%4:     ",
"    q4444444444444:     ",
"    q4444444444444:     ",
"    q4444444444444:     ",
"    &qqqqqqqqqqqqq#     ",
"                        ",
"                        ",
"                        "
};
