/* XPM */
static char *game-board[] = {
/* width height ncolors chars_per_pixel */
"24 24 15 1",
/* colors */
"  c #000000",
". c #999999",
"X c #8D8D8D",
"o c #737373",
"O c #595959",
"+ c #C0C0C0",
"@ c #B2B2B2",
"# c #A8A8A8",
"$ c #808080",
"% c #747474",
"& c #5A5A5A",
"* c #FFFFFF",
"= c #D9D9D9",
"- c #1A1A1A",
"; c None",
/* pixels */
"                        ",
"                        ",
"   %$$$$$$%        %$$  ",
"   ********        ***  ",
"   *-*oo*-*        ***  ",
"   *-o  o-*        ***  ",
"   *.    .*        ***  ",
"   **    **        ***  ",
"   **$$$$**        ***  ",
"   *+$$$$+*        ***  ",
"   %$$$$$$%%$$$$$$%%$$  ",
"      &&   ****-=**     ",
"     O**O  **X-  X*     ",
"     O**O  *o     *     ",
"      @@   *-&&   *     ",
"     o**o  **=-  %*     ",
"    o****o *=-   #*     ",
"    $$$$$$ *.$$$$$*     ",
"   %$$$$$$%%$$$$$$%%$$  ",
"   ********        ***  ",
"   ********        ***  ",
"   ********        $$$  ",
"                        ",
"                        "
};
