/* XPM */
static char *game-action[] = {
/* width height ncolors chars_per_pixel */
"24 24 25 1",
/* colors */
"  c #000000",
". c #800000",
"X c #817F00",
"o c #600000",
"O c #615F00",
"+ c #212000",
"@ c #C0C000",
"# c #7F0000",
"$ c #404000",
"% c #400000",
"& c #FF0000",
"* c #9A9A9A",
"= c #808080",
"- c #5F0000",
"; c #E0DF00",
": c #200000",
"> c #FFFFFF",
", c #DF0000",
"< c #FFFF00",
"1 c #616000",
"2 c #D9D9D9",
"3 c #1A1A1A",
"4 c #181818",
"5 c #808000",
"6 c None",
/* pixels */
"                        ",
"                        ",
"                        ",
"    155+  155+          ",
"   O@@5; O@@5;          ",
"   5@@5< 5@@5<          ",
"   $5555 $5555          ",
"   +;<<X +;<<X          ",
"                        ",
"               :,&&#    ",
"               ... &    ",
"         =     %....    ",
"         >     -&&&,    ",
"         *      o..:    ",
"         4              ",
"                        ",
"         >              ",
"         >              ",
"        3>3             ",
"       32>23            ",
"      32>>>23           ",
"      =>>>>>=           ",
"                        ",
"                        "
};
