/* XPM */
static char *game-cards[] = {
/* width height ncolors chars_per_pixel */
"24 24 20 1",
/* colors */
"  c #000000",
". c #999999",
"X c #FF8080",
"o c #8D8D8D",
"O c #F37474",
"+ c #595959",
"@ c #333333",
"# c #FFC0C0",
"$ c #F3B4B4",
"% c #FF0000",
"& c #808080",
"* c #5A5A5A",
"= c #FFFFFF",
"- c #F3F3F3",
"; c #404040",
": c #FF4040",
"> c #F33434",
", c #D9D9D9",
"< c #1A1A1A",
"1 c None",
/* pixels */
"                        ",
"                        ",
"                        ",
"    *&&&&&&&<           ",
"   o===XX#==-<          ",
"   ===$%>>===&&+&+&+&+  ",
"   ===>>$%$==&&&&&&&&&  ",
"   ==$%:X%>==&&&&&&&&&  ",
"   ==>>XXO%$=&&&&&&&&&  ",
"   ==X#===X#=&&&&&&&&&  ",
"   &&&&&&&&&&;&&&&&&&&  ",
"   &&&&&&&&&&;&&&&&&&&  ",
"   ==X#===X#=&&&&&&&&&  ",
"   ==>>XXO%$=&&&&&&&&&  ",
"   ==$%:X%>==&&&&&&&&&  ",
"   ===>>$%$==&&&&&&&&&  ",
"   ===$%>>===&&&&&&&&&  ",
"   o===XX#==-<&&&&&&&&  ",
"    *&&&&&&&<<,&&&&&&&  ",
"    &&&&&&&&&,,@,+.&&&  ",
"    *&&&&&&&&&<**<&<;<  ",
"                        ",
"                        ",
"                        "
};
