/* XPM */
static char *gnome[] = {
/* width height ncolors chars_per_pixel */
"24 24 15 1",
/* colors */
"  c #000000",
". c #818181",
"X c #676767",
"o c #4D4D4D",
"O c #A8A8A8",
"+ c #747474",
"@ c #686868",
"# c #4E4E4E",
"$ c #343434",
"% c #CFCFCF",
"& c #1A1A1A",
"* c #181818",
"= c #0C0C0C",
"- c #B5B5B5",
"; c None",
/* pixels */
"                        ",
"                        ",
"          o%-           ",
"       --&@%%           ",
"      &%%.o%-           ",
"     #&X%o              ",
"     %%o #@-%%%.&       ",
"     #-oX%%%%%%%.       ",
"    ## o%%%%%%%%%       ",
"    -% .%%%%%%%%.       ",
"    && %%%%%%%%.&       ",
"      o%%%%%%%$         ",
"      @%%%%%%o          ",
"      @%%%%%-           ",
"      &%%%%%@           ",
"       -%%%%.     #&    ",
"       +%%%%%#  &.%@    ",
"       =O%%%%%%%%%%&    ",
"        =.%%%%%%%%X     ",
"           #.%%%.#      ",
"             =*=        ",
"                        ",
"                        ",
"                        "
};
