/* XPM */
static char *gnu[] = {
/* width height ncolors chars_per_pixel */
"24 24 14 1",
/* colors */
"  c #000000",
". c #999999",
"X c #8D8D8D",
"o c #737373",
"O c #595959",
"+ c #333333",
"@ c #C0C0C0",
"# c #808080",
"$ c #5A5A5A",
"% c #FFFFFF",
"& c #404040",
"* c #D9D9D9",
"= c #1A1A1A",
"- c None",
/* pixels */
"                        ",
"                        ",
"                        ",
"    =&            #o    ",
"   =*O            =%O   ",
"   .*              %*   ",
"   %#              .%=  ",
"  O%#    =.OO.=    #%#  ",
"  #%#  =.%%##%%.=  #%#  ",
"  O%*#.%%%%++%%%%.#*%O  ",
"   *%%%%%.====.%%%%%*   ",
"   =.%%.=$*##*$=.%%.=   ",
"       =*%%##%%*=       ",
"      $#%%%##%%%#$      ",
"    o%.=&=%##%=&=.%o    ",
"    *@#  *%##%* =#@*    ",
"         %%##%%         ",
"         *%##%%         ",
"         #%**%.         ",
"         #%%%%#         ",
"         =@@@@=         ",
"          X##X          ",
"                        ",
"                        "
};
