/* XPM */
static char *help[] = {
/* width height ncolors chars_per_pixel */
"24 24 25 1",
/* colors */
"  c #000000",
". c #817F00",
"X c #818181",
"o c #A09F00",
"O c #4D4D4D",
"+ c #615F00",
"@ c #212000",
"# c #C0C000",
"$ c #404000",
"% c #B4B4B4",
"& c #9A9A9A",
"* c #E0DF00",
"= c #686868",
"- c #4E4E4E",
"; c #FFFFFF",
": c #FFFF00",
"> c #E7E7E7",
", c #A19F00",
"< c #616000",
"1 c #D9D9D9",
"2 c #CFCFCF",
"3 c #1A1A1A",
"4 c #808000",
"5 c #B5B5B5",
"6 c None",
/* pixels */
"                        ",
"                        ",
"                        ",
"         22222222>13    ",
"         2=======%;13   ",
"         2=======%;;1   ",
"         2              ",
"         &=========X3   ",
"           -=======25   ",
"   @,::::,@        22   ",
"   o::::::* -======22   ",
"   ::*44,::+3======22   ",
"   ::4   ::4    22222   ",
"   44$   ::4O22222222   ",
"        .::+=22222222   ",
"     @,:::: 522222222   ",
"     *::::.O222222222   ",
"    +::#< -5222222222   ",
"    4::4 522222222222   ",
"    $44$                ",
"    @44@                ",
"    +::+                ",
"                        ",
"                        "
};
