/* XPM */
static char *home[] = {
/* width height ncolors chars_per_pixel */
"24 24 24 1",
/* colors */
"  c #000000",
". c #999999",
"X c #8D8D8D",
"o c #817F00",
"O c #A09F00",
"+ c #595959",
"@ c #212000",
"# c #C0C0C0",
"$ c #B4B4B4",
"% c #8C8C8C",
"& c #808080",
"* c #747474",
"= c #E0DF00",
"- c #5A5A5A",
"; c #FFFFFF",
": c #FFFF00",
"> c #F3F3F3",
", c #404040",
"< c #343434",
"1 c #A19F00",
"2 c #D9D9D9",
"3 c #1A1A1A",
"4 c #808000",
"5 c None",
/* pixels */
"                        ",
"                        ",
"            3&&&&&&3    ",
"           +;;;;;;;;+   ",
"           2;;;;;;;;#   ",
"           ;;>&$;;;;;   ",
"           ;;%* ;;;;;   ",
"           ;;$&<;;;;;   ",
"           ;;;;;;;;;;   ",
"           2;;;;;;;;;   ",
"             .;;;;;;;   ",
"   @=:::o    ,&&2;;;;   ",
"   =:::::144@,&&>;;;;   ",
"   :::::::::4&;;;;;;;   ",
"   :::::::::O3>;;;;;X   ",
"   ::::::::::o3&&&&-    ",
"   :::::::::::1         ",
"   ::::::::::::         ",
"   ::::::::::::         ",
"   ::::::::::::         ",
"   =::::::::::=         ",
"                        ",
"                        ",
"                        "
};
