/* XPM */
static char *image-processor[] = {
/* width height ncolors chars_per_pixel */
"24 24 19 1",
/* colors */
"  c #000000",
". c #999999",
"X c #817F00",
"o c #3A391A",
"O c #737373",
"+ c #555434",
"@ c #595959",
"# c #212000",
"$ c #404000",
"% c #808080",
"& c #747474",
"* c #E0DF00",
"= c #FFFFFF",
"- c #FFFF00",
"; c #343434",
": c #D9D9D9",
"> c #1A1A1A",
", c #808000",
"< c None",
/* pixels */
"                        ",
"                        ",
"                   #    ",
"   &%%%%%%%%%%%%; #*X   ",
"   =============%#XX-X  ",
"   ====:%%.====:o*-XX#  ",
"   ===.    >:=:o*--*#   ",
"   ===>     @:o*--*#    ",
"   ==:      >+*--*#     ",
"   =:> :    #*--*#      ",
"   =>      #*--*#       ",
"   =:     #*--*#        ",
"   ==     ,--*#         ",
"   ==O    ,X$#          ",
"   ====@                ",
"   ====%   @====%       ",
"   ====%    O===%       ",
"   ===:>     O==%       ",
"   ===.%%%%%%%==%       ",
"   =============%       ",
"   &%%%%%%%%%%%%;       ",
"                        ",
"                        ",
"                        "
};
