/* XPM */
static char *image-viewer[] = {
/* width height ncolors chars_per_pixel */
"24 24 20 1",
/* colors */
"  c #000000",
". c #999999",
"X c #818181",
"o c #737373",
"O c #676767",
"+ c #656565",
"@ c #595959",
"# c #4D4D4D",
"$ c #333333",
"% c #808080",
"& c #686868",
"* c #5A5A5A",
"= c #4E4E4E",
"- c #FFFFFF",
"; c #343434",
": c #D9D9D9",
"> c #CFCFCF",
", c #1A1A1A",
"< c #B5B5B5",
"1 c None",
/* pixels */
"                        ",
"                        ",
"                        ",
"   >>>>>>>;*:---.,      ",
"   >>>>>>;o:*  ,.:,     ",
"   >>>>>>,-,$,,  ..     ",
"   >>><= %. $,,  ,-     ",
"   >>>#  %%$+$$+  -     ",
"   >>>   %% $,,$  -     ",
"   >>O % @: $,,$ @:     ",
"   >O  *  :o,$$$,:@     ",
"   >=     ,::%%.-o      ",
"   >>       *%%%,       ",
"   >>       ==  o.      ",
"   >>X&,   #>>, :-,     ",
"   >>>>&   &>>X @-.     ",
"   >>>>&   ,<>>  :-,    ",
"   >>>>#    ,<>  @-.    ",
"   >>>O      ,>   :-,   ",
"   >>>>>>>>>>>>   @-.   ",
"   &&&&&&&&&&&&    .,   ",
"                        ",
"                        ",
"                        "
};
