/* XPM */
static char *information[] = {
/* width height ncolors chars_per_pixel */
"24 24 9 1",
/* colors */
"  c #000000",
". c #00005F",
"X c #000020",
"o c #00007F",
"O c #000060",
"+ c #000080",
"@ c #0000DF",
"# c #0000FF",
"$ c None",
/* pixels */
"                        ",
"                        ",
"                        ",
"                        ",
"         X@##@O         ",
"         ######         ",
"         @####@         ",
"          O++O          ",
"                        ",
"                        ",
"      #########         ",
"      O+@######         ",
"        X@#####         ",
"         +#####         ",
"         +#####         ",
"         +#####         ",
"         +#####         ",
"        X@#####o        ",
"    .##############.    ",
"    X++++++++++++++X    ",
"                        ",
"                        ",
"                        ",
"                        "
};
