/* XPM */
static char *item[] = {
/* width height ncolors chars_per_pixel */
"24 24 13 1",
/* colors */
"  c #000000",
". c #999999",
"X c #595959",
"o c #A8A8A8",
"O c #808080",
"+ c #747474",
"@ c #5A5A5A",
"# c #FFFFFF",
"$ c #F3F3F3",
"% c #343434",
"& c #D9D9D9",
"* c #1A1A1A",
"= c None",
/* pixels */
"                        ",
"                        ",
"                        ",
"                        ",
"                        ",
"                        ",
"         +&###.%        ",
"        o######$%       ",
"       o########$%      ",
"      +##########$      ",
"      &###&@*.####X     ",
"      ####X   &###O     ",
"      ####*   .###O     ",
"      ####.  *####O     ",
"      .####&.#####*     ",
"      %$#########o      ",
"       %$#######o       ",
"        %$#####o        ",
"          @OOO*         ",
"                        ",
"                        ",
"                        ",
"                        ",
"                        "
};
