/* XPM */
static char *kde[] = {
/* width height ncolors chars_per_pixel */
"24 24 22 1",
/* colors */
"  c #000000",
". c #817F00",
"X c #737373",
"o c #A09F00",
"O c #615F00",
"+ c #212000",
"@ c #C0C000",
"# c #404000",
"$ c #413F00",
"% c #808080",
"& c #747474",
"* c #E0DF00",
"= c #5A5A5A",
"- c #FFFFFF",
"; c #FFFF00",
": c #F3F3F3",
"> c #343434",
", c #A19F00",
"< c #616000",
"1 c #1A1A1A",
"2 c #808000",
"3 c None",
/* pixels */
"                        ",
"                        ",
"                        ",
"         O*             ",
"      ;,+*;O<*2         ",
"      *;;;;;;;$         ",
"   ++ o;;;;;;;# $       ",
"   *;;;;,+ <*;;;;O      ",
"   +*;;O     *;;.       ",
"    o;@      O;;+       ",
"  #*;;2   >%%&    =%%%1 ",
"   .*;o   %---   X---X  ",
"    o;;+  %---  X---X   ",
"   .;;;@+ %--- X---X    ",
"   ,,2;;;O%---X---X     ",
"      ;;;2%------X      ",
"     O;*,2%------X      ",
"     #<  +%---X---X     ",
"          %--- X---X    ",
"          %---  X---X   ",
"          &--:   X---X  ",
"                        ",
"                        ",
"                        "
};
