/* XPM */
static char *keyboard[] = {
/* width height ncolors chars_per_pixel */
"24 24 17 1",
/* colors */
"  c #000000",
". c #999999",
"X c #737373",
"o c #00FF00",
"O c #007D00",
"+ c #CCCCCC",
"@ c #989898",
"# c #80BE80",
"$ c #808080",
"% c #5A5A5A",
"& c #FFFFFF",
"* c #F3F3F3",
"= c #404040",
"- c #343434",
"; c #D9D9D9",
": c #1A1A1A",
"> c None",
/* pixels */
"                        ",
"                        ",
"     ==$$$:             ",
"     $$&&&$$&&&&&&&;%   ",
"     ==$$$:        %&:  ",
"                    .$  ",
"                    .$  ",
"    %;&++@++@++@;: %&:  ",
"   :*- X++@++@++@&&;%   ",
"   $$                   ",
"   $$                   ",
"  %$$$$$$$$$$$$$$$$$$%  ",
"  &&&&&&&&&&&&&&&O##o&  ",
"  &..&&$$$$$$$$.&.$$$&  ",
"  &  &$         &   :&  ",
"  &  &          &    &  ",
"  &  &          &   :&  ",
"  &  &          &   &&  ",
"  &..&.=      =.&.$.&&  ",
"  &&&&&;$$$$$$;&&&&&&&  ",
"  %$$$$$$$$$$$$$$$$$$%  ",
"                        ",
"                        ",
"                        "
};
