/* XPM */
static char *linux[] = {
/* width height ncolors chars_per_pixel */
"24 24 19 1",
/* colors */
"  c #000000",
". c #999999",
"X c #8D8D8D",
"o c #737373",
"O c #595959",
"+ c #333333",
"@ c #C0C0C0",
"# c #B2B2B2",
"$ c #808080",
"% c #5A5A5A",
"& c #FFFFFF",
"* c #F3F3F3",
"= c #404040",
"- c #343434",
"; c #D9D9D9",
": c #CDCDCD",
"> c #1A1A1A",
", c #C1C1C1",
"< c None",
/* pixels */
"                        ",
"                        ",
"           >$>          ",
"          o&@@;%        ",
"          &&@;&&,-      ",
"          :&&&o         ",
"          $&&&          ",
"          X&&&O         ",
"         o*&&&.         ",
"        o&&&&&&O        ",
"       o&&&&.;&;        ",
"      o&&&&. >&&o       ",
"     o&&&&&+  #&&>      ",
"    o;$>O&&   $&&.      ",
"        ;&;   $;.&>     ",
"       O&&.   +$ >=     ",
"       $&&$    ;        ",
"       O&&$    &        ",
"        &&$    &        ",
"        ;&$   O&        ",
"        .&.   ..        ",
"      =;&&*.$.*&.%      ",
"                        ",
"                        "
};
