/* XPM */
static char *lock[] = {
/* width height ncolors chars_per_pixel */
"24 24 20 1",
/* colors */
"  c #000000",
". c #676767",
"X c #E6E6E6",
"o c #A1A000",
"O c #272727",
"+ c #212000",
"@ c #C0C000",
"# c #A6A6A6",
"$ c #9A9A9A",
"% c #818000",
"& c #808080",
"* c #E0DF00",
"= c #A0A000",
"- c #666666",
"; c #5A5A5A",
": c #FFFFFF",
"> c #FFFF00",
", c #616000",
"< c #808000",
"1 c None",
/* pixels */
"                        ",
"                        ",
"                        ",
"             O&&&.      ",
"            -:::::X     ",
"            X::::::-    ",
"  O&&&&&&&&&:::::::&    ",
"           &::::O #&    ",
"  OX:::::::::::: ;&&    ",
"   OX$ $$OXO::::--X&    ",
"            #:::&-:O    ",
"            O#::&-.     ",
"                 -      ",
"              +o<-*,    ",
"             %>>+;=>*+  ",
"             >>>+ =>><  ",
"             >>>>>>>><  ",
"             >@<<<<<><  ",
"             >@<<<<<><  ",
"             ><     ><  ",
"             >>>>>>>><  ",
"             ,<<<<<<<+  ",
"                        ",
"                        "
};
