/* XPM */
static char *mail[] = {
/* width height ncolors chars_per_pixel */
"24 24 16 1",
/* colors */
"  c #000000",
". c #737373",
"X c #676767",
"o c #C0C0DF",
"O c #E6E6E6",
"+ c #272727",
"@ c #CCCCCC",
"# c #C0C0C0",
"$ c #A6A6A6",
"% c #8080BF",
"& c #808080",
"* c #0000BF",
"= c #FFFFFF",
"- c #F3F3F3",
"; c #0000FF",
": c None",
/* pixels */
"                        ",
"                        ",
"                        ",
"                        ",
"       -=========o%%.   ",
"       =======O@@%;*&   ",
"       =======O@@%;*&   ",
"       =======O@@o%%&   ",
"       =============&   ",
"                  &=&   ",
"   .=============.&=&   ",
"    XO=========OX &=&   ",
"   &$+XO=====OX+$&&=.   ",
"   &==$+XO=OX+$==&      ",
"   &====$+ +$====&      ",
"   &=============&      ",
"   &&      ======&      ",
"   &#&&&#========&      ",
"   .#&&&#========.      ",
"                        ",
"                        ",
"                        ",
"                        ",
"                        "
};
