/* XPM */
static char *modules[] = {
/* width height ncolors chars_per_pixel */
"24 24 19 1",
/* colors */
"  c #000000",
". c #999999",
"X c #737373",
"o c #333333",
"O c #212000",
"+ c #CCCCCC",
"@ c #C0C0C0",
"# c #8C8C8C",
"$ c #808080",
"% c #747474",
"& c #5A5A5A",
"* c #FFFFFF",
"= c #FFFF00",
"- c #343434",
"; c #616000",
": c #D9D9D9",
"> c #1A1A1A",
", c #808000",
"< c None",
/* pixels */
"                        ",
"                        ",
"             O,,,,,,,O  ",
"             ;,,,,,,;   ",
"     >$$$$$$&=======    ",
"    >:.$$$$$>=======    ",
"   >::$$$$-  =======    ",
"   $@$$$$+$  =======    ",
"   $$    $$  =======    ",
"   $$    $$  =======    ",
"   $$    $$  =======    ",
"   $$    $$      >oo    ",
"   $$    $#      @:*    ",
"   $$    %*******:>*    ",
"   $$           $$ *    ",
"   $$           $$ *    ",
"   $$           $$ *    ",
"   $$           $$ *    ",
"   $$           $$ *    ",
"   $$           $$>*    ",
"   $#           $.:X    ",
"   %**************X     ",
"                        ",
"                        "
};
