/* XPM */
static char *monitoring[] = {
/* width height ncolors chars_per_pixel */
"24 24 19 1",
/* colors */
"  c #000000",
". c #8D8D8D",
"X c #676767",
"o c #00FF00",
"O c #00DF00",
"+ c #E6E6E6",
"@ c #272727",
"# c #C0C0C0",
"$ c #A6A6A6",
"% c #808080",
"& c #666666",
"* c #FFFFFF",
"= c #404040",
"- c #00A000",
"; c #008000",
": c #006000",
"> c #004000",
", c #002000",
"< c None",
/* pixels */
"                        ",
"                        ",
"                        ",
"                        ",
"  @%%%%%%%%%%%%%%%%%%@  ",
"  %******************%  ",
"  %*+X        @$**$+*%  ",
"  %*&           +$ @*%  ",
"  %*   ,O:    :,%+@.*%  ",
"  %*  ,OO;   ;o;%#%%*%  ",
"  %*>;O;;;,;-O-;%%  *%  ",
"  %*>;: ;-O-;,>>%##%*%  ",
"  %*    ;o;     %%% *%  ",
"  %*@   ,:      $##%*%  ",
"  %*$          @*##%*%  ",
"  %**+%%%%%%%%$**%% *%  ",
"  =%%%%%%%%%%%%%%%%%%=  ",
"  =%%%%%%%%%%%%%%%%%%=  ",
"  %%% %% %% *********%  ",
"  @== == == %%%%%%%%%@  ",
"                        ",
"                        ",
"                        ",
"                        "
};
