/* XPM */
static char *mouse[] = {
/* width height ncolors chars_per_pixel */
"24 24 16 1",
/* colors */
"  c #000000",
". c #999999",
"X c #8D8D8D",
"o c #595959",
"O c #B4B4B4",
"+ c #A8A8A8",
"@ c #808080",
"# c #747474",
"$ c #5A5A5A",
"% c #FFFFFF",
"& c #F3F3F3",
"* c #404040",
"= c #343434",
"- c #D9D9D9",
"; c #1A1A1A",
": c None",
/* pixels */
"                        ",
"                        ",
"        ;+%%%%.;        ",
"        +-=  $-.   ##   ",
"        %=    o%   @@   ",
"        @      %   @@   ",
"       *@*     %   @@   ",
"    =-%%%%%-=  %   @@   ",
"    -==O O==-  %   @@   ",
"    %  @ @  %  %   @@   ",
"    %  @ @  %  %   @@   ",
"    %  @ @  %  %   @@   ",
"    %==O O==%  %   @@   ",
"    @@@@@@@@@  %   @@   ",
"    @@@@@@@@@  %   @@   ",
"    %%%%%%%%%  %   @@   ",
"    %%%%%%%%%  %   @@   ",
"    %%%%%%%%%  %   @@   ",
"    %%%%%%%%%  -X ;&o   ",
"    X%%%%%%%X  o%.--    ",
"     $@@@@@$    ;@$     ",
"                        ",
"                        ",
"                        "
};
