/* XPM */
static char *multimedia[] = {
/* width height ncolors chars_per_pixel */
"24 24 17 1",
/* colors */
"  c #000000",
". c #999999",
"X c #C1BE00",
"o c #595959",
"O c #212000",
"+ c #C0C0C0",
"@ c #404000",
"# c #808080",
"$ c #E0DF00",
"% c #5A5A5A",
"& c #FFFFFF",
"* c #FFFF00",
"= c #404040",
"- c #D9D9D9",
"; c #1A1A1A",
": c #808000",
"> c None",
/* pixels */
"                        ",
"                        ",
"    ###########=        ",
"    &#&.####-++#        ",
"    & &     ####        ",
"    &&&     #&&#        ",
"    & &     ####        ",
"    &#&;    .++#        ",
"    &#&&&&&&&++#        ",
"    & &;    .###   OX   ",
"    &&&     #&&#  O$*   ",
"    & &     #### O$**   ",
"    &#&     ====O$***   ",
"    &#&.####oO:@:****   ",
"    & &.####o:*::****   ",
"    &&&      :*::****   ",
"    & &      :*::****   ",
"    &#&      O:@:****   ",
"    &#&;    %===O$***   ",
"    & &&&&&&&### O$**   ",
"    &&&;    .&&#  O$*   ",
"    # #     ====   OX   ",
"                        ",
"                        "
};
