/* XPM */
static char *netscape[] = {
/* width height ncolors chars_per_pixel */
"24 24 32 1",
/* colors */
"  c #000000",
". c #999999",
"X c #00009E",
"o c #737373",
"O c #595959",
"+ c #8080BE",
"@ c #C0C0DF",
"# c #4040DF",
"$ c #595979",
"% c #8C8CAB",
"& c #C0C0FF",
"* c #C0C0C0",
"= c #8C8C8C",
"- c #00007D",
"; c #40409E",
": c #808080",
"> c #747474",
", c #5A5A5A",
"< c #585858",
"1 c #FFFFFF",
"2 c #4C4C4C",
"3 c #4040BE",
"4 c #8080DF",
"5 c #00005E",
"6 c #404040",
"7 c #343434",
"8 c #D9D9D9",
"9 c #1A1A1A",
"0 c #8080FF",
"q c #8080C0",
"w c #00003F",
"e c None",
/* pixels */
"                        ",
"                        ",
"         9::::9         ",
"      9.114@@411.9      ",
"     o14#1-++-1#48,     ",
"    o1#-44-++-+4-#1O    ",
"   91#--1X-++-X1--#89   ",
"   .1111111111111111.   ",
"   1X-X1---++---1X-X1   ",
"  7&--+4---++---4+--17  ",
"  :+--++--w$$www$$ww.O  ",
"  :@++@@++9::::::::::6  ",
"  :@++@@++91++++++++@:  ",
"  >4--++-- 1-+3--;+;+:  ",
"   1--3&-- 1-41#-X1X+:  ",
"   84++1++91-+&1#-1-+:  ",
"   O14+@&+91-++#1#1-+:  ",
"    8&XX1X 1-++-#11-+:  ",
"    98&X4q 15%=  <1w+:  ",
"     9.10191 ::   2 ::  ",
"       9::91::::::::*:  ",
"           ::::::::::6  ",
"                        ",
"                        "
};
