/* XPM */
static char *news[] = {
/* width height ncolors chars_per_pixel */
"24 24 27 1",
/* colors */
"  c #000000",
". c #FF8080",
"X c #818181",
"o c #E76868",
"O c #737373",
"+ c #676767",
"@ c #656565",
"# c #595959",
"$ c #4D4D4D",
"% c #333333",
"& c #FFC0C0",
"* c #C0C0C0",
"= c #DB9C9C",
"- c #FF0000",
"; c #9C9C9C",
": c #9A9A9A",
"> c #808080",
", c #747474",
"< c #686868",
"1 c #5A5A5A",
"2 c #FFFFFF",
"3 c #FF4040",
"4 c #D9D9D9",
"5 c #CFCFCF",
"6 c #1A1A1A",
"7 c #B5B5B5",
"8 c None",
/* pixels */
"                        ",
"                        ",
"                        ",
"                        ",
"     <55555555555555 5  ",
"     <o.-.o:@@@@@@@5 5  ",
"     <o2&2o7:::::::5 5  ",
"     <o232o<   <   5 5  ",
"     <=ooo=;<<<;<<<5 5  ",
"     <;<<<;;<<<;<<<5 5  ",
"                   X 5  ",
"  ,2222222222222>>,< 5  ",
"  >*>>>>>>>>>>>*>>>< 5  ",
"  >......&-&...&>>>< 5  ",
"  >..----.-.---.>>><%5  ",
"  >2222222222222>>>$5+  ",
"  >>   >   >   >>>>     ",
"  >*>>>*>>>*>>>*>>>     ",
"  >*>>>*>>>*>>>*>>>     ",
"  #46  OO  OO  O44#     ",
"   1>>>>>>>>>>>>>1      ",
"                        ",
"                        ",
"                        "
};
