/* XPM */
static char *printing[] = {
/* width height ncolors chars_per_pixel */
"24 24 16 1",
/* colors */
"  c #000000",
". c #818181",
"X c #737373",
"o c #00FF00",
"O c #C0C0C0",
"+ c #9C9C9C",
"@ c #808080",
"# c #747474",
"$ c #686868",
"% c #5A5A5A",
"& c #4E4E4E",
"* c #FFFFFF",
"= c #404040",
"- c #343434",
"; c #CFCFCF",
": c None",
/* pixels */
"                        ",
"                        ",
"                        ",
"      -$$$$$$$$%        ",
"      $+$$$$$$+*X       ",
"      $+$$$$$$+**X      ",
"      $$      $&        ",
"      $+$$$$$$$$.-      ",
"      $+$$$$$$$$+$      ",
"      $$    $;;;;$      ",
"      $;;;;;;;;;;$      ",
"      -$$$$$$$$$$-      ",
"  -@@@@@@@@@@@@@@@@@@-  ",
"  @***********@@@@@@O@  ",
"  @***********   @@o@@  ",
"  @***********@@@@@@O@  ",
"  =@@@@@@@@@@@@@@@@@@=  ",
"  =@@@@@@@@@@@@@@@@@@=  ",
"  #@@ @@ ************#  ",
"                        ",
"                        ",
"                        ",
"                        ",
"                        "
};
