/* XPM */
static char *programs[] = {
/* width height ncolors chars_per_pixel */
"24 24 11 1",
/* colors */
"  c #000000",
". c #C1BE00",
"X c #615F00",
"o c #C0C0C0",
"O c #404000",
"+ c #808080",
"@ c #FFFFFF",
"# c #FFFF00",
"$ c #404040",
"% c #808000",
"& c None",
/* pixels */
"                        ",
"                        ",
"                        ",
"                        ",
"  +@@@@@@@@@@@@@@@++@+  ",
"  +@@@@@@@@@@@@@@@++@+  ",
"                        ",
"  ++ %%O %%O %%O %%O++  ",
"  ++ ..X ..X ..X ..X++  ",
"  ++ ##% ##% ##% ##%++  ",
"  ++ %%O %%O %%O %%O++  ",
"  ++O%% O%% O%% O%% ++  ",
"  ++X.. X.. X.. X.. ++  ",
"  ++%## %## %## %## ++  ",
"  ++O%% O%% O%% O%% ++  ",
"  ++ %%O %%O %%O %%O++  ",
"  ++ ..X ..X ..X ..X++  ",
"  ++ ##% ##% ##% ##%++  ",
"  ++ %%O %%O %%O %%O++  ",
"  +o++++++++++++++++o+  ",
"  $++++++++++++++++++$  ",
"                        ",
"                        ",
"                        "
};
