/* XPM */
static char *quit[] = {
/* width height ncolors chars_per_pixel */
"24 24 12 1",
/* colors */
"  c #000000",
". c #999999",
"X c #595959",
"o c #CCCCCC",
"O c #8C8C8C",
"+ c #808080",
"@ c #747474",
"# c #FFFFFF",
"$ c #F3F3F3",
"% c #D9D9D9",
"& c #1A1A1A",
"* c None",
/* pixels */
"                        ",
"                        ",
"                        ",
"                        ",
"                        ",
"   $#############@      ",
"   #o++++++++++O#+      ",
"   #+           #+      ",
"   #+           #+X$&   ",
"   #+           #+ %.   ",
"   #+              X#&  ",
"   #+       @+++++++#.  ",
"   #+       ##########  ",
"   #+       @+++++++#.  ",
"   #+              X#&  ",
"   #+           #+ %.   ",
"   #+           #+X$&   ",
"   #+           #+      ",
"   #o++++++++++O#+      ",
"   $#############@      ",
"                        ",
"                        ",
"                        ",
"                        "
};
