/* XPM */
static char *refresh[] = {
/* width height ncolors chars_per_pixel */
"24 24 12 1",
/* colors */
"  c #000000",
". c #00FF00",
"X c #00DF00",
"o c #009F00",
"O c #007F00",
"+ c #005F00",
"@ c #00C000",
"# c #008000",
"$ c #006000",
"% c #004000",
"& c #002000",
"* c None",
/* pixels */
"                        ",
"                        ",
"                        ",
"        $oXX&@X#&       ",
"      $X....X @..O      ",
"     O......O @...X&    ",
"    +.....X$ @.....o    ",
"    X....O    &o....+   ",
"   +....O       O...o   ",
"   #...o         X...   ",
"   ....&         #...+  ",
"   ...o          &...#  ",
"   ...#           ...#  ",
"   ...X          +...#  ",
"   X...&         o...&  ",
"   #...o        &....   ",
"   &....O      &X...o   ",
"    o....X## %X.....&   ",
"    &X.....O%......O    ",
"     &X...O%......O     ",
"       $X.X&@...o&      ",
"         &#$ #$         ",
"                        ",
"                        "
};
