/* XPM */
static char *restart[] = {
/* width height ncolors chars_per_pixel */
"24 24 10 1",
/* colors */
"  c #000000",
". c #800000",
"X c #600000",
"o c #400000",
"O c #FF0000",
"+ c #C00000",
"@ c #200000",
"# c #DF0000",
"$ c #A00000",
"% c None",
/* pixels */
"                        ",
"                        ",
"                        ",
"        X$##@+#.@       ",
"      X#OOOO# +OO.      ",
"     .OOOOOO. +OOO#@    ",
"    XOOOOO#X +OOOOO$    ",
"    #OOOO.    @$OOOOX   ",
"   XOOOO.       .OOO$   ",
"   .OOO$         #OOO   ",
"   OOOO@         .OOOX  ",
"   OOO$          @OOO.  ",
"   OOO.           OOO.  ",
"   OOO#          XOOO.  ",
"   #OOO@         $OOO@  ",
"   .OOO$        @OOOO   ",
"   @OOOO.      @#OOO$   ",
"    $OOOO#.. o#OOOOO@   ",
"    @#OOOOO.oOOOOOO.    ",
"     @#OOO.oOOOOOO.     ",
"       X#O#@+OOO$@      ",
"         @.X .X         ",
"                        ",
"                        "
};
