/* XPM */
static char *science[] = {
/* width height ncolors chars_per_pixel */
"24 24 14 1",
/* colors */
"  c #000000",
". c #999999",
"X c #737373",
"o c #595959",
"O c #C0C0C0",
"+ c #B2B2B2",
"@ c #808080",
"# c #5A5A5A",
"$ c #FFFFFF",
"% c #404040",
"& c #D9D9D9",
"* c #1A1A1A",
"= c #0C0C0C",
"- c None",
/* pixels */
"                        ",
"                        ",
"            *@*         ",
"           *$$o         ",
"           &O*          ",
"          o$*           ",
"          &.            ",
"         o$*            ",
"         &.             ",
"        o$* *@@*        ",
"        &.  .OO.        ",
"       o$* *$* *@   %*  ",
"       &. #O&@ +*   *@  ",
"      o$* .$@%oo% *%oo  ",
"      &.  ..  + +#+*+   ",
"     o$* *$* oo oX oo   ",
"     &.  ..  +*+#+ +    ",
"    o$* *$* oo%= %Xo    ",
"   *&.      o.   .X     ",
"  o$$*                  ",
"  *@*                   ",
"                        ",
"                        ",
"                        "
};
