/* XPM */
static char *sound[] = {
/* width height ncolors chars_per_pixel */
"24 24 15 1",
/* colors */
"  c #000000",
". c #800000",
"X c #817F00",
"o c #9F0000",
"O c #615F00",
"+ c #7F0000",
"@ c #FF0000",
"# c #413F00",
"$ c #5F0000",
"% c #E0DF00",
"& c #200000",
"* c #DF0000",
"= c #FFFF00",
"- c #808000",
"; c None",
/* pixels */
"                        ",
"                        ",
"                        ",
"            #           ",
"           X=           ",
"          X==    +*     ",
"         X===     *+    ",
"        X====     &@    ",
"       O=====  &@& *$   ",
"   %==--=====   oo .o   ",
"   ===--=====&@&&@ &@   ",
"   ===--===== o. @  @   ",
"   ===--===== o. @  @   ",
"   ===--=====&@&$* &@   ",
"   %==--=====   *$ .o   ",
"       O=====  &.  *$   ",
"        X====     &@    ",
"         X===     *+    ",
"          X==    +*     ",
"           X=           ",
"            #           ",
"                        ",
"                        ",
"                        "
};
