/* XPM */
static char *system[] = {
/* width height ncolors chars_per_pixel */
"24 24 17 1",
/* colors */
"  c #000000",
". c #800000",
"X c #676767",
"o c #600000",
"O c #E6E6E6",
"+ c #272727",
"@ c #CCCCCC",
"# c #C0C0C0",
"$ c #A6A6A6",
"% c #FF0000",
"& c #808080",
"* c #666666",
"= c #200000",
"- c #FFFFFF",
"; c #DF0000",
": c #404040",
"> c None",
/* pixels */
"                        ",
"                        ",
"    X&&&&&&&&&&&&&&X    ",
"    -$&&&&&&&&&&&&$-    ",
"    -   =.o  o.=   -    ",
"    -  =;%%..%%;=  -    ",
"    -  .%%%%%%%%.  -    ",
"    -  .%%%%%%%%.  -    ",
"    -  =;%%%%%%;=  -    ",
"    -   =;%%%%;=   -    ",
"    -    =;%%;=    -    ",
"    -     =;;=     -    ",
"    -+     ==     +-    ",
"    ------------O@--    ",
"    X&&&&&&&&&&&X &X    ",
"       :&&&&&&&&        ",
"    &--------------&    ",
"    &&& && ------&&&    ",
"    ::: :: &&&&&&&&:    ",
"   *O&&&&&&&&&&##&&O*   ",
"   O+          &&  +O   ",
"   &&&&&&&&&&&&&&&&&&   ",
"                        ",
"                        "
};
