/* XPM */
static char *terminal[] = {
/* width height ncolors chars_per_pixel */
"24 24 15 1",
/* colors */
"  c #000000",
". c #999999",
"X c #737373",
"o c #00FF00",
"O c #595959",
"+ c #C0C0C0",
"@ c #808080",
"# c #5A5A5A",
"$ c #FFFFFF",
"% c #404040",
"& c #008000",
"* c #D9D9D9",
"= c #1A1A1A",
"- c #004000",
"; c None",
/* pixels */
"                        ",
"                        ",
"                        ",
"                        ",
"     #@@@@@@@@@@@@=     ",
"     $.@@@@@@@@@.$@     ",
"     $ &&&&&&-   $@     ",
"     $ &&&&&&-   $@     ",
"     $ ooooooo&  $@     ",
"     $ &&&&-     $@     ",
"     $ &&&&-     $@     ",
"     $ o         $@     ",
"     $ &         $@     ",
"     $.@@@@@@@@@.$@     ",
"     #@@@@@@@@@@@@=     ",
"   =*$$$$$$$$$$$$$$X    ",
"   ..         @@  =$=   ",
"  =$.%       @+@   ..   ",
"  O$$$$$$$$$$$$$$$$$*   ",
"                        ",
"                        ",
"                        ",
"                        ",
"                        "
};
