/* XPM */
static char *terminal-special[] = {
/* width height ncolors chars_per_pixel */
"24 24 16 1",
/* colors */
"  c #000000",
". c #999999",
"X c #817F00",
"o c #595959",
"O c #C0C000",
"+ c #C0C0C0",
"@ c #808080",
"# c #5A5A5A",
"$ c #FFFFFF",
"% c #FFFF00",
"& c #404040",
"* c #616000",
"= c #D9D9D9",
"- c #1A1A1A",
"; c #808000",
": c None",
/* pixels */
"                        ",
"                        ",
"                        ",
"                        ",
"     #@@@@@@@@@@@@-     ",
"     $.@@@@@@@@@.$@     ",
"     $           $@     ",
"     $  %%O;%=-  $@     ",
"     $  %%; %$=  $@     ",
"     $  %%; %*   $@     ",
"     $  %%O;%%X  $@     ",
"     $  %%O;%%%  $@     ",
"     $           $@     ",
"     $.@@@@@@@@@.$@     ",
"     #@@@@@@@@@@@@-     ",
"   -$$$$$$$$$$$$$$$.    ",
"   ..         @@  -$-   ",
"  -$.&       @+@   ..   ",
"  o$$$$$$$$$$$$$$$$$=   ",
"                        ",
"                        ",
"                        ",
"                        ",
"                        "
};
