/* XPM */
static char *terminal-remote[] = {
/* width height ncolors chars_per_pixel */
"24 24 20 1",
/* colors */
"  c #000000",
". c #ADADAD",
"X c #6D6D6D",
"o c #ECECEC",
"O c #A1A000",
"+ c #2D2D2D",
"@ c #212000",
"# c #C0C0C0",
"$ c #ACACAC",
"% c #818000",
"& c #808080",
"* c #E0DF00",
"= c #FFFFFF",
"- c #FFFF00",
"; c #404040",
": c #008000",
"> c #616000",
", c #004000",
"< c #808000",
"1 c None",
/* pixels */
"                        ",
"                        ",
"    +&&&&&X             ",
"    &#&&&&=             ",
"    &&::: =             ",
"    &&::  =             ",
"    &&,   =             ",
"    X===##o             ",
"   &&&&&&&&&;           ",
"  X$     & +o           ",
"  o.&&&&&#&&oX          ",
"  &&&&&&&&&&&;          ",
"      @*-*@   .=====.   ",
"       @*-*@ ;&&&&&&    ",
"        @*-*@&  ====    ",
"      @O--*<>&  ====    ",
"        @O-% &======    ",
"          @O%&======    ",
"             &======    ",
"             &======    ",
"             &======    ",
"             ;&&&&&&    ",
"                        ",
"                        "
};
