/* XPM */
static char *utility[] = {
/* width height ncolors chars_per_pixel */
"24 24 22 1",
/* colors */
"  c #000000",
". c #999999",
"X c #800000",
"o c #737373",
"O c #595959",
"+ c #4D4D4D",
"@ c #600000",
"# c #333333",
"$ c #BE0000",
"% c #C0C0C0",
"& c #FF0000",
"* c #9E0000",
"= c #808080",
"- c #5F0000",
"; c #5A5A5A",
": c #200000",
"> c #FFFFFF",
", c #DF0000",
"< c #404040",
"1 c #D9D9D9",
"2 c #1A1A1A",
"3 c None",
/* pixels */
"                        ",
"   2                    ",
"   =o                   ",
"   =>2                  ",
"   =>=                  ",
"   =>.      ;           ",
"   =>>     o>           ",
"   =>>2   o>>   =.2     ",
"   =.>=  o>>1   2112    ",
"   ==>= o1.>O    21.    ",
"   ==>Oo1#11      2>    ",
"   =.oo>.112    O%#>    ",
"   =oo>>>12     =>>>    ",
"   =+.===2      <==1    ",
"     @XXXXXXXXXXXX@     ",
"    ,&&&&&&&&&&&&&&,    ",
"   -&&&&&&&&&&&&&&&,-   ",
"   X&&&&&&&&&&&&&&&$X   ",
"   :&$$$$$$$$$$$$$$*:   ",
"    @$$$$$$$$$$$$$$@    ",
"                        ",
"                        ",
"                        ",
"                        "
};
