/* XPM */
static char *video[] = {
/* width height ncolors chars_per_pixel */
"24 24 19 1",
/* colors */
"  c #000000",
". c #818181",
"X c #007D00",
"o c #9C9C9C",
"O c #80BE80",
"+ c #808080",
"@ c #747474",
"# c #686868",
"$ c #FFFFFF",
"% c #00BE00",
"& c #009E00",
"* c #343434",
"= c #C0FFC0",
"- c #CFCFCF",
"; c #C0DFC0",
": c #1A1A1A",
"> c #0C0C0C",
", c #B5B5B5",
"< c None",
/* pixels */
"                        ",
"                        ",
"    ###########*        ",
"    -#-.####,oo#        ",
"    - -     ####        ",
"    ---     #--#        ",
"    - -     ####        ",
"    -#-:    .oo#        ",
"    -#-------oo#        ",
"    - ->    .###        ",
"    ---     #--#        ",
"    - -     ####        ",
"    -#-     #oo#        ",
"    -#-@####,oo#        ",
"    - -@#####***        ",
"    ---    :++++++++:   ",
"    - -    +$;=$;=$$+   ",
"    -#-    +$O&=O&=$+   ",
"    -#->   +$OX%OX%$+   ",
"    - ----#+$O&=O&=$+   ",
"    --->   +$;=$;=$$+   ",
"    # #    :++++++++:   ",
"                        ",
"                        "
};
