/* XPM */
static char *viewer[] = {
/* width height ncolors chars_per_pixel */
"24 24 21 1",
/* colors */
"  c #000000",
". c #999999",
"X c #818181",
"o c #737373",
"O c #595959",
"+ c #9C9C9C",
"@ c #808080",
"# c #747474",
"$ c #686868",
"% c #5A5A5A",
"& c #4E4E4E",
"* c #FFFFFF",
"= c #404040",
"- c #343434",
"; c #D9D9D9",
": c #CFCFCF",
"> c #CDCDCD",
", c #1A1A1A",
"< c #0C0C0C",
"1 c #B5B5B5",
"2 c None",
/* pixels */
"                        ",
"                        ",
"                        ",
"     ,=-$$,%.**;%<      ",
"    ,;@$:,O*., %;;<     ",
"   ,;*@$1 ;o,@@%,;O     ",
"   =@@=$$O; ,@@* O;     ",
"   -$$$1$@@ O***  *     ",
"   $$    @. @$ * ,*     ",
"   $+$$$-,*,O**>#..     ",
"   $+$$$$-;;,   o*,     ",
"   $$     ,.*.@;;%      ",
"   $+$$$$$- ,@@%        ",
"   $+$$$$$$$$&  ,.      ",
"   $$    $::::, .*O     ",
"   $::::::::::X O*;     ",
"   $:::::::::::  ;*O    ",
"   $:::::::::::  O*;    ",
"   $:::::::::::   ;*O   ",
"   $:::::::::::   O*;,  ",
"                   .,   ",
"                        ",
"                        ",
"                        "
};
