/* XPM */
static char *windows[] = {
/* width height ncolors chars_per_pixel */
"24 24 6 1",
/* colors */
"  c #000000",
". c #CCCCCC",
"X c #808080",
"o c #666666",
"O c #FFFFFF",
"+ c None",
/* pixels */
"                        ",
"                        ",
"                        ",
"       ooooooooooo oo   ",
"       ........... ..   ",
"       ooooooooooo oo   ",
"       o            .   ",
"   OOOOOOOOOOO OO   .   ",
"   OOOOOOOOOOO OO   .   ",
"                    .   ",
"   O            O   .   ",
"   O            O   .   ",
"   O            O   .   ",
"   O            O   .   ",
"   O            O   .   ",
"   O            O ...   ",
"   O            O       ",
"   O            O       ",
"   O            O       ",
"   OXXXXXXXXXXXXO       ",
"   XXXXXXXXXXXXXX       ",
"                        ",
"                        ",
"                        "
};
