/* XPM */
static char *window-maximize[] = {
/* width height ncolors chars_per_pixel */
"24 24 14 1",
/* colors */
"  c #000000",
". c #656565",
"X c #333333",
"o c #7F0000",
"O c #C0C0C0",
"+ c #808080",
"@ c #5F0000",
"# c #200000",
"$ c #FFFFFF",
"% c #DF0000",
"& c #4C4C4C",
"* c #404040",
"= c #1A1A1A",
"- c None",
/* pixels */
"                        ",
"                        ",
"                        ",
"                        ",
"   +$$$$$$$$$$$$$++$+   ",
"   +$$$$$$$$$$$$$++$+   ",
"                  #     ",
"   ++            o%++   ",
"   ++           o%#++   ",
"   ++          o%# ++   ",
"   ++         o%#  ++   ",
"   ++        o%#   ++   ",
"   **       @%#    ++   ",
"   XXXXXXX X=#     ++   ",
"   ....... .X      ++   ",
"                   ++   ",
"   .       XX      ++   ",
"   .       XX      ++   ",
"   .       XX*+++++O+   ",
"   .XXXXXXX&X*++++++*   ",
"   XXXXXXXXX=           ",
"                        ",
"                        ",
"                        "
};
