/* XPM */
static char *window-resize[] = {
/* width height ncolors chars_per_pixel */
"24 24 16 1",
/* colors */
"  c #000000",
". c #800000",
"X c #333333",
"o c #BE0000",
"O c #7F0000",
"+ c #400000",
"@ c #FF0000",
"# c #9E0000",
"$ c #808080",
"% c #5F0000",
"& c #200000",
"* c #FFFFFF",
"= c #DF0000",
"- c #3F0000",
"; c #1A1A1A",
": c None",
/* pixels */
"                        ",
"                        ",
"                        ",
"                        ",
"    XX $*********$$*$   ",
"    XX $*********$$*$   ",
"                        ",
"    XX $$   &....  $$   ",
"    XX $$    O@@@  $$   ",
"    XX $$    O@@@  $$   ",
"    XX $$    O@o@  $$   ",
"    XX $$  O=&- O  $$   ",
"    XX $$ +#=%     $$   ",
"    XX $$%o@-      $$   ",
"    XX $$&=-       $$   ",
"    XX $$          $$   ",
"    XX $************$   ",
"    XX                  ",
"    XX XXXXXXXXXXXX;    ",
"    XXXXXXXXXXXXXX      ",
"    X                   ",
"    XXXXXXXXXXXX;       ",
"                        ",
"                        "
};
