/* XPM */
static char *window-shade[] = {
/* width height ncolors chars_per_pixel */
"24 24 14 1",
/* colors */
"  c #000000",
". c #800000",
"X c #600000",
"o c #BE0000",
"O c #C0C0C0",
"+ c #FF0000",
"@ c #808080",
"# c #200000",
"$ c #FFFFFF",
"% c #DF0000",
"& c #404040",
"* c #181818",
"= c #0C0C0C",
"- c None",
/* pixels */
"                        ",
"                        ",
"                        ",
"                        ",
"   @$$$$$$$$$$$$$@@$@   ",
"   @$$$$$$$$$$$$$@@$@   ",
"                        ",
"   @@              @@   ",
"   @O@@@@@@@@@@@@@@O@   ",
"   &@@@@@@@@@@@@@@@@&   ",
"   =      #%%#      =   ",
"   *     #%++%#     *   ",
"   =*****X.++.X*****=   ",
"   =       oo       =   ",
"   *       ..       *   ",
"   *       ..       *   ",
"   =******=++=******=   ",
"   =       ..       =   ",
"   ******************   ",
"                        ",
"   =****************=   ",
"                        ",
"                        ",
"                        "
};
