/* XPM */
static char *window-move[] = {
/* width height ncolors chars_per_pixel */
"24 24 13 1",
/* colors */
"  c #000000",
". c #800000",
"X c #600000",
"o c #333333",
"O c #7F0000",
"+ c #FF0000",
"@ c #808080",
"# c #200000",
"$ c #FFFFFF",
"% c #DF0000",
"& c #3F0000",
"* c #1A1A1A",
"= c None",
/* pixels */
"                        ",
"                        ",
"                        ",
"                        ",
"     @$$$$$$$$$$$@@$@   ",
"    *@$$$$$$$$$$$@@$@   ",
"    o                   ",
"    o@@     X..... @@   ",
"     @@     #%++++ @@   ",
"    o@@      O++++ @@   ",
"    o@@     O+++++ @@   ",
"    o@@    &O+++%+ @@   ",
"    o@@   O+OO+O#% @@   ",
"    o@@  &+++O&  # @@   ",
"    o@@ OOO++O     @@   ",
"    o@@&%+OOO      @@   ",
"    o@@%X%+&       @@   ",
"    o@@#%XO        @@   ",
"    o@@ #X         @@   ",
"    o@$$$$$$$$$$$$$$@   ",
"    o                   ",
"    oooooooooooooo*     ",
"                        ",
"                        "
};
