/* XPM */
static char *www[] = {
/* width height ncolors chars_per_pixel */
"24 24 27 1",
/* colors */
"  c #000000",
". c #999999",
"X c #00009E",
"o c #737373",
"O c #595959",
"+ c #8080BE",
"@ c #C0C0DF",
"# c #4040DF",
"$ c #333333",
"% c #CCCCCC",
"& c #C0C0FF",
"* c #C0C0C0",
"= c #00007D",
"- c #808080",
"; c #747474",
": c #5A5A5A",
"> c #585858",
", c #FFFFFF",
"< c #4C4C4C",
"1 c #4040BE",
"2 c #8080DF",
"3 c #404040",
"4 c #343434",
"5 c #D9D9D9",
"6 c #1A1A1A",
"7 c #0C0C0C",
"8 c None",
/* pixels */
"                        ",
"                        ",
"         4----4         ",
"      6.,,&@@&,,.6      ",
"     o,&#,X++X,#&5:     ",
"    o,2X@2=++=22=#,O    ",
"   6,#==,X=++=X,==#56   ",
"   .,,,,,,,,,,,,,,,,.   ",
"   ,X=X,===++===,X=X,   ",
"  4&==+2===++===2+==,4  ",
"  -+==++===++===++==2-  ",
"  -@++@@+++@@+++@@++@-  ",
"  -@++@@+++@@+++@@++@-  ",
"  ;2==++===++===++==&;  ",
"   ,==1&===++===&1==,   ",
"   52++,+++@@+++,++25   ",
"   O,2+@&++@@++@@+2,O   ",
"    5&XX,X 66  66  $    ",
"    65&12+ ,  >-7%      ",
"     6.,&& ,*O**3,3,*<  ",
"       6-- ,---- , ,--  ",
"           -336- :3,-7  ",
"                   -    ",
"                        "
};
