/* XPM */
static char *item[] = {
/* width height num_colors chars_per_pixel */
"    32    32        6            1",
/* colors */
"  c #b2c0dc",
". c #c0ffff",
"o c #00ffff",
"x c #00c0c0",
"X c #008080",
"@ c #000000",
/* pixels */
"                                ",
"                                ",
"                                ",
"                                ",
"                                ",
"                                ",
"                                ",
"            @@@@@@              ",
"           @......@             ",
"          @......oo@            ",
"         @ooo...oooo@           ",
"        @oooooooooooo@          ",
"       @ooooooooooooXX@         ",
"       @oooooooooooXXX@         ",
"       @xxooooooooXXXX@         ",
"       @xxxxxooooXXXXX@         ",
"       @xxxxxxxxXXXXXX@         ",
"       @xxxxxxxxXXXXXX@         ",
"        @xxxxxxxXXXXX@          ",
"         @xxxxxxXXXX@           ",
"          @xxxxxXXX@            ",
"           @xxxxXX@             ",
"            @@@@@@              ",
"                                ",
"                                ",
"                                ",
"                                ",
"                                ",
"                                ",
"                                ",
"                                ",
"                                ",
};
