/* XPM */
static char *www2[] = {
/* width height num_colors chars_per_pixel */
"    32    32       27            1",
/* colors */
". c #b2c0dc",
"# c #000080",
"a c #0000c0",
"b c #0000ff",
"c c #004000",
"d c #004040",
"e c #008000",
"f c #008080",
"g c #00c0c0",
"h c #303030",
"i c #404000",
"j c #585858",
"k c #808000",
"l c #808080",
"m c #a0a0a0",
"n c #a0a0a0",
"o c #c0c000",
"p c #c0c0ff",
"q c #c0ffc0",
"r c #c3c3c3",
"s c #dcdcdc",
"t c #ffa858",
"u c #ffc0c0",
"v c #ffc0ff",
"w c #ffdca8",
"x c #ffffc0",
"y c #ffffff",
/* pixels */
"..wj............................",
"..kwj.jh........................",
"...lwhynj...jjj.................",
"....hyysrjjjnyyhjjjj............",
"...jyyysslyxykelnnnl#h..........",
"...nhsyylsyjotwttngffj#h........",
"....nlrlyydnrtwtngonlafjh.......",
".....jnsvfnwwswnwnnnnlgadd......",
".....njyslprxuswqtnollfa#j......",
".....lsydgnvsyxwwntnlblljdh.....",
".....jys#gsyyxwqtntlglbga#h.....",
"...jhny#lnrxyswwxolnbglffjhh....",
"lljrynydgppsxswttngngpabajhh....",
"jyyyyryjngppxwngnlngbnglfdhh....",
"lyyyyny#bpgnrtnnpbbpngblajdh....",
"lrrsylydngnblqnngnggbglf#dhh....",
"jjjrrlydgngppbntnljlflbajdh#h...",
"...jhnyn#apbgpggnllljjfjdhdrmh..",
".....jysjfgnngpbtloljjhdhh#sjh..",
".....jsynalgnbglkoljjjh#hhrsh...",
"......jyydjglblalkkjjjhhhdsjh...",
".....jnnyr#jflfgjljhhhhh#snh....",
"....njyjrys##ffjjhhhjhhdsr.jj...",
"...njyysjnyynj#hhhjhchsrnjnlh...",
"...jyysssjnsysrd#dhdsrrnjlnnjh..",
"....hssslhjlhyyyyssyrnjjrrrnnlh.",
".....jrnh....jnjjnjjjj.jjrrnnh..",
"......hh.....jyrrrnh.....jsrhkj.",
".............jyssrnh......jh.ltj",
"..............jsrrh...........li",
"..............jysnh.............",
"..............ljjjj............."
};
